%TF.GenerationSoftware,KiCad,Pcbnew,7.0.8*%
%TF.CreationDate,2023-11-14T21:54:52-08:00*%
%TF.ProjectId,window_weather_monitor,77696e64-6f77-45f7-9765-61746865725f,4*%
%TF.SameCoordinates,Original*%
%TF.FileFunction,Legend,Bot*%
%TF.FilePolarity,Positive*%
%FSLAX46Y46*%
G04 Gerber Fmt 4.6, Leading zero omitted, Abs format (unit mm)*
G04 Created by KiCad (PCBNEW 7.0.8) date 2023-11-14 21:54:52*
%MOMM*%
%LPD*%
G01*
G04 APERTURE LIST*
G04 Aperture macros list*
%AMRoundRect*
0 Rectangle with rounded corners*
0 $1 Rounding radius*
0 $2 $3 $4 $5 $6 $7 $8 $9 X,Y pos of 4 corners*
0 Add a 4 corners polygon primitive as box body*
4,1,4,$2,$3,$4,$5,$6,$7,$8,$9,$2,$3,0*
0 Add four circle primitives for the rounded corners*
1,1,$1+$1,$2,$3*
1,1,$1+$1,$4,$5*
1,1,$1+$1,$6,$7*
1,1,$1+$1,$8,$9*
0 Add four rect primitives between the rounded corners*
20,1,$1+$1,$2,$3,$4,$5,0*
20,1,$1+$1,$4,$5,$6,$7,0*
20,1,$1+$1,$6,$7,$8,$9,0*
20,1,$1+$1,$8,$9,$2,$3,0*%
G04 Aperture macros list end*
%ADD10C,0.200000*%
%ADD11R,1.600000X1.600000*%
%ADD12C,1.600000*%
%ADD13R,1.000000X1.000000*%
%ADD14O,1.000000X1.000000*%
%ADD15R,1.070000X1.800000*%
%ADD16O,1.070000X1.800000*%
%ADD17C,2.000000*%
%ADD18R,2.000000X4.000000*%
%ADD19O,2.000000X3.300000*%
%ADD20O,3.500000X2.000000*%
%ADD21RoundRect,0.250000X-0.600000X-0.725000X0.600000X-0.725000X0.600000X0.725000X-0.600000X0.725000X0*%
%ADD22O,1.700000X1.950000*%
%ADD23R,1.500000X1.500000*%
%ADD24C,1.500000*%
%ADD25R,1.800000X1.800000*%
%ADD26C,1.800000*%
%ADD27R,1.905000X2.000000*%
%ADD28O,1.905000X2.000000*%
%ADD29R,1.730000X2.030000*%
%ADD30O,1.730000X2.030000*%
%ADD31RoundRect,0.250000X0.845000X-0.620000X0.845000X0.620000X-0.845000X0.620000X-0.845000X-0.620000X0*%
%ADD32O,2.190000X1.740000*%
%ADD33C,1.524000*%
G04 APERTURE END LIST*
D10*
X64720983Y-42074419D02*
X64149555Y-42074419D01*
X64435269Y-43074419D02*
X64435269Y-42074419D01*
X63435269Y-43026800D02*
X63530507Y-43074419D01*
X63530507Y-43074419D02*
X63720983Y-43074419D01*
X63720983Y-43074419D02*
X63816221Y-43026800D01*
X63816221Y-43026800D02*
X63863840Y-42931561D01*
X63863840Y-42931561D02*
X63863840Y-42550609D01*
X63863840Y-42550609D02*
X63816221Y-42455371D01*
X63816221Y-42455371D02*
X63720983Y-42407752D01*
X63720983Y-42407752D02*
X63530507Y-42407752D01*
X63530507Y-42407752D02*
X63435269Y-42455371D01*
X63435269Y-42455371D02*
X63387650Y-42550609D01*
X63387650Y-42550609D02*
X63387650Y-42645847D01*
X63387650Y-42645847D02*
X63863840Y-42741085D01*
X62530507Y-43074419D02*
X62530507Y-42550609D01*
X62530507Y-42550609D02*
X62578126Y-42455371D01*
X62578126Y-42455371D02*
X62673364Y-42407752D01*
X62673364Y-42407752D02*
X62863840Y-42407752D01*
X62863840Y-42407752D02*
X62959078Y-42455371D01*
X62530507Y-43026800D02*
X62625745Y-43074419D01*
X62625745Y-43074419D02*
X62863840Y-43074419D01*
X62863840Y-43074419D02*
X62959078Y-43026800D01*
X62959078Y-43026800D02*
X63006697Y-42931561D01*
X63006697Y-42931561D02*
X63006697Y-42836323D01*
X63006697Y-42836323D02*
X62959078Y-42741085D01*
X62959078Y-42741085D02*
X62863840Y-42693466D01*
X62863840Y-42693466D02*
X62625745Y-42693466D01*
X62625745Y-42693466D02*
X62530507Y-42645847D01*
X62054316Y-43074419D02*
X62054316Y-42407752D01*
X62054316Y-42502990D02*
X62006697Y-42455371D01*
X62006697Y-42455371D02*
X61911459Y-42407752D01*
X61911459Y-42407752D02*
X61768602Y-42407752D01*
X61768602Y-42407752D02*
X61673364Y-42455371D01*
X61673364Y-42455371D02*
X61625745Y-42550609D01*
X61625745Y-42550609D02*
X61625745Y-43074419D01*
X61625745Y-42550609D02*
X61578126Y-42455371D01*
X61578126Y-42455371D02*
X61482888Y-42407752D01*
X61482888Y-42407752D02*
X61340031Y-42407752D01*
X61340031Y-42407752D02*
X61244792Y-42455371D01*
X61244792Y-42455371D02*
X61197173Y-42550609D01*
X61197173Y-42550609D02*
X61197173Y-43074419D01*
X59959078Y-43074419D02*
X59959078Y-42074419D01*
X59959078Y-42074419D02*
X59625745Y-42788704D01*
X59625745Y-42788704D02*
X59292412Y-42074419D01*
X59292412Y-42074419D02*
X59292412Y-43074419D01*
X58435269Y-43026800D02*
X58530507Y-43074419D01*
X58530507Y-43074419D02*
X58720983Y-43074419D01*
X58720983Y-43074419D02*
X58816221Y-43026800D01*
X58816221Y-43026800D02*
X58863840Y-42931561D01*
X58863840Y-42931561D02*
X58863840Y-42550609D01*
X58863840Y-42550609D02*
X58816221Y-42455371D01*
X58816221Y-42455371D02*
X58720983Y-42407752D01*
X58720983Y-42407752D02*
X58530507Y-42407752D01*
X58530507Y-42407752D02*
X58435269Y-42455371D01*
X58435269Y-42455371D02*
X58387650Y-42550609D01*
X58387650Y-42550609D02*
X58387650Y-42645847D01*
X58387650Y-42645847D02*
X58863840Y-42741085D01*
X57959078Y-43074419D02*
X57959078Y-42407752D01*
X57959078Y-42502990D02*
X57911459Y-42455371D01*
X57911459Y-42455371D02*
X57816221Y-42407752D01*
X57816221Y-42407752D02*
X57673364Y-42407752D01*
X57673364Y-42407752D02*
X57578126Y-42455371D01*
X57578126Y-42455371D02*
X57530507Y-42550609D01*
X57530507Y-42550609D02*
X57530507Y-43074419D01*
X57530507Y-42550609D02*
X57482888Y-42455371D01*
X57482888Y-42455371D02*
X57387650Y-42407752D01*
X57387650Y-42407752D02*
X57244793Y-42407752D01*
X57244793Y-42407752D02*
X57149554Y-42455371D01*
X57149554Y-42455371D02*
X57101935Y-42550609D01*
X57101935Y-42550609D02*
X57101935Y-43074419D01*
X56625745Y-43074419D02*
X56625745Y-42074419D01*
X56625745Y-42455371D02*
X56530507Y-42407752D01*
X56530507Y-42407752D02*
X56340031Y-42407752D01*
X56340031Y-42407752D02*
X56244793Y-42455371D01*
X56244793Y-42455371D02*
X56197174Y-42502990D01*
X56197174Y-42502990D02*
X56149555Y-42598228D01*
X56149555Y-42598228D02*
X56149555Y-42883942D01*
X56149555Y-42883942D02*
X56197174Y-42979180D01*
X56197174Y-42979180D02*
X56244793Y-43026800D01*
X56244793Y-43026800D02*
X56340031Y-43074419D01*
X56340031Y-43074419D02*
X56530507Y-43074419D01*
X56530507Y-43074419D02*
X56625745Y-43026800D01*
X55340031Y-43026800D02*
X55435269Y-43074419D01*
X55435269Y-43074419D02*
X55625745Y-43074419D01*
X55625745Y-43074419D02*
X55720983Y-43026800D01*
X55720983Y-43026800D02*
X55768602Y-42931561D01*
X55768602Y-42931561D02*
X55768602Y-42550609D01*
X55768602Y-42550609D02*
X55720983Y-42455371D01*
X55720983Y-42455371D02*
X55625745Y-42407752D01*
X55625745Y-42407752D02*
X55435269Y-42407752D01*
X55435269Y-42407752D02*
X55340031Y-42455371D01*
X55340031Y-42455371D02*
X55292412Y-42550609D01*
X55292412Y-42550609D02*
X55292412Y-42645847D01*
X55292412Y-42645847D02*
X55768602Y-42741085D01*
X54863840Y-43074419D02*
X54863840Y-42407752D01*
X54863840Y-42598228D02*
X54816221Y-42502990D01*
X54816221Y-42502990D02*
X54768602Y-42455371D01*
X54768602Y-42455371D02*
X54673364Y-42407752D01*
X54673364Y-42407752D02*
X54578126Y-42407752D01*
X54292411Y-43026800D02*
X54197173Y-43074419D01*
X54197173Y-43074419D02*
X54006697Y-43074419D01*
X54006697Y-43074419D02*
X53911459Y-43026800D01*
X53911459Y-43026800D02*
X53863840Y-42931561D01*
X53863840Y-42931561D02*
X53863840Y-42883942D01*
X53863840Y-42883942D02*
X53911459Y-42788704D01*
X53911459Y-42788704D02*
X54006697Y-42741085D01*
X54006697Y-42741085D02*
X54149554Y-42741085D01*
X54149554Y-42741085D02*
X54244792Y-42693466D01*
X54244792Y-42693466D02*
X54292411Y-42598228D01*
X54292411Y-42598228D02*
X54292411Y-42550609D01*
X54292411Y-42550609D02*
X54244792Y-42455371D01*
X54244792Y-42455371D02*
X54149554Y-42407752D01*
X54149554Y-42407752D02*
X54006697Y-42407752D01*
X54006697Y-42407752D02*
X53911459Y-42455371D01*
X53435268Y-42979180D02*
X53387649Y-43026800D01*
X53387649Y-43026800D02*
X53435268Y-43074419D01*
X53435268Y-43074419D02*
X53482887Y-43026800D01*
X53482887Y-43026800D02*
X53435268Y-42979180D01*
X53435268Y-42979180D02*
X53435268Y-43074419D01*
X53435268Y-42455371D02*
X53387649Y-42502990D01*
X53387649Y-42502990D02*
X53435268Y-42550609D01*
X53435268Y-42550609D02*
X53482887Y-42502990D01*
X53482887Y-42502990D02*
X53435268Y-42455371D01*
X53435268Y-42455371D02*
X53435268Y-42550609D01*
X64292412Y-43684419D02*
X64292412Y-44398704D01*
X64292412Y-44398704D02*
X64340031Y-44541561D01*
X64340031Y-44541561D02*
X64435269Y-44636800D01*
X64435269Y-44636800D02*
X64578126Y-44684419D01*
X64578126Y-44684419D02*
X64673364Y-44684419D01*
X63673364Y-44684419D02*
X63768602Y-44636800D01*
X63768602Y-44636800D02*
X63816221Y-44589180D01*
X63816221Y-44589180D02*
X63863840Y-44493942D01*
X63863840Y-44493942D02*
X63863840Y-44208228D01*
X63863840Y-44208228D02*
X63816221Y-44112990D01*
X63816221Y-44112990D02*
X63768602Y-44065371D01*
X63768602Y-44065371D02*
X63673364Y-44017752D01*
X63673364Y-44017752D02*
X63530507Y-44017752D01*
X63530507Y-44017752D02*
X63435269Y-44065371D01*
X63435269Y-44065371D02*
X63387650Y-44112990D01*
X63387650Y-44112990D02*
X63340031Y-44208228D01*
X63340031Y-44208228D02*
X63340031Y-44493942D01*
X63340031Y-44493942D02*
X63387650Y-44589180D01*
X63387650Y-44589180D02*
X63435269Y-44636800D01*
X63435269Y-44636800D02*
X63530507Y-44684419D01*
X63530507Y-44684419D02*
X63673364Y-44684419D01*
X62959078Y-44636800D02*
X62863840Y-44684419D01*
X62863840Y-44684419D02*
X62673364Y-44684419D01*
X62673364Y-44684419D02*
X62578126Y-44636800D01*
X62578126Y-44636800D02*
X62530507Y-44541561D01*
X62530507Y-44541561D02*
X62530507Y-44493942D01*
X62530507Y-44493942D02*
X62578126Y-44398704D01*
X62578126Y-44398704D02*
X62673364Y-44351085D01*
X62673364Y-44351085D02*
X62816221Y-44351085D01*
X62816221Y-44351085D02*
X62911459Y-44303466D01*
X62911459Y-44303466D02*
X62959078Y-44208228D01*
X62959078Y-44208228D02*
X62959078Y-44160609D01*
X62959078Y-44160609D02*
X62911459Y-44065371D01*
X62911459Y-44065371D02*
X62816221Y-44017752D01*
X62816221Y-44017752D02*
X62673364Y-44017752D01*
X62673364Y-44017752D02*
X62578126Y-44065371D01*
X62101935Y-44684419D02*
X62101935Y-43684419D01*
X61673364Y-44684419D02*
X61673364Y-44160609D01*
X61673364Y-44160609D02*
X61720983Y-44065371D01*
X61720983Y-44065371D02*
X61816221Y-44017752D01*
X61816221Y-44017752D02*
X61959078Y-44017752D01*
X61959078Y-44017752D02*
X62054316Y-44065371D01*
X62054316Y-44065371D02*
X62101935Y-44112990D01*
X60768602Y-44017752D02*
X60768602Y-44684419D01*
X61197173Y-44017752D02*
X61197173Y-44541561D01*
X61197173Y-44541561D02*
X61149554Y-44636800D01*
X61149554Y-44636800D02*
X61054316Y-44684419D01*
X61054316Y-44684419D02*
X60911459Y-44684419D01*
X60911459Y-44684419D02*
X60816221Y-44636800D01*
X60816221Y-44636800D02*
X60768602Y-44589180D01*
X59863840Y-44684419D02*
X59863840Y-44160609D01*
X59863840Y-44160609D02*
X59911459Y-44065371D01*
X59911459Y-44065371D02*
X60006697Y-44017752D01*
X60006697Y-44017752D02*
X60197173Y-44017752D01*
X60197173Y-44017752D02*
X60292411Y-44065371D01*
X59863840Y-44636800D02*
X59959078Y-44684419D01*
X59959078Y-44684419D02*
X60197173Y-44684419D01*
X60197173Y-44684419D02*
X60292411Y-44636800D01*
X60292411Y-44636800D02*
X60340030Y-44541561D01*
X60340030Y-44541561D02*
X60340030Y-44446323D01*
X60340030Y-44446323D02*
X60292411Y-44351085D01*
X60292411Y-44351085D02*
X60197173Y-44303466D01*
X60197173Y-44303466D02*
X59959078Y-44303466D01*
X59959078Y-44303466D02*
X59863840Y-44255847D01*
X58625744Y-44684419D02*
X58625744Y-43684419D01*
X58625744Y-43684419D02*
X58387649Y-43684419D01*
X58387649Y-43684419D02*
X58244792Y-43732038D01*
X58244792Y-43732038D02*
X58149554Y-43827276D01*
X58149554Y-43827276D02*
X58101935Y-43922514D01*
X58101935Y-43922514D02*
X58054316Y-44112990D01*
X58054316Y-44112990D02*
X58054316Y-44255847D01*
X58054316Y-44255847D02*
X58101935Y-44446323D01*
X58101935Y-44446323D02*
X58149554Y-44541561D01*
X58149554Y-44541561D02*
X58244792Y-44636800D01*
X58244792Y-44636800D02*
X58387649Y-44684419D01*
X58387649Y-44684419D02*
X58625744Y-44684419D01*
X57720982Y-44017752D02*
X57530506Y-44684419D01*
X57530506Y-44684419D02*
X57340030Y-44208228D01*
X57340030Y-44208228D02*
X57149554Y-44684419D01*
X57149554Y-44684419D02*
X56959078Y-44017752D01*
X56435268Y-44684419D02*
X56530506Y-44636800D01*
X56530506Y-44636800D02*
X56578125Y-44589180D01*
X56578125Y-44589180D02*
X56625744Y-44493942D01*
X56625744Y-44493942D02*
X56625744Y-44208228D01*
X56625744Y-44208228D02*
X56578125Y-44112990D01*
X56578125Y-44112990D02*
X56530506Y-44065371D01*
X56530506Y-44065371D02*
X56435268Y-44017752D01*
X56435268Y-44017752D02*
X56292411Y-44017752D01*
X56292411Y-44017752D02*
X56197173Y-44065371D01*
X56197173Y-44065371D02*
X56149554Y-44112990D01*
X56149554Y-44112990D02*
X56101935Y-44208228D01*
X56101935Y-44208228D02*
X56101935Y-44493942D01*
X56101935Y-44493942D02*
X56149554Y-44589180D01*
X56149554Y-44589180D02*
X56197173Y-44636800D01*
X56197173Y-44636800D02*
X56292411Y-44684419D01*
X56292411Y-44684419D02*
X56435268Y-44684419D01*
X55673363Y-44684419D02*
X55673363Y-44017752D01*
X55673363Y-44208228D02*
X55625744Y-44112990D01*
X55625744Y-44112990D02*
X55578125Y-44065371D01*
X55578125Y-44065371D02*
X55482887Y-44017752D01*
X55482887Y-44017752D02*
X55387649Y-44017752D01*
X55054315Y-44017752D02*
X55054315Y-44684419D01*
X55054315Y-44112990D02*
X55006696Y-44065371D01*
X55006696Y-44065371D02*
X54911458Y-44017752D01*
X54911458Y-44017752D02*
X54768601Y-44017752D01*
X54768601Y-44017752D02*
X54673363Y-44065371D01*
X54673363Y-44065371D02*
X54625744Y-44160609D01*
X54625744Y-44160609D02*
X54625744Y-44684419D01*
X54149553Y-44684419D02*
X54149553Y-44017752D01*
X54149553Y-43684419D02*
X54197172Y-43732038D01*
X54197172Y-43732038D02*
X54149553Y-43779657D01*
X54149553Y-43779657D02*
X54101934Y-43732038D01*
X54101934Y-43732038D02*
X54149553Y-43684419D01*
X54149553Y-43684419D02*
X54149553Y-43779657D01*
X53673363Y-44017752D02*
X53673363Y-44684419D01*
X53673363Y-44112990D02*
X53625744Y-44065371D01*
X53625744Y-44065371D02*
X53530506Y-44017752D01*
X53530506Y-44017752D02*
X53387649Y-44017752D01*
X53387649Y-44017752D02*
X53292411Y-44065371D01*
X53292411Y-44065371D02*
X53244792Y-44160609D01*
X53244792Y-44160609D02*
X53244792Y-44684419D01*
X52340030Y-44017752D02*
X52340030Y-44827276D01*
X52340030Y-44827276D02*
X52387649Y-44922514D01*
X52387649Y-44922514D02*
X52435268Y-44970133D01*
X52435268Y-44970133D02*
X52530506Y-45017752D01*
X52530506Y-45017752D02*
X52673363Y-45017752D01*
X52673363Y-45017752D02*
X52768601Y-44970133D01*
X52340030Y-44636800D02*
X52435268Y-44684419D01*
X52435268Y-44684419D02*
X52625744Y-44684419D01*
X52625744Y-44684419D02*
X52720982Y-44636800D01*
X52720982Y-44636800D02*
X52768601Y-44589180D01*
X52768601Y-44589180D02*
X52816220Y-44493942D01*
X52816220Y-44493942D02*
X52816220Y-44208228D01*
X52816220Y-44208228D02*
X52768601Y-44112990D01*
X52768601Y-44112990D02*
X52720982Y-44065371D01*
X52720982Y-44065371D02*
X52625744Y-44017752D01*
X52625744Y-44017752D02*
X52435268Y-44017752D01*
X52435268Y-44017752D02*
X52340030Y-44065371D01*
X64006698Y-46199180D02*
X64054317Y-46246800D01*
X64054317Y-46246800D02*
X64197174Y-46294419D01*
X64197174Y-46294419D02*
X64292412Y-46294419D01*
X64292412Y-46294419D02*
X64435269Y-46246800D01*
X64435269Y-46246800D02*
X64530507Y-46151561D01*
X64530507Y-46151561D02*
X64578126Y-46056323D01*
X64578126Y-46056323D02*
X64625745Y-45865847D01*
X64625745Y-45865847D02*
X64625745Y-45722990D01*
X64625745Y-45722990D02*
X64578126Y-45532514D01*
X64578126Y-45532514D02*
X64530507Y-45437276D01*
X64530507Y-45437276D02*
X64435269Y-45342038D01*
X64435269Y-45342038D02*
X64292412Y-45294419D01*
X64292412Y-45294419D02*
X64197174Y-45294419D01*
X64197174Y-45294419D02*
X64054317Y-45342038D01*
X64054317Y-45342038D02*
X64006698Y-45389657D01*
X63149555Y-46294419D02*
X63149555Y-45770609D01*
X63149555Y-45770609D02*
X63197174Y-45675371D01*
X63197174Y-45675371D02*
X63292412Y-45627752D01*
X63292412Y-45627752D02*
X63482888Y-45627752D01*
X63482888Y-45627752D02*
X63578126Y-45675371D01*
X63149555Y-46246800D02*
X63244793Y-46294419D01*
X63244793Y-46294419D02*
X63482888Y-46294419D01*
X63482888Y-46294419D02*
X63578126Y-46246800D01*
X63578126Y-46246800D02*
X63625745Y-46151561D01*
X63625745Y-46151561D02*
X63625745Y-46056323D01*
X63625745Y-46056323D02*
X63578126Y-45961085D01*
X63578126Y-45961085D02*
X63482888Y-45913466D01*
X63482888Y-45913466D02*
X63244793Y-45913466D01*
X63244793Y-45913466D02*
X63149555Y-45865847D01*
X62720983Y-46246800D02*
X62625745Y-46294419D01*
X62625745Y-46294419D02*
X62435269Y-46294419D01*
X62435269Y-46294419D02*
X62340031Y-46246800D01*
X62340031Y-46246800D02*
X62292412Y-46151561D01*
X62292412Y-46151561D02*
X62292412Y-46103942D01*
X62292412Y-46103942D02*
X62340031Y-46008704D01*
X62340031Y-46008704D02*
X62435269Y-45961085D01*
X62435269Y-45961085D02*
X62578126Y-45961085D01*
X62578126Y-45961085D02*
X62673364Y-45913466D01*
X62673364Y-45913466D02*
X62720983Y-45818228D01*
X62720983Y-45818228D02*
X62720983Y-45770609D01*
X62720983Y-45770609D02*
X62673364Y-45675371D01*
X62673364Y-45675371D02*
X62578126Y-45627752D01*
X62578126Y-45627752D02*
X62435269Y-45627752D01*
X62435269Y-45627752D02*
X62340031Y-45675371D01*
X61482888Y-46246800D02*
X61578126Y-46294419D01*
X61578126Y-46294419D02*
X61768602Y-46294419D01*
X61768602Y-46294419D02*
X61863840Y-46246800D01*
X61863840Y-46246800D02*
X61911459Y-46151561D01*
X61911459Y-46151561D02*
X61911459Y-45770609D01*
X61911459Y-45770609D02*
X61863840Y-45675371D01*
X61863840Y-45675371D02*
X61768602Y-45627752D01*
X61768602Y-45627752D02*
X61578126Y-45627752D01*
X61578126Y-45627752D02*
X61482888Y-45675371D01*
X61482888Y-45675371D02*
X61435269Y-45770609D01*
X61435269Y-45770609D02*
X61435269Y-45865847D01*
X61435269Y-45865847D02*
X61911459Y-45961085D01*
X61101935Y-45627752D02*
X60863840Y-46294419D01*
X60625745Y-45627752D02*
X60863840Y-46294419D01*
X60863840Y-46294419D02*
X60959078Y-46532514D01*
X60959078Y-46532514D02*
X61006697Y-46580133D01*
X61006697Y-46580133D02*
X61101935Y-46627752D01*
X59482887Y-46294419D02*
X59482887Y-45294419D01*
X59482887Y-45294419D02*
X59149554Y-46008704D01*
X59149554Y-46008704D02*
X58816221Y-45294419D01*
X58816221Y-45294419D02*
X58816221Y-46294419D01*
X57911459Y-46246800D02*
X58006697Y-46294419D01*
X58006697Y-46294419D02*
X58197173Y-46294419D01*
X58197173Y-46294419D02*
X58292411Y-46246800D01*
X58292411Y-46246800D02*
X58340030Y-46199180D01*
X58340030Y-46199180D02*
X58387649Y-46103942D01*
X58387649Y-46103942D02*
X58387649Y-45818228D01*
X58387649Y-45818228D02*
X58340030Y-45722990D01*
X58340030Y-45722990D02*
X58292411Y-45675371D01*
X58292411Y-45675371D02*
X58197173Y-45627752D01*
X58197173Y-45627752D02*
X58006697Y-45627752D01*
X58006697Y-45627752D02*
X57911459Y-45675371D01*
X56959078Y-45342038D02*
X57054316Y-45294419D01*
X57054316Y-45294419D02*
X57197173Y-45294419D01*
X57197173Y-45294419D02*
X57340030Y-45342038D01*
X57340030Y-45342038D02*
X57435268Y-45437276D01*
X57435268Y-45437276D02*
X57482887Y-45532514D01*
X57482887Y-45532514D02*
X57530506Y-45722990D01*
X57530506Y-45722990D02*
X57530506Y-45865847D01*
X57530506Y-45865847D02*
X57482887Y-46056323D01*
X57482887Y-46056323D02*
X57435268Y-46151561D01*
X57435268Y-46151561D02*
X57340030Y-46246800D01*
X57340030Y-46246800D02*
X57197173Y-46294419D01*
X57197173Y-46294419D02*
X57101935Y-46294419D01*
X57101935Y-46294419D02*
X56959078Y-46246800D01*
X56959078Y-46246800D02*
X56911459Y-46199180D01*
X56911459Y-46199180D02*
X56911459Y-45865847D01*
X56911459Y-45865847D02*
X57101935Y-45865847D01*
X56054316Y-45627752D02*
X56054316Y-46294419D01*
X56482887Y-45627752D02*
X56482887Y-46151561D01*
X56482887Y-46151561D02*
X56435268Y-46246800D01*
X56435268Y-46246800D02*
X56340030Y-46294419D01*
X56340030Y-46294419D02*
X56197173Y-46294419D01*
X56197173Y-46294419D02*
X56101935Y-46246800D01*
X56101935Y-46246800D02*
X56054316Y-46199180D01*
X55578125Y-46294419D02*
X55578125Y-45627752D01*
X55578125Y-45294419D02*
X55625744Y-45342038D01*
X55625744Y-45342038D02*
X55578125Y-45389657D01*
X55578125Y-45389657D02*
X55530506Y-45342038D01*
X55530506Y-45342038D02*
X55578125Y-45294419D01*
X55578125Y-45294419D02*
X55578125Y-45389657D01*
X55101935Y-46294419D02*
X55101935Y-45627752D01*
X55101935Y-45818228D02*
X55054316Y-45722990D01*
X55054316Y-45722990D02*
X55006697Y-45675371D01*
X55006697Y-45675371D02*
X54911459Y-45627752D01*
X54911459Y-45627752D02*
X54816221Y-45627752D01*
X54101935Y-46246800D02*
X54197173Y-46294419D01*
X54197173Y-46294419D02*
X54387649Y-46294419D01*
X54387649Y-46294419D02*
X54482887Y-46246800D01*
X54482887Y-46246800D02*
X54530506Y-46151561D01*
X54530506Y-46151561D02*
X54530506Y-45770609D01*
X54530506Y-45770609D02*
X54482887Y-45675371D01*
X54482887Y-45675371D02*
X54387649Y-45627752D01*
X54387649Y-45627752D02*
X54197173Y-45627752D01*
X54197173Y-45627752D02*
X54101935Y-45675371D01*
X54101935Y-45675371D02*
X54054316Y-45770609D01*
X54054316Y-45770609D02*
X54054316Y-45865847D01*
X54054316Y-45865847D02*
X54530506Y-45961085D01*
X64578126Y-47904419D02*
X64578126Y-46904419D01*
X64578126Y-46904419D02*
X64244793Y-47618704D01*
X64244793Y-47618704D02*
X63911460Y-46904419D01*
X63911460Y-46904419D02*
X63911460Y-47904419D01*
X63292412Y-47904419D02*
X63387650Y-47856800D01*
X63387650Y-47856800D02*
X63435269Y-47809180D01*
X63435269Y-47809180D02*
X63482888Y-47713942D01*
X63482888Y-47713942D02*
X63482888Y-47428228D01*
X63482888Y-47428228D02*
X63435269Y-47332990D01*
X63435269Y-47332990D02*
X63387650Y-47285371D01*
X63387650Y-47285371D02*
X63292412Y-47237752D01*
X63292412Y-47237752D02*
X63149555Y-47237752D01*
X63149555Y-47237752D02*
X63054317Y-47285371D01*
X63054317Y-47285371D02*
X63006698Y-47332990D01*
X63006698Y-47332990D02*
X62959079Y-47428228D01*
X62959079Y-47428228D02*
X62959079Y-47713942D01*
X62959079Y-47713942D02*
X63006698Y-47809180D01*
X63006698Y-47809180D02*
X63054317Y-47856800D01*
X63054317Y-47856800D02*
X63149555Y-47904419D01*
X63149555Y-47904419D02*
X63292412Y-47904419D01*
X62578126Y-47856800D02*
X62482888Y-47904419D01*
X62482888Y-47904419D02*
X62292412Y-47904419D01*
X62292412Y-47904419D02*
X62197174Y-47856800D01*
X62197174Y-47856800D02*
X62149555Y-47761561D01*
X62149555Y-47761561D02*
X62149555Y-47713942D01*
X62149555Y-47713942D02*
X62197174Y-47618704D01*
X62197174Y-47618704D02*
X62292412Y-47571085D01*
X62292412Y-47571085D02*
X62435269Y-47571085D01*
X62435269Y-47571085D02*
X62530507Y-47523466D01*
X62530507Y-47523466D02*
X62578126Y-47428228D01*
X62578126Y-47428228D02*
X62578126Y-47380609D01*
X62578126Y-47380609D02*
X62530507Y-47285371D01*
X62530507Y-47285371D02*
X62435269Y-47237752D01*
X62435269Y-47237752D02*
X62292412Y-47237752D01*
X62292412Y-47237752D02*
X62197174Y-47285371D01*
X61720983Y-47904419D02*
X61720983Y-47237752D01*
X61720983Y-46904419D02*
X61768602Y-46952038D01*
X61768602Y-46952038D02*
X61720983Y-46999657D01*
X61720983Y-46999657D02*
X61673364Y-46952038D01*
X61673364Y-46952038D02*
X61720983Y-46904419D01*
X61720983Y-46904419D02*
X61720983Y-46999657D01*
X60816222Y-47904419D02*
X60816222Y-47380609D01*
X60816222Y-47380609D02*
X60863841Y-47285371D01*
X60863841Y-47285371D02*
X60959079Y-47237752D01*
X60959079Y-47237752D02*
X61149555Y-47237752D01*
X61149555Y-47237752D02*
X61244793Y-47285371D01*
X60816222Y-47856800D02*
X60911460Y-47904419D01*
X60911460Y-47904419D02*
X61149555Y-47904419D01*
X61149555Y-47904419D02*
X61244793Y-47856800D01*
X61244793Y-47856800D02*
X61292412Y-47761561D01*
X61292412Y-47761561D02*
X61292412Y-47666323D01*
X61292412Y-47666323D02*
X61244793Y-47571085D01*
X61244793Y-47571085D02*
X61149555Y-47523466D01*
X61149555Y-47523466D02*
X60911460Y-47523466D01*
X60911460Y-47523466D02*
X60816222Y-47475847D01*
X60340031Y-47904419D02*
X60340031Y-46904419D01*
X59911460Y-47904419D02*
X59911460Y-47380609D01*
X59911460Y-47380609D02*
X59959079Y-47285371D01*
X59959079Y-47285371D02*
X60054317Y-47237752D01*
X60054317Y-47237752D02*
X60197174Y-47237752D01*
X60197174Y-47237752D02*
X60292412Y-47285371D01*
X60292412Y-47285371D02*
X60340031Y-47332990D01*
X58340031Y-47380609D02*
X58197174Y-47428228D01*
X58197174Y-47428228D02*
X58149555Y-47475847D01*
X58149555Y-47475847D02*
X58101936Y-47571085D01*
X58101936Y-47571085D02*
X58101936Y-47713942D01*
X58101936Y-47713942D02*
X58149555Y-47809180D01*
X58149555Y-47809180D02*
X58197174Y-47856800D01*
X58197174Y-47856800D02*
X58292412Y-47904419D01*
X58292412Y-47904419D02*
X58673364Y-47904419D01*
X58673364Y-47904419D02*
X58673364Y-46904419D01*
X58673364Y-46904419D02*
X58340031Y-46904419D01*
X58340031Y-46904419D02*
X58244793Y-46952038D01*
X58244793Y-46952038D02*
X58197174Y-46999657D01*
X58197174Y-46999657D02*
X58149555Y-47094895D01*
X58149555Y-47094895D02*
X58149555Y-47190133D01*
X58149555Y-47190133D02*
X58197174Y-47285371D01*
X58197174Y-47285371D02*
X58244793Y-47332990D01*
X58244793Y-47332990D02*
X58340031Y-47380609D01*
X58340031Y-47380609D02*
X58673364Y-47380609D01*
X57292412Y-47856800D02*
X57387650Y-47904419D01*
X57387650Y-47904419D02*
X57578126Y-47904419D01*
X57578126Y-47904419D02*
X57673364Y-47856800D01*
X57673364Y-47856800D02*
X57720983Y-47761561D01*
X57720983Y-47761561D02*
X57720983Y-47380609D01*
X57720983Y-47380609D02*
X57673364Y-47285371D01*
X57673364Y-47285371D02*
X57578126Y-47237752D01*
X57578126Y-47237752D02*
X57387650Y-47237752D01*
X57387650Y-47237752D02*
X57292412Y-47285371D01*
X57292412Y-47285371D02*
X57244793Y-47380609D01*
X57244793Y-47380609D02*
X57244793Y-47475847D01*
X57244793Y-47475847D02*
X57720983Y-47571085D01*
X56387650Y-47904419D02*
X56387650Y-47380609D01*
X56387650Y-47380609D02*
X56435269Y-47285371D01*
X56435269Y-47285371D02*
X56530507Y-47237752D01*
X56530507Y-47237752D02*
X56720983Y-47237752D01*
X56720983Y-47237752D02*
X56816221Y-47285371D01*
X56387650Y-47856800D02*
X56482888Y-47904419D01*
X56482888Y-47904419D02*
X56720983Y-47904419D01*
X56720983Y-47904419D02*
X56816221Y-47856800D01*
X56816221Y-47856800D02*
X56863840Y-47761561D01*
X56863840Y-47761561D02*
X56863840Y-47666323D01*
X56863840Y-47666323D02*
X56816221Y-47571085D01*
X56816221Y-47571085D02*
X56720983Y-47523466D01*
X56720983Y-47523466D02*
X56482888Y-47523466D01*
X56482888Y-47523466D02*
X56387650Y-47475847D01*
X55768602Y-47904419D02*
X55863840Y-47856800D01*
X55863840Y-47856800D02*
X55911459Y-47761561D01*
X55911459Y-47761561D02*
X55911459Y-46904419D01*
X64292412Y-48514419D02*
X64292412Y-49228704D01*
X64292412Y-49228704D02*
X64340031Y-49371561D01*
X64340031Y-49371561D02*
X64435269Y-49466800D01*
X64435269Y-49466800D02*
X64578126Y-49514419D01*
X64578126Y-49514419D02*
X64673364Y-49514419D01*
X63673364Y-49514419D02*
X63768602Y-49466800D01*
X63768602Y-49466800D02*
X63816221Y-49419180D01*
X63816221Y-49419180D02*
X63863840Y-49323942D01*
X63863840Y-49323942D02*
X63863840Y-49038228D01*
X63863840Y-49038228D02*
X63816221Y-48942990D01*
X63816221Y-48942990D02*
X63768602Y-48895371D01*
X63768602Y-48895371D02*
X63673364Y-48847752D01*
X63673364Y-48847752D02*
X63530507Y-48847752D01*
X63530507Y-48847752D02*
X63435269Y-48895371D01*
X63435269Y-48895371D02*
X63387650Y-48942990D01*
X63387650Y-48942990D02*
X63340031Y-49038228D01*
X63340031Y-49038228D02*
X63340031Y-49323942D01*
X63340031Y-49323942D02*
X63387650Y-49419180D01*
X63387650Y-49419180D02*
X63435269Y-49466800D01*
X63435269Y-49466800D02*
X63530507Y-49514419D01*
X63530507Y-49514419D02*
X63673364Y-49514419D01*
X62530507Y-49466800D02*
X62625745Y-49514419D01*
X62625745Y-49514419D02*
X62816221Y-49514419D01*
X62816221Y-49514419D02*
X62911459Y-49466800D01*
X62911459Y-49466800D02*
X62959078Y-49371561D01*
X62959078Y-49371561D02*
X62959078Y-48990609D01*
X62959078Y-48990609D02*
X62911459Y-48895371D01*
X62911459Y-48895371D02*
X62816221Y-48847752D01*
X62816221Y-48847752D02*
X62625745Y-48847752D01*
X62625745Y-48847752D02*
X62530507Y-48895371D01*
X62530507Y-48895371D02*
X62482888Y-48990609D01*
X62482888Y-48990609D02*
X62482888Y-49085847D01*
X62482888Y-49085847D02*
X62959078Y-49181085D01*
X61911459Y-49514419D02*
X62006697Y-49466800D01*
X62006697Y-49466800D02*
X62054316Y-49371561D01*
X62054316Y-49371561D02*
X62054316Y-48514419D01*
X60768601Y-48514419D02*
X60768601Y-49323942D01*
X60768601Y-49323942D02*
X60720982Y-49419180D01*
X60720982Y-49419180D02*
X60673363Y-49466800D01*
X60673363Y-49466800D02*
X60578125Y-49514419D01*
X60578125Y-49514419D02*
X60387649Y-49514419D01*
X60387649Y-49514419D02*
X60292411Y-49466800D01*
X60292411Y-49466800D02*
X60244792Y-49419180D01*
X60244792Y-49419180D02*
X60197173Y-49323942D01*
X60197173Y-49323942D02*
X60197173Y-48514419D01*
X59863839Y-48847752D02*
X59482887Y-48847752D01*
X59720982Y-48514419D02*
X59720982Y-49371561D01*
X59720982Y-49371561D02*
X59673363Y-49466800D01*
X59673363Y-49466800D02*
X59578125Y-49514419D01*
X59578125Y-49514419D02*
X59482887Y-49514419D01*
X58768601Y-49466800D02*
X58863839Y-49514419D01*
X58863839Y-49514419D02*
X59054315Y-49514419D01*
X59054315Y-49514419D02*
X59149553Y-49466800D01*
X59149553Y-49466800D02*
X59197172Y-49371561D01*
X59197172Y-49371561D02*
X59197172Y-48990609D01*
X59197172Y-48990609D02*
X59149553Y-48895371D01*
X59149553Y-48895371D02*
X59054315Y-48847752D01*
X59054315Y-48847752D02*
X58863839Y-48847752D01*
X58863839Y-48847752D02*
X58768601Y-48895371D01*
X58768601Y-48895371D02*
X58720982Y-48990609D01*
X58720982Y-48990609D02*
X58720982Y-49085847D01*
X58720982Y-49085847D02*
X59197172Y-49181085D01*
X57863839Y-49466800D02*
X57959077Y-49514419D01*
X57959077Y-49514419D02*
X58149553Y-49514419D01*
X58149553Y-49514419D02*
X58244791Y-49466800D01*
X58244791Y-49466800D02*
X58292410Y-49419180D01*
X58292410Y-49419180D02*
X58340029Y-49323942D01*
X58340029Y-49323942D02*
X58340029Y-49038228D01*
X58340029Y-49038228D02*
X58292410Y-48942990D01*
X58292410Y-48942990D02*
X58244791Y-48895371D01*
X58244791Y-48895371D02*
X58149553Y-48847752D01*
X58149553Y-48847752D02*
X57959077Y-48847752D01*
X57959077Y-48847752D02*
X57863839Y-48895371D01*
X57435267Y-49514419D02*
X57435267Y-48514419D01*
X57006696Y-49514419D02*
X57006696Y-48990609D01*
X57006696Y-48990609D02*
X57054315Y-48895371D01*
X57054315Y-48895371D02*
X57149553Y-48847752D01*
X57149553Y-48847752D02*
X57292410Y-48847752D01*
X57292410Y-48847752D02*
X57387648Y-48895371D01*
X57387648Y-48895371D02*
X57435267Y-48942990D01*
X56673362Y-48847752D02*
X56292410Y-48847752D01*
X56530505Y-48514419D02*
X56530505Y-49371561D01*
X56530505Y-49371561D02*
X56482886Y-49466800D01*
X56482886Y-49466800D02*
X56387648Y-49514419D01*
X56387648Y-49514419D02*
X56292410Y-49514419D01*
X64625745Y-50838704D02*
X64149555Y-50838704D01*
X64720983Y-51124419D02*
X64387650Y-50124419D01*
X64387650Y-50124419D02*
X64054317Y-51124419D01*
X63720983Y-50457752D02*
X63720983Y-51124419D01*
X63720983Y-50552990D02*
X63673364Y-50505371D01*
X63673364Y-50505371D02*
X63578126Y-50457752D01*
X63578126Y-50457752D02*
X63435269Y-50457752D01*
X63435269Y-50457752D02*
X63340031Y-50505371D01*
X63340031Y-50505371D02*
X63292412Y-50600609D01*
X63292412Y-50600609D02*
X63292412Y-51124419D01*
X62387650Y-51124419D02*
X62387650Y-50124419D01*
X62387650Y-51076800D02*
X62482888Y-51124419D01*
X62482888Y-51124419D02*
X62673364Y-51124419D01*
X62673364Y-51124419D02*
X62768602Y-51076800D01*
X62768602Y-51076800D02*
X62816221Y-51029180D01*
X62816221Y-51029180D02*
X62863840Y-50933942D01*
X62863840Y-50933942D02*
X62863840Y-50648228D01*
X62863840Y-50648228D02*
X62816221Y-50552990D01*
X62816221Y-50552990D02*
X62768602Y-50505371D01*
X62768602Y-50505371D02*
X62673364Y-50457752D01*
X62673364Y-50457752D02*
X62482888Y-50457752D01*
X62482888Y-50457752D02*
X62387650Y-50505371D01*
X62006697Y-50457752D02*
X61768602Y-51124419D01*
X61530507Y-50457752D02*
X61768602Y-51124419D01*
X61768602Y-51124419D02*
X61863840Y-51362514D01*
X61863840Y-51362514D02*
X61911459Y-51410133D01*
X61911459Y-51410133D02*
X62006697Y-51457752D01*
X60387649Y-51124419D02*
X60387649Y-50124419D01*
X60387649Y-50124419D02*
X59816221Y-51124419D01*
X59816221Y-51124419D02*
X59816221Y-50124419D01*
X58911459Y-50457752D02*
X58911459Y-51267276D01*
X58911459Y-51267276D02*
X58959078Y-51362514D01*
X58959078Y-51362514D02*
X59006697Y-51410133D01*
X59006697Y-51410133D02*
X59101935Y-51457752D01*
X59101935Y-51457752D02*
X59244792Y-51457752D01*
X59244792Y-51457752D02*
X59340030Y-51410133D01*
X58911459Y-51076800D02*
X59006697Y-51124419D01*
X59006697Y-51124419D02*
X59197173Y-51124419D01*
X59197173Y-51124419D02*
X59292411Y-51076800D01*
X59292411Y-51076800D02*
X59340030Y-51029180D01*
X59340030Y-51029180D02*
X59387649Y-50933942D01*
X59387649Y-50933942D02*
X59387649Y-50648228D01*
X59387649Y-50648228D02*
X59340030Y-50552990D01*
X59340030Y-50552990D02*
X59292411Y-50505371D01*
X59292411Y-50505371D02*
X59197173Y-50457752D01*
X59197173Y-50457752D02*
X59006697Y-50457752D01*
X59006697Y-50457752D02*
X58911459Y-50505371D01*
X58006697Y-50457752D02*
X58006697Y-51124419D01*
X58435268Y-50457752D02*
X58435268Y-50981561D01*
X58435268Y-50981561D02*
X58387649Y-51076800D01*
X58387649Y-51076800D02*
X58292411Y-51124419D01*
X58292411Y-51124419D02*
X58149554Y-51124419D01*
X58149554Y-51124419D02*
X58054316Y-51076800D01*
X58054316Y-51076800D02*
X58006697Y-51029180D01*
X57625744Y-50457752D02*
X57387649Y-51124419D01*
X57149554Y-50457752D02*
X57387649Y-51124419D01*
X57387649Y-51124419D02*
X57482887Y-51362514D01*
X57482887Y-51362514D02*
X57530506Y-51410133D01*
X57530506Y-51410133D02*
X57625744Y-51457752D01*
X56387649Y-51076800D02*
X56482887Y-51124419D01*
X56482887Y-51124419D02*
X56673363Y-51124419D01*
X56673363Y-51124419D02*
X56768601Y-51076800D01*
X56768601Y-51076800D02*
X56816220Y-50981561D01*
X56816220Y-50981561D02*
X56816220Y-50600609D01*
X56816220Y-50600609D02*
X56768601Y-50505371D01*
X56768601Y-50505371D02*
X56673363Y-50457752D01*
X56673363Y-50457752D02*
X56482887Y-50457752D01*
X56482887Y-50457752D02*
X56387649Y-50505371D01*
X56387649Y-50505371D02*
X56340030Y-50600609D01*
X56340030Y-50600609D02*
X56340030Y-50695847D01*
X56340030Y-50695847D02*
X56816220Y-50791085D01*
X55911458Y-50457752D02*
X55911458Y-51124419D01*
X55911458Y-50552990D02*
X55863839Y-50505371D01*
X55863839Y-50505371D02*
X55768601Y-50457752D01*
X55768601Y-50457752D02*
X55625744Y-50457752D01*
X55625744Y-50457752D02*
X55530506Y-50505371D01*
X55530506Y-50505371D02*
X55482887Y-50600609D01*
X55482887Y-50600609D02*
X55482887Y-51124419D01*
%LPC*%
D11*
%TO.C,DS1*%
X80010000Y-61766900D03*
D12*
X82550000Y-61766900D03*
X85090000Y-61766900D03*
X87630000Y-61766900D03*
X90170000Y-61766900D03*
X92710000Y-61766900D03*
X95250000Y-61766900D03*
X97790000Y-61766900D03*
X100330000Y-61766900D03*
X102870000Y-61766900D03*
X105410000Y-61766900D03*
X107950000Y-61766900D03*
X110490000Y-61766900D03*
X113030000Y-61766900D03*
X115570000Y-61766900D03*
X118110000Y-61766900D03*
X118110000Y-41446900D03*
X115570000Y-41446900D03*
X113030000Y-41446900D03*
X110490000Y-41446900D03*
X107950000Y-41446900D03*
X105410000Y-41446900D03*
X102870000Y-41446900D03*
X100330000Y-41446900D03*
X97790000Y-41446900D03*
X95250000Y-41446900D03*
X92710000Y-41446900D03*
X90170000Y-41446900D03*
%TD*%
D13*
%TO.C,U5*%
X205892400Y-95554800D03*
D14*
X205892400Y-96824800D03*
X205892400Y-98094800D03*
X205892400Y-99364800D03*
X205892400Y-100634800D03*
%TD*%
D15*
%TO.C,D3*%
X153822400Y-62788800D03*
D16*
X152552400Y-62788800D03*
X151282400Y-62788800D03*
X150012400Y-62788800D03*
%TD*%
D17*
%TO.C,TP6*%
X148463000Y-111302800D03*
%TD*%
%TO.C,TP1*%
X62306200Y-67513200D03*
%TD*%
D12*
%TO.C,J1*%
X31729800Y-60528200D03*
D18*
X40729800Y-60528200D03*
D19*
X34729800Y-60528200D03*
D20*
X33729800Y-56028200D03*
X33729800Y-65028200D03*
%TD*%
D17*
%TO.C,TP8*%
X71374000Y-129667000D03*
%TD*%
D21*
%TO.C,U3*%
X84549600Y-139649200D03*
D22*
X87049600Y-139649200D03*
X89549600Y-139649200D03*
X92049600Y-139649200D03*
%TD*%
D17*
%TO.C,TP7*%
X96774000Y-132562600D03*
%TD*%
D11*
%TO.C,U1*%
X181838600Y-85121300D03*
D12*
X179298600Y-85121300D03*
X176758600Y-85121300D03*
X174218600Y-85121300D03*
X171678600Y-85121300D03*
X169138600Y-85121300D03*
X166598600Y-85121300D03*
X164058600Y-85121300D03*
X161518600Y-85121300D03*
X158978600Y-85121300D03*
X156438600Y-85121300D03*
X153898600Y-85121300D03*
X151358600Y-85121300D03*
X148818600Y-85121300D03*
X146278600Y-85121300D03*
X143738600Y-85121300D03*
X143738600Y-105441300D03*
X146278600Y-105441300D03*
X148818600Y-105441300D03*
X151358600Y-105441300D03*
X153898600Y-105441300D03*
X156438600Y-105441300D03*
X158978600Y-105441300D03*
X161518600Y-105441300D03*
X164058600Y-105441300D03*
X166598600Y-105441300D03*
X169138600Y-105441300D03*
X171678600Y-105441300D03*
%TD*%
D23*
%TO.C,U2*%
X63093600Y-140258800D03*
D24*
X65633600Y-140258800D03*
X68173600Y-140258800D03*
X70713600Y-140258800D03*
%TD*%
D17*
%TO.C,SW1*%
X74575600Y-99705600D03*
X81075600Y-99705600D03*
X74575600Y-104205600D03*
X81075600Y-104205600D03*
%TD*%
D25*
%TO.C,D2*%
X153009600Y-41859200D03*
D26*
X150469600Y-41859200D03*
%TD*%
D17*
%TO.C,TP12*%
X74828400Y-71323200D03*
%TD*%
%TO.C,TP11*%
X194183000Y-100634800D03*
%TD*%
%TO.C,TP9*%
X170865800Y-109448600D03*
%TD*%
%TO.C,TP3*%
X62230000Y-72872600D03*
%TD*%
D27*
%TO.C,U6*%
X55219600Y-77216000D03*
D28*
X52679600Y-77216000D03*
X50139600Y-77216000D03*
%TD*%
D17*
%TO.C,TP4*%
X120675400Y-119532400D03*
%TD*%
%TO.C,TP10*%
X64719200Y-107975400D03*
%TD*%
%TO.C,TP5*%
X134874000Y-111277400D03*
%TD*%
D29*
%TO.C,SW2*%
X166583200Y-127044800D03*
D30*
X161503200Y-127044800D03*
%TD*%
D31*
%TO.C,BZ1*%
X199206800Y-77368400D03*
D32*
X199206800Y-74828400D03*
%TD*%
D17*
%TO.C,TP2*%
X62357000Y-77952600D03*
%TD*%
D25*
%TO.C,D1*%
X151841200Y-53497400D03*
D26*
X151841200Y-50957400D03*
%TD*%
D33*
%TO.C,U4*%
X110796800Y-117500400D03*
X110796800Y-114960400D03*
X110796800Y-112420400D03*
X110796800Y-109880400D03*
X110796800Y-107340400D03*
X110796800Y-104800400D03*
X110796800Y-102260400D03*
X110796800Y-99720400D03*
X110796800Y-97180400D03*
X110796800Y-94640400D03*
X110796800Y-92100400D03*
X110796800Y-89560400D03*
X110796800Y-87020400D03*
X98096800Y-87020400D03*
X98096800Y-89560400D03*
X98096800Y-92100400D03*
X98096800Y-94640400D03*
X98096800Y-97180400D03*
X98096800Y-99720400D03*
X98096800Y-102260400D03*
X98096800Y-104800400D03*
X98096800Y-107340400D03*
X98096800Y-109880400D03*
X98096800Y-112420400D03*
X98096800Y-114960400D03*
X98096800Y-117500400D03*
%TD*%
%LPD*%
M02*
