M48
; DRILL file {KiCad 7.0.8} date Thu Nov 30 23:22:59 2023
; FORMAT={-:-/ absolute / metric / decimal}
; #@! TF.CreationDate,2023-11-30T23:22:59-08:00
; #@! TF.GenerationSoftware,Kicad,Pcbnew,7.0.8
; #@! TF.FileFunction,Plated,1,2,PTH
FMAT,2
METRIC
; #@! TA.AperFunction,Plated,PTH,ComponentDrill
T1C0.800
; #@! TA.AperFunction,Plated,PTH,ComponentDrill
T2C0.900
; #@! TA.AperFunction,Plated,PTH,ComponentDrill
T3C0.950
; #@! TA.AperFunction,Plated,PTH,ComponentDrill
T4C1.000
; #@! TA.AperFunction,Plated,PTH,ComponentDrill
T5C1.020
; #@! TA.AperFunction,Plated,PTH,ComponentDrill
T6C1.100
; #@! TA.AperFunction,Plated,PTH,ComponentDrill
T7C1.190
; #@! TA.AperFunction,Plated,PTH,ViaDrill
T8C1.600
; #@! TA.AperFunction,Plated,PTH,ComponentDrill
T9C1.600
%
G90
G05
T1
X63.094Y-140.259
X65.634Y-140.259
X68.174Y-140.259
X70.714Y-140.259
X80.01Y-61.767
X82.55Y-61.767
X85.09Y-61.767
X87.63Y-61.767
X90.17Y-41.447
X90.17Y-61.767
X92.71Y-41.447
X92.71Y-61.767
X95.25Y-41.447
X95.25Y-61.767
X97.79Y-41.447
X97.79Y-61.767
X100.33Y-41.447
X100.33Y-61.767
X102.87Y-41.447
X102.87Y-61.767
X105.41Y-41.447
X105.41Y-61.767
X107.95Y-41.447
X107.95Y-61.767
X110.49Y-41.447
X110.49Y-61.767
X113.03Y-41.447
X113.03Y-61.767
X115.57Y-41.447
X115.57Y-61.767
X118.11Y-41.447
X118.11Y-61.767
X143.739Y-85.121
X143.739Y-105.441
X146.279Y-85.121
X146.279Y-105.441
X148.819Y-85.121
X148.819Y-105.441
X151.359Y-85.121
X151.359Y-105.441
X153.899Y-85.121
X153.899Y-105.441
X156.439Y-85.121
X156.439Y-105.441
X158.979Y-85.121
X158.979Y-105.441
X161.519Y-85.121
X161.519Y-105.441
X164.059Y-85.121
X164.059Y-105.441
X166.599Y-85.121
X166.599Y-105.441
X169.139Y-85.121
X169.139Y-105.441
X171.679Y-85.121
X171.679Y-105.441
X174.219Y-85.121
X176.759Y-85.121
X179.299Y-85.121
X181.839Y-85.121
X205.918Y-94.564
X205.918Y-96.814
X205.918Y-99.064
X205.918Y-101.314
X205.918Y-103.564
T2
X150.47Y-41.859
X150.66Y-62.1
X151.841Y-50.957
X151.841Y-53.497
X151.93Y-62.1
X153.01Y-41.859
X153.2Y-62.1
X154.47Y-62.1
T3
X84.55Y-139.649
X87.05Y-139.649
X89.55Y-139.649
X92.05Y-139.649
T4
X62.23Y-72.873
X62.306Y-67.513
X62.357Y-77.953
X64.719Y-107.975
X71.374Y-129.667
X74.828Y-71.323
X96.774Y-132.563
X124.593Y-119.483
X134.874Y-111.277
X148.463Y-111.303
X170.866Y-109.449
X194.183Y-100.635
T5
X161.503Y-127.045
X166.583Y-127.045
T6
X50.14Y-77.216
X52.68Y-77.216
X55.22Y-77.216
T7
X199.207Y-74.828
X199.207Y-77.368
T8
X46.8Y-60.4
X50.1Y-70.5
X52.6Y-84.2
X63.1Y-133.0
X67.6Y-132.6
X68.58Y-124.46
X69.723Y-95.936
X77.7Y-108.0
X82.6Y-64.4
X84.6Y-134.0
X91.4Y-133.6
X96.7Y-129.515
X101.6Y-102.3
X108.3Y-103.2
X114.0Y-117.6
X114.3Y-102.3
X114.4Y-107.3
X116.8Y-44.8
X120.2Y-45.1
X139.0Y-105.5
X143.7Y-81.2
X145.2Y-41.9
X145.4Y-109.0
X147.7Y-77.7
X147.8Y-65.0
X152.2Y-77.9
X152.4Y-66.6
X155.2Y-66.6
X156.4Y-51.0
X156.4Y-127.0
X157.0Y-77.7
X161.5Y-77.5
X165.3Y-77.4
X165.7Y-102.2
X166.5Y-123.7
X180.5Y-90.0
X180.5Y-92.9
X180.5Y-95.8
X180.5Y-98.8
X199.2Y-81.3
T9
X74.576Y-99.706
X74.576Y-104.206
X81.076Y-99.706
X81.076Y-104.206
X98.097Y-87.02
X98.097Y-89.56
X98.097Y-92.1
X98.097Y-94.64
X98.097Y-97.18
X98.097Y-99.72
X98.097Y-102.26
X98.097Y-104.8
X98.097Y-107.34
X98.097Y-109.88
X98.097Y-112.42
X98.097Y-114.96
X98.097Y-117.5
X110.797Y-87.02
X110.797Y-89.56
X110.797Y-92.1
X110.797Y-94.64
X110.797Y-97.18
X110.797Y-99.72
X110.797Y-102.26
X110.797Y-104.8
X110.797Y-107.34
X110.797Y-109.88
X110.797Y-112.42
X110.797Y-114.96
X110.797Y-117.5
T4
G00X34.48Y-56.028
M15
G01X32.98Y-56.028
M16
G05
G00X34.48Y-65.028
M15
G01X32.98Y-65.028
M16
G05
G00X34.73Y-59.878
M15
G01X34.73Y-61.178
M16
G05
G00X40.73Y-59.528
M15
G01X40.73Y-61.528
M16
G05
T0
M30
