M48
; DRILL file {KiCad 7.0.8} date Tue Nov 14 21:55:07 2023
; FORMAT={-:-/ absolute / metric / decimal}
; #@! TF.CreationDate,2023-11-14T21:55:07-08:00
; #@! TF.GenerationSoftware,Kicad,Pcbnew,7.0.8
; #@! TF.FileFunction,Plated,1,2,PTH
FMAT,2
METRIC
; #@! TA.AperFunction,Plated,PTH,ViaDrill
T1C0.400
; #@! TA.AperFunction,Plated,PTH,ComponentDrill
T2C0.700
; #@! TA.AperFunction,Plated,PTH,ComponentDrill
T3C0.762
; #@! TA.AperFunction,Plated,PTH,ComponentDrill
T4C0.800
; #@! TA.AperFunction,Plated,PTH,ComponentDrill
T5C0.900
; #@! TA.AperFunction,Plated,PTH,ComponentDrill
T6C0.950
; #@! TA.AperFunction,Plated,PTH,ComponentDrill
T7C1.000
; #@! TA.AperFunction,Plated,PTH,ComponentDrill
T8C1.020
; #@! TA.AperFunction,Plated,PTH,ComponentDrill
T9C1.100
; #@! TA.AperFunction,Plated,PTH,ComponentDrill
T10C1.190
%
G90
G05
T1
X52.222Y-125.044
X68.58Y-124.46
X69.723Y-95.936
X84.531Y-127.0
X94.336Y-129.515
X114.859Y-127.0
X154.508Y-127.0
X199.212Y-81.204
X200.127Y-105.334
T2
X205.892Y-95.555
X205.892Y-96.825
X205.892Y-98.095
X205.892Y-99.365
X205.892Y-100.635
T3
X98.097Y-87.02
X98.097Y-89.56
X98.097Y-92.1
X98.097Y-94.64
X98.097Y-97.18
X98.097Y-99.72
X98.097Y-102.26
X98.097Y-104.8
X98.097Y-107.34
X98.097Y-109.88
X98.097Y-112.42
X98.097Y-114.96
X98.097Y-117.5
X110.797Y-87.02
X110.797Y-89.56
X110.797Y-92.1
X110.797Y-94.64
X110.797Y-97.18
X110.797Y-99.72
X110.797Y-102.26
X110.797Y-104.8
X110.797Y-107.34
X110.797Y-109.88
X110.797Y-112.42
X110.797Y-114.96
X110.797Y-117.5
T4
X63.094Y-140.259
X65.634Y-140.259
X68.174Y-140.259
X70.714Y-140.259
X80.01Y-61.767
X82.55Y-61.767
X85.09Y-61.767
X87.63Y-61.767
X90.17Y-41.447
X90.17Y-61.767
X92.71Y-41.447
X92.71Y-61.767
X95.25Y-41.447
X95.25Y-61.767
X97.79Y-41.447
X97.79Y-61.767
X100.33Y-41.447
X100.33Y-61.767
X102.87Y-41.447
X102.87Y-61.767
X105.41Y-41.447
X105.41Y-61.767
X107.95Y-41.447
X107.95Y-61.767
X110.49Y-41.447
X110.49Y-61.767
X113.03Y-41.447
X113.03Y-61.767
X115.57Y-41.447
X115.57Y-61.767
X118.11Y-41.447
X118.11Y-61.767
X143.739Y-85.121
X143.739Y-105.441
X146.279Y-85.121
X146.279Y-105.441
X148.819Y-85.121
X148.819Y-105.441
X151.359Y-85.121
X151.359Y-105.441
X153.899Y-85.121
X153.899Y-105.441
X156.439Y-85.121
X156.439Y-105.441
X158.979Y-85.121
X158.979Y-105.441
X161.519Y-85.121
X161.519Y-105.441
X164.059Y-85.121
X164.059Y-105.441
X166.599Y-85.121
X166.599Y-105.441
X169.139Y-85.121
X169.139Y-105.441
X171.679Y-85.121
X171.679Y-105.441
X174.219Y-85.121
X176.759Y-85.121
X179.299Y-85.121
X181.839Y-85.121
T5
X150.012Y-62.789
X150.47Y-41.859
X151.282Y-62.789
X151.841Y-50.957
X151.841Y-53.497
X152.552Y-62.789
X153.01Y-41.859
X153.822Y-62.789
T6
X84.55Y-139.649
X87.05Y-139.649
X89.55Y-139.649
X92.05Y-139.649
T7
X62.23Y-72.873
X62.306Y-67.513
X62.357Y-77.953
X64.719Y-107.975
X71.374Y-129.667
X74.828Y-71.323
X96.774Y-132.563
X120.675Y-119.532
X134.874Y-111.277
X148.463Y-111.303
X170.866Y-109.449
X194.183Y-100.635
T8
X161.503Y-127.045
X166.583Y-127.045
T9
X50.14Y-77.216
X52.68Y-77.216
X55.22Y-77.216
X74.576Y-99.706
X74.576Y-104.206
X81.076Y-99.706
X81.076Y-104.206
T10
X199.207Y-74.828
X199.207Y-77.368
T7
G00X34.48Y-56.028
M15
G01X32.98Y-56.028
M16
G05
G00X34.48Y-65.028
M15
G01X32.98Y-65.028
M16
G05
G00X34.73Y-59.878
M15
G01X34.73Y-61.178
M16
G05
G00X40.73Y-59.528
M15
G01X40.73Y-61.528
M16
G05
T0
M30
