%TF.GenerationSoftware,KiCad,Pcbnew,7.0.8*%
%TF.CreationDate,2023-11-14T21:54:52-08:00*%
%TF.ProjectId,window_weather_monitor,77696e64-6f77-45f7-9765-61746865725f,4*%
%TF.SameCoordinates,Original*%
%TF.FileFunction,Legend,Top*%
%TF.FilePolarity,Positive*%
%FSLAX46Y46*%
G04 Gerber Fmt 4.6, Leading zero omitted, Abs format (unit mm)*
G04 Created by KiCad (PCBNEW 7.0.8) date 2023-11-14 21:54:52*
%MOMM*%
%LPD*%
G01*
G04 APERTURE LIST*
G04 Aperture macros list*
%AMRoundRect*
0 Rectangle with rounded corners*
0 $1 Rounding radius*
0 $2 $3 $4 $5 $6 $7 $8 $9 X,Y pos of 4 corners*
0 Add a 4 corners polygon primitive as box body*
4,1,4,$2,$3,$4,$5,$6,$7,$8,$9,$2,$3,0*
0 Add four circle primitives for the rounded corners*
1,1,$1+$1,$2,$3*
1,1,$1+$1,$4,$5*
1,1,$1+$1,$6,$7*
1,1,$1+$1,$8,$9*
0 Add four rect primitives between the rounded corners*
20,1,$1+$1,$2,$3,$4,$5,0*
20,1,$1+$1,$4,$5,$6,$7,0*
20,1,$1+$1,$6,$7,$8,$9,0*
20,1,$1+$1,$8,$9,$2,$3,0*%
G04 Aperture macros list end*
%ADD10C,0.200000*%
%ADD11C,0.300000*%
%ADD12C,0.150000*%
%ADD13C,0.375000*%
%ADD14C,1.000000*%
%ADD15C,0.100000*%
%ADD16C,0.120000*%
%ADD17RoundRect,0.237500X-0.250000X-0.237500X0.250000X-0.237500X0.250000X0.237500X-0.250000X0.237500X0*%
%ADD18RoundRect,0.237500X-0.237500X0.250000X-0.237500X-0.250000X0.237500X-0.250000X0.237500X0.250000X0*%
%ADD19RoundRect,0.237500X0.237500X-0.250000X0.237500X0.250000X-0.237500X0.250000X-0.237500X-0.250000X0*%
%ADD20R,1.600000X1.600000*%
%ADD21C,1.600000*%
%ADD22RoundRect,0.255000X-0.255000X-1.145000X0.255000X-1.145000X0.255000X1.145000X-0.255000X1.145000X0*%
%ADD23R,1.000000X1.000000*%
%ADD24O,1.000000X1.000000*%
%ADD25R,1.070000X1.800000*%
%ADD26O,1.070000X1.800000*%
%ADD27C,2.000000*%
%ADD28R,2.000000X4.000000*%
%ADD29O,2.000000X3.300000*%
%ADD30O,3.500000X2.000000*%
%ADD31RoundRect,0.225000X-0.225000X-0.250000X0.225000X-0.250000X0.225000X0.250000X-0.225000X0.250000X0*%
%ADD32RoundRect,0.237500X0.344715X-0.008839X-0.008839X0.344715X-0.344715X0.008839X0.008839X-0.344715X0*%
%ADD33RoundRect,0.250000X-0.600000X-0.725000X0.600000X-0.725000X0.600000X0.725000X-0.600000X0.725000X0*%
%ADD34O,1.700000X1.950000*%
%ADD35RoundRect,0.250000X-0.325000X-1.100000X0.325000X-1.100000X0.325000X1.100000X-0.325000X1.100000X0*%
%ADD36R,1.500000X1.500000*%
%ADD37C,1.500000*%
%ADD38RoundRect,0.237500X0.250000X0.237500X-0.250000X0.237500X-0.250000X-0.237500X0.250000X-0.237500X0*%
%ADD39R,1.800000X1.800000*%
%ADD40C,1.800000*%
%ADD41RoundRect,0.250000X-1.050000X-0.550000X1.050000X-0.550000X1.050000X0.550000X-1.050000X0.550000X0*%
%ADD42R,1.905000X2.000000*%
%ADD43O,1.905000X2.000000*%
%ADD44RoundRect,0.237500X-0.008839X-0.344715X0.344715X0.008839X0.008839X0.344715X-0.344715X-0.008839X0*%
%ADD45R,1.730000X2.030000*%
%ADD46O,1.730000X2.030000*%
%ADD47RoundRect,0.250000X0.845000X-0.620000X0.845000X0.620000X-0.845000X0.620000X-0.845000X-0.620000X0*%
%ADD48O,2.190000X1.740000*%
%ADD49RoundRect,0.225000X-0.225000X-0.375000X0.225000X-0.375000X0.225000X0.375000X-0.225000X0.375000X0*%
%ADD50C,1.524000*%
%ADD51RoundRect,0.250000X1.412500X0.550000X-1.412500X0.550000X-1.412500X-0.550000X1.412500X-0.550000X0*%
%ADD52RoundRect,0.225000X0.250000X-0.225000X0.250000X0.225000X-0.250000X0.225000X-0.250000X-0.225000X0*%
G04 APERTURE END LIST*
D10*
X178109282Y-49016219D02*
X177537854Y-49016219D01*
X177823568Y-49016219D02*
X177823568Y-48016219D01*
X177823568Y-48016219D02*
X177728330Y-48159076D01*
X177728330Y-48159076D02*
X177633092Y-48254314D01*
X177633092Y-48254314D02*
X177537854Y-48301933D01*
X179061663Y-49016219D02*
X178490235Y-49016219D01*
X178775949Y-49016219D02*
X178775949Y-48016219D01*
X178775949Y-48016219D02*
X178680711Y-48159076D01*
X178680711Y-48159076D02*
X178585473Y-48254314D01*
X178585473Y-48254314D02*
X178490235Y-48301933D01*
X180204520Y-47968600D02*
X179347378Y-49254314D01*
X181061663Y-49016219D02*
X180490235Y-49016219D01*
X180775949Y-49016219D02*
X180775949Y-48016219D01*
X180775949Y-48016219D02*
X180680711Y-48159076D01*
X180680711Y-48159076D02*
X180585473Y-48254314D01*
X180585473Y-48254314D02*
X180490235Y-48301933D01*
X181918806Y-48349552D02*
X181918806Y-49016219D01*
X181680711Y-47968600D02*
X181442616Y-48682885D01*
X181442616Y-48682885D02*
X182061663Y-48682885D01*
X183156901Y-47968600D02*
X182299759Y-49254314D01*
X183442616Y-48111457D02*
X183490235Y-48063838D01*
X183490235Y-48063838D02*
X183585473Y-48016219D01*
X183585473Y-48016219D02*
X183823568Y-48016219D01*
X183823568Y-48016219D02*
X183918806Y-48063838D01*
X183918806Y-48063838D02*
X183966425Y-48111457D01*
X183966425Y-48111457D02*
X184014044Y-48206695D01*
X184014044Y-48206695D02*
X184014044Y-48301933D01*
X184014044Y-48301933D02*
X183966425Y-48444790D01*
X183966425Y-48444790D02*
X183394997Y-49016219D01*
X183394997Y-49016219D02*
X184014044Y-49016219D01*
X184633092Y-48016219D02*
X184728330Y-48016219D01*
X184728330Y-48016219D02*
X184823568Y-48063838D01*
X184823568Y-48063838D02*
X184871187Y-48111457D01*
X184871187Y-48111457D02*
X184918806Y-48206695D01*
X184918806Y-48206695D02*
X184966425Y-48397171D01*
X184966425Y-48397171D02*
X184966425Y-48635266D01*
X184966425Y-48635266D02*
X184918806Y-48825742D01*
X184918806Y-48825742D02*
X184871187Y-48920980D01*
X184871187Y-48920980D02*
X184823568Y-48968600D01*
X184823568Y-48968600D02*
X184728330Y-49016219D01*
X184728330Y-49016219D02*
X184633092Y-49016219D01*
X184633092Y-49016219D02*
X184537854Y-48968600D01*
X184537854Y-48968600D02*
X184490235Y-48920980D01*
X184490235Y-48920980D02*
X184442616Y-48825742D01*
X184442616Y-48825742D02*
X184394997Y-48635266D01*
X184394997Y-48635266D02*
X184394997Y-48397171D01*
X184394997Y-48397171D02*
X184442616Y-48206695D01*
X184442616Y-48206695D02*
X184490235Y-48111457D01*
X184490235Y-48111457D02*
X184537854Y-48063838D01*
X184537854Y-48063838D02*
X184633092Y-48016219D01*
X185347378Y-48111457D02*
X185394997Y-48063838D01*
X185394997Y-48063838D02*
X185490235Y-48016219D01*
X185490235Y-48016219D02*
X185728330Y-48016219D01*
X185728330Y-48016219D02*
X185823568Y-48063838D01*
X185823568Y-48063838D02*
X185871187Y-48111457D01*
X185871187Y-48111457D02*
X185918806Y-48206695D01*
X185918806Y-48206695D02*
X185918806Y-48301933D01*
X185918806Y-48301933D02*
X185871187Y-48444790D01*
X185871187Y-48444790D02*
X185299759Y-49016219D01*
X185299759Y-49016219D02*
X185918806Y-49016219D01*
X186252140Y-48016219D02*
X186871187Y-48016219D01*
X186871187Y-48016219D02*
X186537854Y-48397171D01*
X186537854Y-48397171D02*
X186680711Y-48397171D01*
X186680711Y-48397171D02*
X186775949Y-48444790D01*
X186775949Y-48444790D02*
X186823568Y-48492409D01*
X186823568Y-48492409D02*
X186871187Y-48587647D01*
X186871187Y-48587647D02*
X186871187Y-48825742D01*
X186871187Y-48825742D02*
X186823568Y-48920980D01*
X186823568Y-48920980D02*
X186775949Y-48968600D01*
X186775949Y-48968600D02*
X186680711Y-49016219D01*
X186680711Y-49016219D02*
X186394997Y-49016219D01*
X186394997Y-49016219D02*
X186299759Y-48968600D01*
X186299759Y-48968600D02*
X186252140Y-48920980D01*
D11*
X178303710Y-145368228D02*
X178303710Y-144368228D01*
X178303710Y-144653942D02*
X178375139Y-144511085D01*
X178375139Y-144511085D02*
X178446568Y-144439657D01*
X178446568Y-144439657D02*
X178589425Y-144368228D01*
X178589425Y-144368228D02*
X178732282Y-144368228D01*
X179803710Y-145296800D02*
X179660853Y-145368228D01*
X179660853Y-145368228D02*
X179375139Y-145368228D01*
X179375139Y-145368228D02*
X179232281Y-145296800D01*
X179232281Y-145296800D02*
X179160853Y-145153942D01*
X179160853Y-145153942D02*
X179160853Y-144582514D01*
X179160853Y-144582514D02*
X179232281Y-144439657D01*
X179232281Y-144439657D02*
X179375139Y-144368228D01*
X179375139Y-144368228D02*
X179660853Y-144368228D01*
X179660853Y-144368228D02*
X179803710Y-144439657D01*
X179803710Y-144439657D02*
X179875139Y-144582514D01*
X179875139Y-144582514D02*
X179875139Y-144725371D01*
X179875139Y-144725371D02*
X179160853Y-144868228D01*
X180375138Y-144368228D02*
X180732281Y-145368228D01*
X180732281Y-145368228D02*
X181089424Y-144368228D01*
X181303710Y-145511085D02*
X182446567Y-145511085D01*
X183517995Y-143868228D02*
X182803709Y-143868228D01*
X182803709Y-143868228D02*
X182732281Y-144582514D01*
X182732281Y-144582514D02*
X182803709Y-144511085D01*
X182803709Y-144511085D02*
X182946567Y-144439657D01*
X182946567Y-144439657D02*
X183303709Y-144439657D01*
X183303709Y-144439657D02*
X183446567Y-144511085D01*
X183446567Y-144511085D02*
X183517995Y-144582514D01*
X183517995Y-144582514D02*
X183589424Y-144725371D01*
X183589424Y-144725371D02*
X183589424Y-145082514D01*
X183589424Y-145082514D02*
X183517995Y-145225371D01*
X183517995Y-145225371D02*
X183446567Y-145296800D01*
X183446567Y-145296800D02*
X183303709Y-145368228D01*
X183303709Y-145368228D02*
X182946567Y-145368228D01*
X182946567Y-145368228D02*
X182803709Y-145296800D01*
X182803709Y-145296800D02*
X182732281Y-145225371D01*
D12*
X46000000Y-140000000D02*
G75*
G03*
X46000000Y-140000000I-6000000J0D01*
G01*
X206000000Y-40000000D02*
G75*
G03*
X206000000Y-40000000I-6000000J0D01*
G01*
X206000000Y-140000000D02*
G75*
G03*
X206000000Y-140000000I-6000000J0D01*
G01*
X46000000Y-40000000D02*
G75*
G03*
X46000000Y-40000000I-6000000J0D01*
G01*
D11*
X103279028Y-118455574D02*
X103279028Y-117598432D01*
X104779028Y-118027003D02*
X103279028Y-118027003D01*
X104636171Y-116241289D02*
X104707600Y-116312717D01*
X104707600Y-116312717D02*
X104779028Y-116527003D01*
X104779028Y-116527003D02*
X104779028Y-116669860D01*
X104779028Y-116669860D02*
X104707600Y-116884146D01*
X104707600Y-116884146D02*
X104564742Y-117027003D01*
X104564742Y-117027003D02*
X104421885Y-117098432D01*
X104421885Y-117098432D02*
X104136171Y-117169860D01*
X104136171Y-117169860D02*
X103921885Y-117169860D01*
X103921885Y-117169860D02*
X103636171Y-117098432D01*
X103636171Y-117098432D02*
X103493314Y-117027003D01*
X103493314Y-117027003D02*
X103350457Y-116884146D01*
X103350457Y-116884146D02*
X103279028Y-116669860D01*
X103279028Y-116669860D02*
X103279028Y-116527003D01*
X103279028Y-116527003D02*
X103350457Y-116312717D01*
X103350457Y-116312717D02*
X103421885Y-116241289D01*
X104350457Y-115669860D02*
X104350457Y-114955575D01*
X104779028Y-115812717D02*
X103279028Y-115312717D01*
X103279028Y-115312717D02*
X104779028Y-114812717D01*
X103921885Y-114098432D02*
X103850457Y-114241289D01*
X103850457Y-114241289D02*
X103779028Y-114312718D01*
X103779028Y-114312718D02*
X103636171Y-114384146D01*
X103636171Y-114384146D02*
X103564742Y-114384146D01*
X103564742Y-114384146D02*
X103421885Y-114312718D01*
X103421885Y-114312718D02*
X103350457Y-114241289D01*
X103350457Y-114241289D02*
X103279028Y-114098432D01*
X103279028Y-114098432D02*
X103279028Y-113812718D01*
X103279028Y-113812718D02*
X103350457Y-113669861D01*
X103350457Y-113669861D02*
X103421885Y-113598432D01*
X103421885Y-113598432D02*
X103564742Y-113527003D01*
X103564742Y-113527003D02*
X103636171Y-113527003D01*
X103636171Y-113527003D02*
X103779028Y-113598432D01*
X103779028Y-113598432D02*
X103850457Y-113669861D01*
X103850457Y-113669861D02*
X103921885Y-113812718D01*
X103921885Y-113812718D02*
X103921885Y-114098432D01*
X103921885Y-114098432D02*
X103993314Y-114241289D01*
X103993314Y-114241289D02*
X104064742Y-114312718D01*
X104064742Y-114312718D02*
X104207600Y-114384146D01*
X104207600Y-114384146D02*
X104493314Y-114384146D01*
X104493314Y-114384146D02*
X104636171Y-114312718D01*
X104636171Y-114312718D02*
X104707600Y-114241289D01*
X104707600Y-114241289D02*
X104779028Y-114098432D01*
X104779028Y-114098432D02*
X104779028Y-113812718D01*
X104779028Y-113812718D02*
X104707600Y-113669861D01*
X104707600Y-113669861D02*
X104636171Y-113598432D01*
X104636171Y-113598432D02*
X104493314Y-113527003D01*
X104493314Y-113527003D02*
X104207600Y-113527003D01*
X104207600Y-113527003D02*
X104064742Y-113598432D01*
X104064742Y-113598432D02*
X103993314Y-113669861D01*
X103993314Y-113669861D02*
X103921885Y-113812718D01*
X103779028Y-112241290D02*
X104779028Y-112241290D01*
X103207600Y-112598432D02*
X104279028Y-112955575D01*
X104279028Y-112955575D02*
X104279028Y-112027004D01*
X104779028Y-110669861D02*
X104779028Y-111527004D01*
X104779028Y-111098433D02*
X103279028Y-111098433D01*
X103279028Y-111098433D02*
X103493314Y-111241290D01*
X103493314Y-111241290D02*
X103636171Y-111384147D01*
X103636171Y-111384147D02*
X103707600Y-111527004D01*
X103921885Y-109812719D02*
X103850457Y-109955576D01*
X103850457Y-109955576D02*
X103779028Y-110027005D01*
X103779028Y-110027005D02*
X103636171Y-110098433D01*
X103636171Y-110098433D02*
X103564742Y-110098433D01*
X103564742Y-110098433D02*
X103421885Y-110027005D01*
X103421885Y-110027005D02*
X103350457Y-109955576D01*
X103350457Y-109955576D02*
X103279028Y-109812719D01*
X103279028Y-109812719D02*
X103279028Y-109527005D01*
X103279028Y-109527005D02*
X103350457Y-109384148D01*
X103350457Y-109384148D02*
X103421885Y-109312719D01*
X103421885Y-109312719D02*
X103564742Y-109241290D01*
X103564742Y-109241290D02*
X103636171Y-109241290D01*
X103636171Y-109241290D02*
X103779028Y-109312719D01*
X103779028Y-109312719D02*
X103850457Y-109384148D01*
X103850457Y-109384148D02*
X103921885Y-109527005D01*
X103921885Y-109527005D02*
X103921885Y-109812719D01*
X103921885Y-109812719D02*
X103993314Y-109955576D01*
X103993314Y-109955576D02*
X104064742Y-110027005D01*
X104064742Y-110027005D02*
X104207600Y-110098433D01*
X104207600Y-110098433D02*
X104493314Y-110098433D01*
X104493314Y-110098433D02*
X104636171Y-110027005D01*
X104636171Y-110027005D02*
X104707600Y-109955576D01*
X104707600Y-109955576D02*
X104779028Y-109812719D01*
X104779028Y-109812719D02*
X104779028Y-109527005D01*
X104779028Y-109527005D02*
X104707600Y-109384148D01*
X104707600Y-109384148D02*
X104636171Y-109312719D01*
X104636171Y-109312719D02*
X104493314Y-109241290D01*
X104493314Y-109241290D02*
X104207600Y-109241290D01*
X104207600Y-109241290D02*
X104064742Y-109312719D01*
X104064742Y-109312719D02*
X103993314Y-109384148D01*
X103993314Y-109384148D02*
X103921885Y-109527005D01*
X104779028Y-107455577D02*
X103279028Y-107455577D01*
X104779028Y-106598434D02*
X103921885Y-107241291D01*
X103279028Y-106598434D02*
X104136171Y-107455577D01*
X103993314Y-105955577D02*
X103993314Y-105455577D01*
X104779028Y-105241291D02*
X104779028Y-105955577D01*
X104779028Y-105955577D02*
X103279028Y-105955577D01*
X103279028Y-105955577D02*
X103279028Y-105241291D01*
X104064742Y-104312719D02*
X104779028Y-104312719D01*
X103279028Y-104812719D02*
X104064742Y-104312719D01*
X104064742Y-104312719D02*
X103279028Y-103812719D01*
X104779028Y-103312720D02*
X103279028Y-103312720D01*
X103279028Y-103312720D02*
X103279028Y-102741291D01*
X103279028Y-102741291D02*
X103350457Y-102598434D01*
X103350457Y-102598434D02*
X103421885Y-102527005D01*
X103421885Y-102527005D02*
X103564742Y-102455577D01*
X103564742Y-102455577D02*
X103779028Y-102455577D01*
X103779028Y-102455577D02*
X103921885Y-102527005D01*
X103921885Y-102527005D02*
X103993314Y-102598434D01*
X103993314Y-102598434D02*
X104064742Y-102741291D01*
X104064742Y-102741291D02*
X104064742Y-103312720D01*
X104350457Y-101884148D02*
X104350457Y-101169863D01*
X104779028Y-102027005D02*
X103279028Y-101527005D01*
X103279028Y-101527005D02*
X104779028Y-101027005D01*
X104779028Y-100527006D02*
X103279028Y-100527006D01*
X103279028Y-100527006D02*
X103279028Y-100169863D01*
X103279028Y-100169863D02*
X103350457Y-99955577D01*
X103350457Y-99955577D02*
X103493314Y-99812720D01*
X103493314Y-99812720D02*
X103636171Y-99741291D01*
X103636171Y-99741291D02*
X103921885Y-99669863D01*
X103921885Y-99669863D02*
X104136171Y-99669863D01*
X104136171Y-99669863D02*
X104421885Y-99741291D01*
X104421885Y-99741291D02*
X104564742Y-99812720D01*
X104564742Y-99812720D02*
X104707600Y-99955577D01*
X104707600Y-99955577D02*
X104779028Y-100169863D01*
X104779028Y-100169863D02*
X104779028Y-100527006D01*
X103993314Y-97384149D02*
X104064742Y-97169863D01*
X104064742Y-97169863D02*
X104136171Y-97098434D01*
X104136171Y-97098434D02*
X104279028Y-97027006D01*
X104279028Y-97027006D02*
X104493314Y-97027006D01*
X104493314Y-97027006D02*
X104636171Y-97098434D01*
X104636171Y-97098434D02*
X104707600Y-97169863D01*
X104707600Y-97169863D02*
X104779028Y-97312720D01*
X104779028Y-97312720D02*
X104779028Y-97884149D01*
X104779028Y-97884149D02*
X103279028Y-97884149D01*
X103279028Y-97884149D02*
X103279028Y-97384149D01*
X103279028Y-97384149D02*
X103350457Y-97241292D01*
X103350457Y-97241292D02*
X103421885Y-97169863D01*
X103421885Y-97169863D02*
X103564742Y-97098434D01*
X103564742Y-97098434D02*
X103707600Y-97098434D01*
X103707600Y-97098434D02*
X103850457Y-97169863D01*
X103850457Y-97169863D02*
X103921885Y-97241292D01*
X103921885Y-97241292D02*
X103993314Y-97384149D01*
X103993314Y-97384149D02*
X103993314Y-97884149D01*
X104779028Y-95527006D02*
X104064742Y-96027006D01*
X104779028Y-96384149D02*
X103279028Y-96384149D01*
X103279028Y-96384149D02*
X103279028Y-95812720D01*
X103279028Y-95812720D02*
X103350457Y-95669863D01*
X103350457Y-95669863D02*
X103421885Y-95598434D01*
X103421885Y-95598434D02*
X103564742Y-95527006D01*
X103564742Y-95527006D02*
X103779028Y-95527006D01*
X103779028Y-95527006D02*
X103921885Y-95598434D01*
X103921885Y-95598434D02*
X103993314Y-95669863D01*
X103993314Y-95669863D02*
X104064742Y-95812720D01*
X104064742Y-95812720D02*
X104064742Y-96384149D01*
X103993314Y-94884149D02*
X103993314Y-94384149D01*
X104779028Y-94169863D02*
X104779028Y-94884149D01*
X104779028Y-94884149D02*
X103279028Y-94884149D01*
X103279028Y-94884149D02*
X103279028Y-94169863D01*
X104350457Y-93598434D02*
X104350457Y-92884149D01*
X104779028Y-93741291D02*
X103279028Y-93241291D01*
X103279028Y-93241291D02*
X104779028Y-92741291D01*
X104779028Y-92241292D02*
X103279028Y-92241292D01*
X104779028Y-91384149D02*
X103921885Y-92027006D01*
X103279028Y-91384149D02*
X104136171Y-92241292D01*
X103279028Y-90455577D02*
X103279028Y-90169863D01*
X103279028Y-90169863D02*
X103350457Y-90027006D01*
X103350457Y-90027006D02*
X103493314Y-89884149D01*
X103493314Y-89884149D02*
X103779028Y-89812720D01*
X103779028Y-89812720D02*
X104279028Y-89812720D01*
X104279028Y-89812720D02*
X104564742Y-89884149D01*
X104564742Y-89884149D02*
X104707600Y-90027006D01*
X104707600Y-90027006D02*
X104779028Y-90169863D01*
X104779028Y-90169863D02*
X104779028Y-90455577D01*
X104779028Y-90455577D02*
X104707600Y-90598435D01*
X104707600Y-90598435D02*
X104564742Y-90741292D01*
X104564742Y-90741292D02*
X104279028Y-90812720D01*
X104279028Y-90812720D02*
X103779028Y-90812720D01*
X103779028Y-90812720D02*
X103493314Y-90741292D01*
X103493314Y-90741292D02*
X103350457Y-90598435D01*
X103350457Y-90598435D02*
X103279028Y-90455577D01*
X103279028Y-89169863D02*
X104493314Y-89169863D01*
X104493314Y-89169863D02*
X104636171Y-89098434D01*
X104636171Y-89098434D02*
X104707600Y-89027006D01*
X104707600Y-89027006D02*
X104779028Y-88884148D01*
X104779028Y-88884148D02*
X104779028Y-88598434D01*
X104779028Y-88598434D02*
X104707600Y-88455577D01*
X104707600Y-88455577D02*
X104636171Y-88384148D01*
X104636171Y-88384148D02*
X104493314Y-88312720D01*
X104493314Y-88312720D02*
X103279028Y-88312720D01*
X103279028Y-87812719D02*
X103279028Y-86955577D01*
X104779028Y-87384148D02*
X103279028Y-87384148D01*
D13*
X173273052Y-46153614D02*
X173773052Y-46153614D01*
X173987338Y-46939328D02*
X173273052Y-46939328D01*
X173273052Y-46939328D02*
X173273052Y-45439328D01*
X173273052Y-45439328D02*
X173987338Y-45439328D01*
X175487338Y-46796471D02*
X175415910Y-46867900D01*
X175415910Y-46867900D02*
X175201624Y-46939328D01*
X175201624Y-46939328D02*
X175058767Y-46939328D01*
X175058767Y-46939328D02*
X174844481Y-46867900D01*
X174844481Y-46867900D02*
X174701624Y-46725042D01*
X174701624Y-46725042D02*
X174630195Y-46582185D01*
X174630195Y-46582185D02*
X174558767Y-46296471D01*
X174558767Y-46296471D02*
X174558767Y-46082185D01*
X174558767Y-46082185D02*
X174630195Y-45796471D01*
X174630195Y-45796471D02*
X174701624Y-45653614D01*
X174701624Y-45653614D02*
X174844481Y-45510757D01*
X174844481Y-45510757D02*
X175058767Y-45439328D01*
X175058767Y-45439328D02*
X175201624Y-45439328D01*
X175201624Y-45439328D02*
X175415910Y-45510757D01*
X175415910Y-45510757D02*
X175487338Y-45582185D01*
X176130195Y-46153614D02*
X176630195Y-46153614D01*
X176844481Y-46939328D02*
X176130195Y-46939328D01*
X176130195Y-46939328D02*
X176130195Y-45439328D01*
X176130195Y-45439328D02*
X176844481Y-45439328D01*
X179273053Y-45939328D02*
X179273053Y-46939328D01*
X178915910Y-45367900D02*
X178558767Y-46439328D01*
X178558767Y-46439328D02*
X179487338Y-46439328D01*
X180844481Y-46939328D02*
X179987338Y-46939328D01*
X180415909Y-46939328D02*
X180415909Y-45439328D01*
X180415909Y-45439328D02*
X180273052Y-45653614D01*
X180273052Y-45653614D02*
X180130195Y-45796471D01*
X180130195Y-45796471D02*
X179987338Y-45867900D01*
X182273052Y-46939328D02*
X181415909Y-46939328D01*
X181844480Y-46939328D02*
X181844480Y-45439328D01*
X181844480Y-45439328D02*
X181701623Y-45653614D01*
X181701623Y-45653614D02*
X181558766Y-45796471D01*
X181558766Y-45796471D02*
X181415909Y-45867900D01*
X183844480Y-45439328D02*
X184701623Y-45439328D01*
X184273051Y-46939328D02*
X184273051Y-45439328D01*
X185201622Y-46153614D02*
X185701622Y-46153614D01*
X185915908Y-46939328D02*
X185201622Y-46939328D01*
X185201622Y-46939328D02*
X185201622Y-45439328D01*
X185201622Y-45439328D02*
X185915908Y-45439328D01*
X186487337Y-46510757D02*
X187201623Y-46510757D01*
X186344480Y-46939328D02*
X186844480Y-45439328D01*
X186844480Y-45439328D02*
X187344480Y-46939328D01*
X187844479Y-46939328D02*
X187844479Y-45439328D01*
X187844479Y-45439328D02*
X188344479Y-46510757D01*
X188344479Y-46510757D02*
X188844479Y-45439328D01*
X188844479Y-45439328D02*
X188844479Y-46939328D01*
X191344480Y-45939328D02*
X191344480Y-46939328D01*
X190987337Y-45367900D02*
X190630194Y-46439328D01*
X190630194Y-46439328D02*
X191558765Y-46439328D01*
D11*
X78424453Y-93550228D02*
X77924453Y-92835942D01*
X77567310Y-93550228D02*
X77567310Y-92050228D01*
X77567310Y-92050228D02*
X78138739Y-92050228D01*
X78138739Y-92050228D02*
X78281596Y-92121657D01*
X78281596Y-92121657D02*
X78353025Y-92193085D01*
X78353025Y-92193085D02*
X78424453Y-92335942D01*
X78424453Y-92335942D02*
X78424453Y-92550228D01*
X78424453Y-92550228D02*
X78353025Y-92693085D01*
X78353025Y-92693085D02*
X78281596Y-92764514D01*
X78281596Y-92764514D02*
X78138739Y-92835942D01*
X78138739Y-92835942D02*
X77567310Y-92835942D01*
X79067310Y-92764514D02*
X79567310Y-92764514D01*
X79781596Y-93550228D02*
X79067310Y-93550228D01*
X79067310Y-93550228D02*
X79067310Y-92050228D01*
X79067310Y-92050228D02*
X79781596Y-92050228D01*
X80353025Y-93478800D02*
X80567311Y-93550228D01*
X80567311Y-93550228D02*
X80924453Y-93550228D01*
X80924453Y-93550228D02*
X81067311Y-93478800D01*
X81067311Y-93478800D02*
X81138739Y-93407371D01*
X81138739Y-93407371D02*
X81210168Y-93264514D01*
X81210168Y-93264514D02*
X81210168Y-93121657D01*
X81210168Y-93121657D02*
X81138739Y-92978800D01*
X81138739Y-92978800D02*
X81067311Y-92907371D01*
X81067311Y-92907371D02*
X80924453Y-92835942D01*
X80924453Y-92835942D02*
X80638739Y-92764514D01*
X80638739Y-92764514D02*
X80495882Y-92693085D01*
X80495882Y-92693085D02*
X80424453Y-92621657D01*
X80424453Y-92621657D02*
X80353025Y-92478800D01*
X80353025Y-92478800D02*
X80353025Y-92335942D01*
X80353025Y-92335942D02*
X80424453Y-92193085D01*
X80424453Y-92193085D02*
X80495882Y-92121657D01*
X80495882Y-92121657D02*
X80638739Y-92050228D01*
X80638739Y-92050228D02*
X80995882Y-92050228D01*
X80995882Y-92050228D02*
X81210168Y-92121657D01*
X81853024Y-92764514D02*
X82353024Y-92764514D01*
X82567310Y-93550228D02*
X81853024Y-93550228D01*
X81853024Y-93550228D02*
X81853024Y-92050228D01*
X81853024Y-92050228D02*
X82567310Y-92050228D01*
X82995882Y-92050228D02*
X83853025Y-92050228D01*
X83424453Y-93550228D02*
X83424453Y-92050228D01*
X77495882Y-95893800D02*
X77710168Y-95965228D01*
X77710168Y-95965228D02*
X78067310Y-95965228D01*
X78067310Y-95965228D02*
X78210168Y-95893800D01*
X78210168Y-95893800D02*
X78281596Y-95822371D01*
X78281596Y-95822371D02*
X78353025Y-95679514D01*
X78353025Y-95679514D02*
X78353025Y-95536657D01*
X78353025Y-95536657D02*
X78281596Y-95393800D01*
X78281596Y-95393800D02*
X78210168Y-95322371D01*
X78210168Y-95322371D02*
X78067310Y-95250942D01*
X78067310Y-95250942D02*
X77781596Y-95179514D01*
X77781596Y-95179514D02*
X77638739Y-95108085D01*
X77638739Y-95108085D02*
X77567310Y-95036657D01*
X77567310Y-95036657D02*
X77495882Y-94893800D01*
X77495882Y-94893800D02*
X77495882Y-94750942D01*
X77495882Y-94750942D02*
X77567310Y-94608085D01*
X77567310Y-94608085D02*
X77638739Y-94536657D01*
X77638739Y-94536657D02*
X77781596Y-94465228D01*
X77781596Y-94465228D02*
X78138739Y-94465228D01*
X78138739Y-94465228D02*
X78353025Y-94536657D01*
X78853024Y-94465228D02*
X79210167Y-95965228D01*
X79210167Y-95965228D02*
X79495881Y-94893800D01*
X79495881Y-94893800D02*
X79781596Y-95965228D01*
X79781596Y-95965228D02*
X80138739Y-94465228D01*
X80710167Y-95965228D02*
X80710167Y-94465228D01*
X81210168Y-94465228D02*
X82067311Y-94465228D01*
X81638739Y-95965228D02*
X81638739Y-94465228D01*
X83424453Y-95822371D02*
X83353025Y-95893800D01*
X83353025Y-95893800D02*
X83138739Y-95965228D01*
X83138739Y-95965228D02*
X82995882Y-95965228D01*
X82995882Y-95965228D02*
X82781596Y-95893800D01*
X82781596Y-95893800D02*
X82638739Y-95750942D01*
X82638739Y-95750942D02*
X82567310Y-95608085D01*
X82567310Y-95608085D02*
X82495882Y-95322371D01*
X82495882Y-95322371D02*
X82495882Y-95108085D01*
X82495882Y-95108085D02*
X82567310Y-94822371D01*
X82567310Y-94822371D02*
X82638739Y-94679514D01*
X82638739Y-94679514D02*
X82781596Y-94536657D01*
X82781596Y-94536657D02*
X82995882Y-94465228D01*
X82995882Y-94465228D02*
X83138739Y-94465228D01*
X83138739Y-94465228D02*
X83353025Y-94536657D01*
X83353025Y-94536657D02*
X83424453Y-94608085D01*
X84067310Y-95965228D02*
X84067310Y-94465228D01*
X84067310Y-95179514D02*
X84924453Y-95179514D01*
X84924453Y-95965228D02*
X84924453Y-94465228D01*
D10*
X169000273Y-128533609D02*
X169333606Y-128533609D01*
X169476463Y-129057419D02*
X169000273Y-129057419D01*
X169000273Y-129057419D02*
X169000273Y-128057419D01*
X169000273Y-128057419D02*
X169476463Y-128057419D01*
X169857416Y-129009800D02*
X170000273Y-129057419D01*
X170000273Y-129057419D02*
X170238368Y-129057419D01*
X170238368Y-129057419D02*
X170333606Y-129009800D01*
X170333606Y-129009800D02*
X170381225Y-128962180D01*
X170381225Y-128962180D02*
X170428844Y-128866942D01*
X170428844Y-128866942D02*
X170428844Y-128771704D01*
X170428844Y-128771704D02*
X170381225Y-128676466D01*
X170381225Y-128676466D02*
X170333606Y-128628847D01*
X170333606Y-128628847D02*
X170238368Y-128581228D01*
X170238368Y-128581228D02*
X170047892Y-128533609D01*
X170047892Y-128533609D02*
X169952654Y-128485990D01*
X169952654Y-128485990D02*
X169905035Y-128438371D01*
X169905035Y-128438371D02*
X169857416Y-128343133D01*
X169857416Y-128343133D02*
X169857416Y-128247895D01*
X169857416Y-128247895D02*
X169905035Y-128152657D01*
X169905035Y-128152657D02*
X169952654Y-128105038D01*
X169952654Y-128105038D02*
X170047892Y-128057419D01*
X170047892Y-128057419D02*
X170285987Y-128057419D01*
X170285987Y-128057419D02*
X170428844Y-128105038D01*
X170857416Y-129057419D02*
X170857416Y-128057419D01*
X170857416Y-128057419D02*
X171238368Y-128057419D01*
X171238368Y-128057419D02*
X171333606Y-128105038D01*
X171333606Y-128105038D02*
X171381225Y-128152657D01*
X171381225Y-128152657D02*
X171428844Y-128247895D01*
X171428844Y-128247895D02*
X171428844Y-128390752D01*
X171428844Y-128390752D02*
X171381225Y-128485990D01*
X171381225Y-128485990D02*
X171333606Y-128533609D01*
X171333606Y-128533609D02*
X171238368Y-128581228D01*
X171238368Y-128581228D02*
X170857416Y-128581228D01*
X171762178Y-128057419D02*
X172381225Y-128057419D01*
X172381225Y-128057419D02*
X172047892Y-128438371D01*
X172047892Y-128438371D02*
X172190749Y-128438371D01*
X172190749Y-128438371D02*
X172285987Y-128485990D01*
X172285987Y-128485990D02*
X172333606Y-128533609D01*
X172333606Y-128533609D02*
X172381225Y-128628847D01*
X172381225Y-128628847D02*
X172381225Y-128866942D01*
X172381225Y-128866942D02*
X172333606Y-128962180D01*
X172333606Y-128962180D02*
X172285987Y-129009800D01*
X172285987Y-129009800D02*
X172190749Y-129057419D01*
X172190749Y-129057419D02*
X171905035Y-129057419D01*
X171905035Y-129057419D02*
X171809797Y-129009800D01*
X171809797Y-129009800D02*
X171762178Y-128962180D01*
X172762178Y-128152657D02*
X172809797Y-128105038D01*
X172809797Y-128105038D02*
X172905035Y-128057419D01*
X172905035Y-128057419D02*
X173143130Y-128057419D01*
X173143130Y-128057419D02*
X173238368Y-128105038D01*
X173238368Y-128105038D02*
X173285987Y-128152657D01*
X173285987Y-128152657D02*
X173333606Y-128247895D01*
X173333606Y-128247895D02*
X173333606Y-128343133D01*
X173333606Y-128343133D02*
X173285987Y-128485990D01*
X173285987Y-128485990D02*
X172714559Y-129057419D01*
X172714559Y-129057419D02*
X173333606Y-129057419D01*
X169000273Y-130667419D02*
X169000273Y-129667419D01*
X169000273Y-129667419D02*
X169381225Y-129667419D01*
X169381225Y-129667419D02*
X169476463Y-129715038D01*
X169476463Y-129715038D02*
X169524082Y-129762657D01*
X169524082Y-129762657D02*
X169571701Y-129857895D01*
X169571701Y-129857895D02*
X169571701Y-130000752D01*
X169571701Y-130000752D02*
X169524082Y-130095990D01*
X169524082Y-130095990D02*
X169476463Y-130143609D01*
X169476463Y-130143609D02*
X169381225Y-130191228D01*
X169381225Y-130191228D02*
X169000273Y-130191228D01*
X170190749Y-129667419D02*
X170381225Y-129667419D01*
X170381225Y-129667419D02*
X170476463Y-129715038D01*
X170476463Y-129715038D02*
X170571701Y-129810276D01*
X170571701Y-129810276D02*
X170619320Y-130000752D01*
X170619320Y-130000752D02*
X170619320Y-130334085D01*
X170619320Y-130334085D02*
X170571701Y-130524561D01*
X170571701Y-130524561D02*
X170476463Y-130619800D01*
X170476463Y-130619800D02*
X170381225Y-130667419D01*
X170381225Y-130667419D02*
X170190749Y-130667419D01*
X170190749Y-130667419D02*
X170095511Y-130619800D01*
X170095511Y-130619800D02*
X170000273Y-130524561D01*
X170000273Y-130524561D02*
X169952654Y-130334085D01*
X169952654Y-130334085D02*
X169952654Y-130000752D01*
X169952654Y-130000752D02*
X170000273Y-129810276D01*
X170000273Y-129810276D02*
X170095511Y-129715038D01*
X170095511Y-129715038D02*
X170190749Y-129667419D01*
X170952654Y-129667419D02*
X171190749Y-130667419D01*
X171190749Y-130667419D02*
X171381225Y-129953133D01*
X171381225Y-129953133D02*
X171571701Y-130667419D01*
X171571701Y-130667419D02*
X171809797Y-129667419D01*
X172190749Y-130143609D02*
X172524082Y-130143609D01*
X172666939Y-130667419D02*
X172190749Y-130667419D01*
X172190749Y-130667419D02*
X172190749Y-129667419D01*
X172190749Y-129667419D02*
X172666939Y-129667419D01*
X173666939Y-130667419D02*
X173333606Y-130191228D01*
X173095511Y-130667419D02*
X173095511Y-129667419D01*
X173095511Y-129667419D02*
X173476463Y-129667419D01*
X173476463Y-129667419D02*
X173571701Y-129715038D01*
X173571701Y-129715038D02*
X173619320Y-129762657D01*
X173619320Y-129762657D02*
X173666939Y-129857895D01*
X173666939Y-129857895D02*
X173666939Y-130000752D01*
X173666939Y-130000752D02*
X173619320Y-130095990D01*
X173619320Y-130095990D02*
X173571701Y-130143609D01*
X173571701Y-130143609D02*
X173476463Y-130191228D01*
X173476463Y-130191228D02*
X173095511Y-130191228D01*
X168952654Y-132229800D02*
X169095511Y-132277419D01*
X169095511Y-132277419D02*
X169333606Y-132277419D01*
X169333606Y-132277419D02*
X169428844Y-132229800D01*
X169428844Y-132229800D02*
X169476463Y-132182180D01*
X169476463Y-132182180D02*
X169524082Y-132086942D01*
X169524082Y-132086942D02*
X169524082Y-131991704D01*
X169524082Y-131991704D02*
X169476463Y-131896466D01*
X169476463Y-131896466D02*
X169428844Y-131848847D01*
X169428844Y-131848847D02*
X169333606Y-131801228D01*
X169333606Y-131801228D02*
X169143130Y-131753609D01*
X169143130Y-131753609D02*
X169047892Y-131705990D01*
X169047892Y-131705990D02*
X169000273Y-131658371D01*
X169000273Y-131658371D02*
X168952654Y-131563133D01*
X168952654Y-131563133D02*
X168952654Y-131467895D01*
X168952654Y-131467895D02*
X169000273Y-131372657D01*
X169000273Y-131372657D02*
X169047892Y-131325038D01*
X169047892Y-131325038D02*
X169143130Y-131277419D01*
X169143130Y-131277419D02*
X169381225Y-131277419D01*
X169381225Y-131277419D02*
X169524082Y-131325038D01*
X169857416Y-131277419D02*
X170095511Y-132277419D01*
X170095511Y-132277419D02*
X170285987Y-131563133D01*
X170285987Y-131563133D02*
X170476463Y-132277419D01*
X170476463Y-132277419D02*
X170714559Y-131277419D01*
X171095511Y-132277419D02*
X171095511Y-131277419D01*
X171428844Y-131277419D02*
X172000272Y-131277419D01*
X171714558Y-132277419D02*
X171714558Y-131277419D01*
X172905034Y-132182180D02*
X172857415Y-132229800D01*
X172857415Y-132229800D02*
X172714558Y-132277419D01*
X172714558Y-132277419D02*
X172619320Y-132277419D01*
X172619320Y-132277419D02*
X172476463Y-132229800D01*
X172476463Y-132229800D02*
X172381225Y-132134561D01*
X172381225Y-132134561D02*
X172333606Y-132039323D01*
X172333606Y-132039323D02*
X172285987Y-131848847D01*
X172285987Y-131848847D02*
X172285987Y-131705990D01*
X172285987Y-131705990D02*
X172333606Y-131515514D01*
X172333606Y-131515514D02*
X172381225Y-131420276D01*
X172381225Y-131420276D02*
X172476463Y-131325038D01*
X172476463Y-131325038D02*
X172619320Y-131277419D01*
X172619320Y-131277419D02*
X172714558Y-131277419D01*
X172714558Y-131277419D02*
X172857415Y-131325038D01*
X172857415Y-131325038D02*
X172905034Y-131372657D01*
X173333606Y-132277419D02*
X173333606Y-131277419D01*
X173333606Y-131753609D02*
X173905034Y-131753609D01*
X173905034Y-132277419D02*
X173905034Y-131277419D01*
D11*
X63521110Y-145495228D02*
X63521110Y-143995228D01*
X63521110Y-143995228D02*
X63878253Y-143995228D01*
X63878253Y-143995228D02*
X64092539Y-144066657D01*
X64092539Y-144066657D02*
X64235396Y-144209514D01*
X64235396Y-144209514D02*
X64306825Y-144352371D01*
X64306825Y-144352371D02*
X64378253Y-144638085D01*
X64378253Y-144638085D02*
X64378253Y-144852371D01*
X64378253Y-144852371D02*
X64306825Y-145138085D01*
X64306825Y-145138085D02*
X64235396Y-145280942D01*
X64235396Y-145280942D02*
X64092539Y-145423800D01*
X64092539Y-145423800D02*
X63878253Y-145495228D01*
X63878253Y-145495228D02*
X63521110Y-145495228D01*
X65021110Y-145495228D02*
X65021110Y-143995228D01*
X65021110Y-144709514D02*
X65878253Y-144709514D01*
X65878253Y-145495228D02*
X65878253Y-143995228D01*
X66378254Y-143995228D02*
X67235397Y-143995228D01*
X66806825Y-145495228D02*
X66806825Y-143995228D01*
X68521111Y-145495228D02*
X67663968Y-145495228D01*
X68092539Y-145495228D02*
X68092539Y-143995228D01*
X68092539Y-143995228D02*
X67949682Y-144209514D01*
X67949682Y-144209514D02*
X67806825Y-144352371D01*
X67806825Y-144352371D02*
X67663968Y-144423800D01*
X69949682Y-145495228D02*
X69092539Y-145495228D01*
X69521110Y-145495228D02*
X69521110Y-143995228D01*
X69521110Y-143995228D02*
X69378253Y-144209514D01*
X69378253Y-144209514D02*
X69235396Y-144352371D01*
X69235396Y-144352371D02*
X69092539Y-144423800D01*
X82182110Y-48468914D02*
X81682110Y-48468914D01*
X81682110Y-49254628D02*
X81682110Y-47754628D01*
X81682110Y-47754628D02*
X82396396Y-47754628D01*
X83539253Y-49183200D02*
X83396396Y-49254628D01*
X83396396Y-49254628D02*
X83110682Y-49254628D01*
X83110682Y-49254628D02*
X82967824Y-49183200D01*
X82967824Y-49183200D02*
X82896396Y-49040342D01*
X82896396Y-49040342D02*
X82896396Y-48468914D01*
X82896396Y-48468914D02*
X82967824Y-48326057D01*
X82967824Y-48326057D02*
X83110682Y-48254628D01*
X83110682Y-48254628D02*
X83396396Y-48254628D01*
X83396396Y-48254628D02*
X83539253Y-48326057D01*
X83539253Y-48326057D02*
X83610682Y-48468914D01*
X83610682Y-48468914D02*
X83610682Y-48611771D01*
X83610682Y-48611771D02*
X82896396Y-48754628D01*
X84896396Y-49254628D02*
X84896396Y-48468914D01*
X84896396Y-48468914D02*
X84824967Y-48326057D01*
X84824967Y-48326057D02*
X84682110Y-48254628D01*
X84682110Y-48254628D02*
X84396396Y-48254628D01*
X84396396Y-48254628D02*
X84253538Y-48326057D01*
X84896396Y-49183200D02*
X84753538Y-49254628D01*
X84753538Y-49254628D02*
X84396396Y-49254628D01*
X84396396Y-49254628D02*
X84253538Y-49183200D01*
X84253538Y-49183200D02*
X84182110Y-49040342D01*
X84182110Y-49040342D02*
X84182110Y-48897485D01*
X84182110Y-48897485D02*
X84253538Y-48754628D01*
X84253538Y-48754628D02*
X84396396Y-48683200D01*
X84396396Y-48683200D02*
X84753538Y-48683200D01*
X84753538Y-48683200D02*
X84896396Y-48611771D01*
X85396396Y-48254628D02*
X85967824Y-48254628D01*
X85610681Y-47754628D02*
X85610681Y-49040342D01*
X85610681Y-49040342D02*
X85682110Y-49183200D01*
X85682110Y-49183200D02*
X85824967Y-49254628D01*
X85824967Y-49254628D02*
X85967824Y-49254628D01*
X86467824Y-49254628D02*
X86467824Y-47754628D01*
X87110682Y-49254628D02*
X87110682Y-48468914D01*
X87110682Y-48468914D02*
X87039253Y-48326057D01*
X87039253Y-48326057D02*
X86896396Y-48254628D01*
X86896396Y-48254628D02*
X86682110Y-48254628D01*
X86682110Y-48254628D02*
X86539253Y-48326057D01*
X86539253Y-48326057D02*
X86467824Y-48397485D01*
X88396396Y-49183200D02*
X88253539Y-49254628D01*
X88253539Y-49254628D02*
X87967825Y-49254628D01*
X87967825Y-49254628D02*
X87824967Y-49183200D01*
X87824967Y-49183200D02*
X87753539Y-49040342D01*
X87753539Y-49040342D02*
X87753539Y-48468914D01*
X87753539Y-48468914D02*
X87824967Y-48326057D01*
X87824967Y-48326057D02*
X87967825Y-48254628D01*
X87967825Y-48254628D02*
X88253539Y-48254628D01*
X88253539Y-48254628D02*
X88396396Y-48326057D01*
X88396396Y-48326057D02*
X88467825Y-48468914D01*
X88467825Y-48468914D02*
X88467825Y-48611771D01*
X88467825Y-48611771D02*
X87753539Y-48754628D01*
X89110681Y-49254628D02*
X89110681Y-48254628D01*
X89110681Y-48540342D02*
X89182110Y-48397485D01*
X89182110Y-48397485D02*
X89253539Y-48326057D01*
X89253539Y-48326057D02*
X89396396Y-48254628D01*
X89396396Y-48254628D02*
X89539253Y-48254628D01*
X89896395Y-48254628D02*
X90182110Y-49254628D01*
X90182110Y-49254628D02*
X90467824Y-48540342D01*
X90467824Y-48540342D02*
X90753538Y-49254628D01*
X90753538Y-49254628D02*
X91039252Y-48254628D01*
X91610681Y-49254628D02*
X91610681Y-48254628D01*
X91610681Y-47754628D02*
X91539253Y-47826057D01*
X91539253Y-47826057D02*
X91610681Y-47897485D01*
X91610681Y-47897485D02*
X91682110Y-47826057D01*
X91682110Y-47826057D02*
X91610681Y-47754628D01*
X91610681Y-47754628D02*
X91610681Y-47897485D01*
X92324967Y-48254628D02*
X92324967Y-49254628D01*
X92324967Y-48397485D02*
X92396396Y-48326057D01*
X92396396Y-48326057D02*
X92539253Y-48254628D01*
X92539253Y-48254628D02*
X92753539Y-48254628D01*
X92753539Y-48254628D02*
X92896396Y-48326057D01*
X92896396Y-48326057D02*
X92967825Y-48468914D01*
X92967825Y-48468914D02*
X92967825Y-49254628D01*
X94324968Y-48254628D02*
X94324968Y-49468914D01*
X94324968Y-49468914D02*
X94253539Y-49611771D01*
X94253539Y-49611771D02*
X94182110Y-49683200D01*
X94182110Y-49683200D02*
X94039253Y-49754628D01*
X94039253Y-49754628D02*
X93824968Y-49754628D01*
X93824968Y-49754628D02*
X93682110Y-49683200D01*
X94324968Y-49183200D02*
X94182110Y-49254628D01*
X94182110Y-49254628D02*
X93896396Y-49254628D01*
X93896396Y-49254628D02*
X93753539Y-49183200D01*
X93753539Y-49183200D02*
X93682110Y-49111771D01*
X93682110Y-49111771D02*
X93610682Y-48968914D01*
X93610682Y-48968914D02*
X93610682Y-48540342D01*
X93610682Y-48540342D02*
X93682110Y-48397485D01*
X93682110Y-48397485D02*
X93753539Y-48326057D01*
X93753539Y-48326057D02*
X93896396Y-48254628D01*
X93896396Y-48254628D02*
X94182110Y-48254628D01*
X94182110Y-48254628D02*
X94324968Y-48326057D01*
X96467825Y-47754628D02*
X96753539Y-47754628D01*
X96753539Y-47754628D02*
X96896396Y-47826057D01*
X96896396Y-47826057D02*
X97039253Y-47968914D01*
X97039253Y-47968914D02*
X97110682Y-48254628D01*
X97110682Y-48254628D02*
X97110682Y-48754628D01*
X97110682Y-48754628D02*
X97039253Y-49040342D01*
X97039253Y-49040342D02*
X96896396Y-49183200D01*
X96896396Y-49183200D02*
X96753539Y-49254628D01*
X96753539Y-49254628D02*
X96467825Y-49254628D01*
X96467825Y-49254628D02*
X96324968Y-49183200D01*
X96324968Y-49183200D02*
X96182110Y-49040342D01*
X96182110Y-49040342D02*
X96110682Y-48754628D01*
X96110682Y-48754628D02*
X96110682Y-48254628D01*
X96110682Y-48254628D02*
X96182110Y-47968914D01*
X96182110Y-47968914D02*
X96324968Y-47826057D01*
X96324968Y-47826057D02*
X96467825Y-47754628D01*
X98467825Y-49254628D02*
X97753539Y-49254628D01*
X97753539Y-49254628D02*
X97753539Y-47754628D01*
X98967825Y-48468914D02*
X99467825Y-48468914D01*
X99682111Y-49254628D02*
X98967825Y-49254628D01*
X98967825Y-49254628D02*
X98967825Y-47754628D01*
X98967825Y-47754628D02*
X99682111Y-47754628D01*
X100324968Y-49254628D02*
X100324968Y-47754628D01*
X100324968Y-47754628D02*
X100682111Y-47754628D01*
X100682111Y-47754628D02*
X100896397Y-47826057D01*
X100896397Y-47826057D02*
X101039254Y-47968914D01*
X101039254Y-47968914D02*
X101110683Y-48111771D01*
X101110683Y-48111771D02*
X101182111Y-48397485D01*
X101182111Y-48397485D02*
X101182111Y-48611771D01*
X101182111Y-48611771D02*
X101110683Y-48897485D01*
X101110683Y-48897485D02*
X101039254Y-49040342D01*
X101039254Y-49040342D02*
X100896397Y-49183200D01*
X100896397Y-49183200D02*
X100682111Y-49254628D01*
X100682111Y-49254628D02*
X100324968Y-49254628D01*
X102967825Y-49254628D02*
X102967825Y-47754628D01*
X102967825Y-47754628D02*
X103324968Y-47754628D01*
X103324968Y-47754628D02*
X103539254Y-47826057D01*
X103539254Y-47826057D02*
X103682111Y-47968914D01*
X103682111Y-47968914D02*
X103753540Y-48111771D01*
X103753540Y-48111771D02*
X103824968Y-48397485D01*
X103824968Y-48397485D02*
X103824968Y-48611771D01*
X103824968Y-48611771D02*
X103753540Y-48897485D01*
X103753540Y-48897485D02*
X103682111Y-49040342D01*
X103682111Y-49040342D02*
X103539254Y-49183200D01*
X103539254Y-49183200D02*
X103324968Y-49254628D01*
X103324968Y-49254628D02*
X102967825Y-49254628D01*
X104467825Y-49254628D02*
X104467825Y-48254628D01*
X104467825Y-47754628D02*
X104396397Y-47826057D01*
X104396397Y-47826057D02*
X104467825Y-47897485D01*
X104467825Y-47897485D02*
X104539254Y-47826057D01*
X104539254Y-47826057D02*
X104467825Y-47754628D01*
X104467825Y-47754628D02*
X104467825Y-47897485D01*
X105110683Y-49183200D02*
X105253540Y-49254628D01*
X105253540Y-49254628D02*
X105539254Y-49254628D01*
X105539254Y-49254628D02*
X105682111Y-49183200D01*
X105682111Y-49183200D02*
X105753540Y-49040342D01*
X105753540Y-49040342D02*
X105753540Y-48968914D01*
X105753540Y-48968914D02*
X105682111Y-48826057D01*
X105682111Y-48826057D02*
X105539254Y-48754628D01*
X105539254Y-48754628D02*
X105324969Y-48754628D01*
X105324969Y-48754628D02*
X105182111Y-48683200D01*
X105182111Y-48683200D02*
X105110683Y-48540342D01*
X105110683Y-48540342D02*
X105110683Y-48468914D01*
X105110683Y-48468914D02*
X105182111Y-48326057D01*
X105182111Y-48326057D02*
X105324969Y-48254628D01*
X105324969Y-48254628D02*
X105539254Y-48254628D01*
X105539254Y-48254628D02*
X105682111Y-48326057D01*
X106396397Y-48254628D02*
X106396397Y-49754628D01*
X106396397Y-48326057D02*
X106539255Y-48254628D01*
X106539255Y-48254628D02*
X106824969Y-48254628D01*
X106824969Y-48254628D02*
X106967826Y-48326057D01*
X106967826Y-48326057D02*
X107039255Y-48397485D01*
X107039255Y-48397485D02*
X107110683Y-48540342D01*
X107110683Y-48540342D02*
X107110683Y-48968914D01*
X107110683Y-48968914D02*
X107039255Y-49111771D01*
X107039255Y-49111771D02*
X106967826Y-49183200D01*
X106967826Y-49183200D02*
X106824969Y-49254628D01*
X106824969Y-49254628D02*
X106539255Y-49254628D01*
X106539255Y-49254628D02*
X106396397Y-49183200D01*
X107967826Y-49254628D02*
X107824969Y-49183200D01*
X107824969Y-49183200D02*
X107753540Y-49040342D01*
X107753540Y-49040342D02*
X107753540Y-47754628D01*
X109182112Y-49254628D02*
X109182112Y-48468914D01*
X109182112Y-48468914D02*
X109110683Y-48326057D01*
X109110683Y-48326057D02*
X108967826Y-48254628D01*
X108967826Y-48254628D02*
X108682112Y-48254628D01*
X108682112Y-48254628D02*
X108539254Y-48326057D01*
X109182112Y-49183200D02*
X109039254Y-49254628D01*
X109039254Y-49254628D02*
X108682112Y-49254628D01*
X108682112Y-49254628D02*
X108539254Y-49183200D01*
X108539254Y-49183200D02*
X108467826Y-49040342D01*
X108467826Y-49040342D02*
X108467826Y-48897485D01*
X108467826Y-48897485D02*
X108539254Y-48754628D01*
X108539254Y-48754628D02*
X108682112Y-48683200D01*
X108682112Y-48683200D02*
X109039254Y-48683200D01*
X109039254Y-48683200D02*
X109182112Y-48611771D01*
X109753540Y-48254628D02*
X110110683Y-49254628D01*
X110467826Y-48254628D02*
X110110683Y-49254628D01*
X110110683Y-49254628D02*
X109967826Y-49611771D01*
X109967826Y-49611771D02*
X109896397Y-49683200D01*
X109896397Y-49683200D02*
X109753540Y-49754628D01*
D10*
X203112473Y-90408419D02*
X203112473Y-89408419D01*
X203112473Y-89408419D02*
X203445806Y-90122704D01*
X203445806Y-90122704D02*
X203779139Y-89408419D01*
X203779139Y-89408419D02*
X203779139Y-90408419D01*
X204398187Y-90408419D02*
X204302949Y-90360800D01*
X204302949Y-90360800D02*
X204255330Y-90313180D01*
X204255330Y-90313180D02*
X204207711Y-90217942D01*
X204207711Y-90217942D02*
X204207711Y-89932228D01*
X204207711Y-89932228D02*
X204255330Y-89836990D01*
X204255330Y-89836990D02*
X204302949Y-89789371D01*
X204302949Y-89789371D02*
X204398187Y-89741752D01*
X204398187Y-89741752D02*
X204541044Y-89741752D01*
X204541044Y-89741752D02*
X204636282Y-89789371D01*
X204636282Y-89789371D02*
X204683901Y-89836990D01*
X204683901Y-89836990D02*
X204731520Y-89932228D01*
X204731520Y-89932228D02*
X204731520Y-90217942D01*
X204731520Y-90217942D02*
X204683901Y-90313180D01*
X204683901Y-90313180D02*
X204636282Y-90360800D01*
X204636282Y-90360800D02*
X204541044Y-90408419D01*
X204541044Y-90408419D02*
X204398187Y-90408419D01*
X205017235Y-89741752D02*
X205398187Y-89741752D01*
X205160092Y-89408419D02*
X205160092Y-90265561D01*
X205160092Y-90265561D02*
X205207711Y-90360800D01*
X205207711Y-90360800D02*
X205302949Y-90408419D01*
X205302949Y-90408419D02*
X205398187Y-90408419D01*
X205874378Y-90408419D02*
X205779140Y-90360800D01*
X205779140Y-90360800D02*
X205731521Y-90313180D01*
X205731521Y-90313180D02*
X205683902Y-90217942D01*
X205683902Y-90217942D02*
X205683902Y-89932228D01*
X205683902Y-89932228D02*
X205731521Y-89836990D01*
X205731521Y-89836990D02*
X205779140Y-89789371D01*
X205779140Y-89789371D02*
X205874378Y-89741752D01*
X205874378Y-89741752D02*
X206017235Y-89741752D01*
X206017235Y-89741752D02*
X206112473Y-89789371D01*
X206112473Y-89789371D02*
X206160092Y-89836990D01*
X206160092Y-89836990D02*
X206207711Y-89932228D01*
X206207711Y-89932228D02*
X206207711Y-90217942D01*
X206207711Y-90217942D02*
X206160092Y-90313180D01*
X206160092Y-90313180D02*
X206112473Y-90360800D01*
X206112473Y-90360800D02*
X206017235Y-90408419D01*
X206017235Y-90408419D02*
X205874378Y-90408419D01*
X206636283Y-90408419D02*
X206636283Y-89741752D01*
X206636283Y-89932228D02*
X206683902Y-89836990D01*
X206683902Y-89836990D02*
X206731521Y-89789371D01*
X206731521Y-89789371D02*
X206826759Y-89741752D01*
X206826759Y-89741752D02*
X206921997Y-89741752D01*
X203445806Y-91494609D02*
X203588663Y-91542228D01*
X203588663Y-91542228D02*
X203636282Y-91589847D01*
X203636282Y-91589847D02*
X203683901Y-91685085D01*
X203683901Y-91685085D02*
X203683901Y-91827942D01*
X203683901Y-91827942D02*
X203636282Y-91923180D01*
X203636282Y-91923180D02*
X203588663Y-91970800D01*
X203588663Y-91970800D02*
X203493425Y-92018419D01*
X203493425Y-92018419D02*
X203112473Y-92018419D01*
X203112473Y-92018419D02*
X203112473Y-91018419D01*
X203112473Y-91018419D02*
X203445806Y-91018419D01*
X203445806Y-91018419D02*
X203541044Y-91066038D01*
X203541044Y-91066038D02*
X203588663Y-91113657D01*
X203588663Y-91113657D02*
X203636282Y-91208895D01*
X203636282Y-91208895D02*
X203636282Y-91304133D01*
X203636282Y-91304133D02*
X203588663Y-91399371D01*
X203588663Y-91399371D02*
X203541044Y-91446990D01*
X203541044Y-91446990D02*
X203445806Y-91494609D01*
X203445806Y-91494609D02*
X203112473Y-91494609D01*
X204112473Y-92018419D02*
X204112473Y-91351752D01*
X204112473Y-91542228D02*
X204160092Y-91446990D01*
X204160092Y-91446990D02*
X204207711Y-91399371D01*
X204207711Y-91399371D02*
X204302949Y-91351752D01*
X204302949Y-91351752D02*
X204398187Y-91351752D01*
X205112473Y-91970800D02*
X205017235Y-92018419D01*
X205017235Y-92018419D02*
X204826759Y-92018419D01*
X204826759Y-92018419D02*
X204731521Y-91970800D01*
X204731521Y-91970800D02*
X204683902Y-91875561D01*
X204683902Y-91875561D02*
X204683902Y-91494609D01*
X204683902Y-91494609D02*
X204731521Y-91399371D01*
X204731521Y-91399371D02*
X204826759Y-91351752D01*
X204826759Y-91351752D02*
X205017235Y-91351752D01*
X205017235Y-91351752D02*
X205112473Y-91399371D01*
X205112473Y-91399371D02*
X205160092Y-91494609D01*
X205160092Y-91494609D02*
X205160092Y-91589847D01*
X205160092Y-91589847D02*
X204683902Y-91685085D01*
X206017235Y-92018419D02*
X206017235Y-91494609D01*
X206017235Y-91494609D02*
X205969616Y-91399371D01*
X205969616Y-91399371D02*
X205874378Y-91351752D01*
X205874378Y-91351752D02*
X205683902Y-91351752D01*
X205683902Y-91351752D02*
X205588664Y-91399371D01*
X206017235Y-91970800D02*
X205921997Y-92018419D01*
X205921997Y-92018419D02*
X205683902Y-92018419D01*
X205683902Y-92018419D02*
X205588664Y-91970800D01*
X205588664Y-91970800D02*
X205541045Y-91875561D01*
X205541045Y-91875561D02*
X205541045Y-91780323D01*
X205541045Y-91780323D02*
X205588664Y-91685085D01*
X205588664Y-91685085D02*
X205683902Y-91637466D01*
X205683902Y-91637466D02*
X205921997Y-91637466D01*
X205921997Y-91637466D02*
X206017235Y-91589847D01*
X206493426Y-92018419D02*
X206493426Y-91018419D01*
X206588664Y-91637466D02*
X206874378Y-92018419D01*
X206874378Y-91351752D02*
X206493426Y-91732704D01*
X207445807Y-92018419D02*
X207350569Y-91970800D01*
X207350569Y-91970800D02*
X207302950Y-91923180D01*
X207302950Y-91923180D02*
X207255331Y-91827942D01*
X207255331Y-91827942D02*
X207255331Y-91542228D01*
X207255331Y-91542228D02*
X207302950Y-91446990D01*
X207302950Y-91446990D02*
X207350569Y-91399371D01*
X207350569Y-91399371D02*
X207445807Y-91351752D01*
X207445807Y-91351752D02*
X207588664Y-91351752D01*
X207588664Y-91351752D02*
X207683902Y-91399371D01*
X207683902Y-91399371D02*
X207731521Y-91446990D01*
X207731521Y-91446990D02*
X207779140Y-91542228D01*
X207779140Y-91542228D02*
X207779140Y-91827942D01*
X207779140Y-91827942D02*
X207731521Y-91923180D01*
X207731521Y-91923180D02*
X207683902Y-91970800D01*
X207683902Y-91970800D02*
X207588664Y-92018419D01*
X207588664Y-92018419D02*
X207445807Y-92018419D01*
X208636283Y-91351752D02*
X208636283Y-92018419D01*
X208207712Y-91351752D02*
X208207712Y-91875561D01*
X208207712Y-91875561D02*
X208255331Y-91970800D01*
X208255331Y-91970800D02*
X208350569Y-92018419D01*
X208350569Y-92018419D02*
X208493426Y-92018419D01*
X208493426Y-92018419D02*
X208588664Y-91970800D01*
X208588664Y-91970800D02*
X208636283Y-91923180D01*
X208969617Y-91351752D02*
X209350569Y-91351752D01*
X209112474Y-91018419D02*
X209112474Y-91875561D01*
X209112474Y-91875561D02*
X209160093Y-91970800D01*
X209160093Y-91970800D02*
X209255331Y-92018419D01*
X209255331Y-92018419D02*
X209350569Y-92018419D01*
D11*
X139751282Y-99448257D02*
X140465568Y-99448257D01*
X139608425Y-99876828D02*
X140108425Y-98376828D01*
X140108425Y-98376828D02*
X140608425Y-99876828D01*
X141751282Y-99876828D02*
X141751282Y-98376828D01*
X141751282Y-99805400D02*
X141608424Y-99876828D01*
X141608424Y-99876828D02*
X141322710Y-99876828D01*
X141322710Y-99876828D02*
X141179853Y-99805400D01*
X141179853Y-99805400D02*
X141108424Y-99733971D01*
X141108424Y-99733971D02*
X141036996Y-99591114D01*
X141036996Y-99591114D02*
X141036996Y-99162542D01*
X141036996Y-99162542D02*
X141108424Y-99019685D01*
X141108424Y-99019685D02*
X141179853Y-98948257D01*
X141179853Y-98948257D02*
X141322710Y-98876828D01*
X141322710Y-98876828D02*
X141608424Y-98876828D01*
X141608424Y-98876828D02*
X141751282Y-98948257D01*
X143108425Y-99876828D02*
X143108425Y-99091114D01*
X143108425Y-99091114D02*
X143036996Y-98948257D01*
X143036996Y-98948257D02*
X142894139Y-98876828D01*
X142894139Y-98876828D02*
X142608425Y-98876828D01*
X142608425Y-98876828D02*
X142465567Y-98948257D01*
X143108425Y-99805400D02*
X142965567Y-99876828D01*
X142965567Y-99876828D02*
X142608425Y-99876828D01*
X142608425Y-99876828D02*
X142465567Y-99805400D01*
X142465567Y-99805400D02*
X142394139Y-99662542D01*
X142394139Y-99662542D02*
X142394139Y-99519685D01*
X142394139Y-99519685D02*
X142465567Y-99376828D01*
X142465567Y-99376828D02*
X142608425Y-99305400D01*
X142608425Y-99305400D02*
X142965567Y-99305400D01*
X142965567Y-99305400D02*
X143108425Y-99233971D01*
X143608425Y-98876828D02*
X144179853Y-98876828D01*
X143822710Y-99876828D02*
X143822710Y-98591114D01*
X143822710Y-98591114D02*
X143894139Y-98448257D01*
X143894139Y-98448257D02*
X144036996Y-98376828D01*
X144036996Y-98376828D02*
X144179853Y-98376828D01*
X144679853Y-99876828D02*
X144679853Y-98876828D01*
X144679853Y-99162542D02*
X144751282Y-99019685D01*
X144751282Y-99019685D02*
X144822711Y-98948257D01*
X144822711Y-98948257D02*
X144965568Y-98876828D01*
X144965568Y-98876828D02*
X145108425Y-98876828D01*
X146251282Y-98876828D02*
X146251282Y-99876828D01*
X145608424Y-98876828D02*
X145608424Y-99662542D01*
X145608424Y-99662542D02*
X145679853Y-99805400D01*
X145679853Y-99805400D02*
X145822710Y-99876828D01*
X145822710Y-99876828D02*
X146036996Y-99876828D01*
X146036996Y-99876828D02*
X146179853Y-99805400D01*
X146179853Y-99805400D02*
X146251282Y-99733971D01*
X146965567Y-99876828D02*
X146965567Y-98876828D01*
X146965567Y-98376828D02*
X146894139Y-98448257D01*
X146894139Y-98448257D02*
X146965567Y-98519685D01*
X146965567Y-98519685D02*
X147036996Y-98448257D01*
X147036996Y-98448257D02*
X146965567Y-98376828D01*
X146965567Y-98376828D02*
X146965567Y-98519685D01*
X147465568Y-98876828D02*
X148036996Y-98876828D01*
X147679853Y-98376828D02*
X147679853Y-99662542D01*
X147679853Y-99662542D02*
X147751282Y-99805400D01*
X147751282Y-99805400D02*
X147894139Y-99876828D01*
X147894139Y-99876828D02*
X148036996Y-99876828D01*
X148179854Y-100019685D02*
X149322711Y-100019685D01*
X150179853Y-99091114D02*
X149679853Y-99091114D01*
X149679853Y-99876828D02*
X149679853Y-98376828D01*
X149679853Y-98376828D02*
X150394139Y-98376828D01*
X151536996Y-99805400D02*
X151394139Y-99876828D01*
X151394139Y-99876828D02*
X151108425Y-99876828D01*
X151108425Y-99876828D02*
X150965567Y-99805400D01*
X150965567Y-99805400D02*
X150894139Y-99662542D01*
X150894139Y-99662542D02*
X150894139Y-99091114D01*
X150894139Y-99091114D02*
X150965567Y-98948257D01*
X150965567Y-98948257D02*
X151108425Y-98876828D01*
X151108425Y-98876828D02*
X151394139Y-98876828D01*
X151394139Y-98876828D02*
X151536996Y-98948257D01*
X151536996Y-98948257D02*
X151608425Y-99091114D01*
X151608425Y-99091114D02*
X151608425Y-99233971D01*
X151608425Y-99233971D02*
X150894139Y-99376828D01*
X152894139Y-99876828D02*
X152894139Y-99091114D01*
X152894139Y-99091114D02*
X152822710Y-98948257D01*
X152822710Y-98948257D02*
X152679853Y-98876828D01*
X152679853Y-98876828D02*
X152394139Y-98876828D01*
X152394139Y-98876828D02*
X152251281Y-98948257D01*
X152894139Y-99805400D02*
X152751281Y-99876828D01*
X152751281Y-99876828D02*
X152394139Y-99876828D01*
X152394139Y-99876828D02*
X152251281Y-99805400D01*
X152251281Y-99805400D02*
X152179853Y-99662542D01*
X152179853Y-99662542D02*
X152179853Y-99519685D01*
X152179853Y-99519685D02*
X152251281Y-99376828D01*
X152251281Y-99376828D02*
X152394139Y-99305400D01*
X152394139Y-99305400D02*
X152751281Y-99305400D01*
X152751281Y-99305400D02*
X152894139Y-99233971D01*
X153394139Y-98876828D02*
X153965567Y-98876828D01*
X153608424Y-98376828D02*
X153608424Y-99662542D01*
X153608424Y-99662542D02*
X153679853Y-99805400D01*
X153679853Y-99805400D02*
X153822710Y-99876828D01*
X153822710Y-99876828D02*
X153965567Y-99876828D01*
X154465567Y-99876828D02*
X154465567Y-98376828D01*
X155108425Y-99876828D02*
X155108425Y-99091114D01*
X155108425Y-99091114D02*
X155036996Y-98948257D01*
X155036996Y-98948257D02*
X154894139Y-98876828D01*
X154894139Y-98876828D02*
X154679853Y-98876828D01*
X154679853Y-98876828D02*
X154536996Y-98948257D01*
X154536996Y-98948257D02*
X154465567Y-99019685D01*
X156394139Y-99805400D02*
X156251282Y-99876828D01*
X156251282Y-99876828D02*
X155965568Y-99876828D01*
X155965568Y-99876828D02*
X155822710Y-99805400D01*
X155822710Y-99805400D02*
X155751282Y-99662542D01*
X155751282Y-99662542D02*
X155751282Y-99091114D01*
X155751282Y-99091114D02*
X155822710Y-98948257D01*
X155822710Y-98948257D02*
X155965568Y-98876828D01*
X155965568Y-98876828D02*
X156251282Y-98876828D01*
X156251282Y-98876828D02*
X156394139Y-98948257D01*
X156394139Y-98948257D02*
X156465568Y-99091114D01*
X156465568Y-99091114D02*
X156465568Y-99233971D01*
X156465568Y-99233971D02*
X155751282Y-99376828D01*
X157108424Y-99876828D02*
X157108424Y-98876828D01*
X157108424Y-99162542D02*
X157179853Y-99019685D01*
X157179853Y-99019685D02*
X157251282Y-98948257D01*
X157251282Y-98948257D02*
X157394139Y-98876828D01*
X157394139Y-98876828D02*
X157536996Y-98876828D01*
X157679853Y-100019685D02*
X158822710Y-100019685D01*
X159179852Y-99876828D02*
X159179852Y-98376828D01*
X159179852Y-99091114D02*
X160036995Y-99091114D01*
X160036995Y-99876828D02*
X160036995Y-98376828D01*
X161394139Y-98876828D02*
X161394139Y-99876828D01*
X160751281Y-98876828D02*
X160751281Y-99662542D01*
X160751281Y-99662542D02*
X160822710Y-99805400D01*
X160822710Y-99805400D02*
X160965567Y-99876828D01*
X160965567Y-99876828D02*
X161179853Y-99876828D01*
X161179853Y-99876828D02*
X161322710Y-99805400D01*
X161322710Y-99805400D02*
X161394139Y-99733971D01*
X161965567Y-98876828D02*
X162751282Y-98876828D01*
X162751282Y-98876828D02*
X161965567Y-99876828D01*
X161965567Y-99876828D02*
X162751282Y-99876828D01*
X163179853Y-98876828D02*
X163965568Y-98876828D01*
X163965568Y-98876828D02*
X163179853Y-99876828D01*
X163179853Y-99876828D02*
X163965568Y-99876828D01*
X165179854Y-99876828D02*
X165179854Y-99091114D01*
X165179854Y-99091114D02*
X165108425Y-98948257D01*
X165108425Y-98948257D02*
X164965568Y-98876828D01*
X164965568Y-98876828D02*
X164679854Y-98876828D01*
X164679854Y-98876828D02*
X164536996Y-98948257D01*
X165179854Y-99805400D02*
X165036996Y-99876828D01*
X165036996Y-99876828D02*
X164679854Y-99876828D01*
X164679854Y-99876828D02*
X164536996Y-99805400D01*
X164536996Y-99805400D02*
X164465568Y-99662542D01*
X164465568Y-99662542D02*
X164465568Y-99519685D01*
X164465568Y-99519685D02*
X164536996Y-99376828D01*
X164536996Y-99376828D02*
X164679854Y-99305400D01*
X164679854Y-99305400D02*
X165036996Y-99305400D01*
X165036996Y-99305400D02*
X165179854Y-99233971D01*
X165894139Y-99876828D02*
X165894139Y-98376828D01*
X166536997Y-99876828D02*
X166536997Y-99091114D01*
X166536997Y-99091114D02*
X166465568Y-98948257D01*
X166465568Y-98948257D02*
X166322711Y-98876828D01*
X166322711Y-98876828D02*
X166108425Y-98876828D01*
X166108425Y-98876828D02*
X165965568Y-98948257D01*
X165965568Y-98948257D02*
X165894139Y-99019685D01*
X166894140Y-100019685D02*
X168036997Y-100019685D01*
X168394139Y-99091114D02*
X168894139Y-99091114D01*
X169108425Y-99876828D02*
X168394139Y-99876828D01*
X168394139Y-99876828D02*
X168394139Y-98376828D01*
X168394139Y-98376828D02*
X169108425Y-98376828D01*
X169679854Y-99805400D02*
X169894140Y-99876828D01*
X169894140Y-99876828D02*
X170251282Y-99876828D01*
X170251282Y-99876828D02*
X170394140Y-99805400D01*
X170394140Y-99805400D02*
X170465568Y-99733971D01*
X170465568Y-99733971D02*
X170536997Y-99591114D01*
X170536997Y-99591114D02*
X170536997Y-99448257D01*
X170536997Y-99448257D02*
X170465568Y-99305400D01*
X170465568Y-99305400D02*
X170394140Y-99233971D01*
X170394140Y-99233971D02*
X170251282Y-99162542D01*
X170251282Y-99162542D02*
X169965568Y-99091114D01*
X169965568Y-99091114D02*
X169822711Y-99019685D01*
X169822711Y-99019685D02*
X169751282Y-98948257D01*
X169751282Y-98948257D02*
X169679854Y-98805400D01*
X169679854Y-98805400D02*
X169679854Y-98662542D01*
X169679854Y-98662542D02*
X169751282Y-98519685D01*
X169751282Y-98519685D02*
X169822711Y-98448257D01*
X169822711Y-98448257D02*
X169965568Y-98376828D01*
X169965568Y-98376828D02*
X170322711Y-98376828D01*
X170322711Y-98376828D02*
X170536997Y-98448257D01*
X171179853Y-99876828D02*
X171179853Y-98376828D01*
X171179853Y-98376828D02*
X171751282Y-98376828D01*
X171751282Y-98376828D02*
X171894139Y-98448257D01*
X171894139Y-98448257D02*
X171965568Y-98519685D01*
X171965568Y-98519685D02*
X172036996Y-98662542D01*
X172036996Y-98662542D02*
X172036996Y-98876828D01*
X172036996Y-98876828D02*
X171965568Y-99019685D01*
X171965568Y-99019685D02*
X171894139Y-99091114D01*
X171894139Y-99091114D02*
X171751282Y-99162542D01*
X171751282Y-99162542D02*
X171179853Y-99162542D01*
X172536996Y-98376828D02*
X173465568Y-98376828D01*
X173465568Y-98376828D02*
X172965568Y-98948257D01*
X172965568Y-98948257D02*
X173179853Y-98948257D01*
X173179853Y-98948257D02*
X173322711Y-99019685D01*
X173322711Y-99019685D02*
X173394139Y-99091114D01*
X173394139Y-99091114D02*
X173465568Y-99233971D01*
X173465568Y-99233971D02*
X173465568Y-99591114D01*
X173465568Y-99591114D02*
X173394139Y-99733971D01*
X173394139Y-99733971D02*
X173322711Y-99805400D01*
X173322711Y-99805400D02*
X173179853Y-99876828D01*
X173179853Y-99876828D02*
X172751282Y-99876828D01*
X172751282Y-99876828D02*
X172608425Y-99805400D01*
X172608425Y-99805400D02*
X172536996Y-99733971D01*
X174036996Y-98519685D02*
X174108424Y-98448257D01*
X174108424Y-98448257D02*
X174251282Y-98376828D01*
X174251282Y-98376828D02*
X174608424Y-98376828D01*
X174608424Y-98376828D02*
X174751282Y-98448257D01*
X174751282Y-98448257D02*
X174822710Y-98519685D01*
X174822710Y-98519685D02*
X174894139Y-98662542D01*
X174894139Y-98662542D02*
X174894139Y-98805400D01*
X174894139Y-98805400D02*
X174822710Y-99019685D01*
X174822710Y-99019685D02*
X173965567Y-99876828D01*
X173965567Y-99876828D02*
X174894139Y-99876828D01*
D14*
X103332551Y-137617495D02*
X104403979Y-142617495D01*
X104403979Y-142617495D02*
X105261122Y-139046066D01*
X105261122Y-139046066D02*
X106118265Y-142617495D01*
X106118265Y-142617495D02*
X107189694Y-137617495D01*
X108903979Y-142617495D02*
X108903979Y-139284161D01*
X108903979Y-137617495D02*
X108689693Y-137855590D01*
X108689693Y-137855590D02*
X108903979Y-138093685D01*
X108903979Y-138093685D02*
X109118265Y-137855590D01*
X109118265Y-137855590D02*
X108903979Y-137617495D01*
X108903979Y-137617495D02*
X108903979Y-138093685D01*
X111046836Y-139284161D02*
X111046836Y-142617495D01*
X111046836Y-139760352D02*
X111261122Y-139522257D01*
X111261122Y-139522257D02*
X111689693Y-139284161D01*
X111689693Y-139284161D02*
X112332550Y-139284161D01*
X112332550Y-139284161D02*
X112761122Y-139522257D01*
X112761122Y-139522257D02*
X112975408Y-139998447D01*
X112975408Y-139998447D02*
X112975408Y-142617495D01*
X117046837Y-142617495D02*
X117046837Y-137617495D01*
X117046837Y-142379400D02*
X116618265Y-142617495D01*
X116618265Y-142617495D02*
X115761122Y-142617495D01*
X115761122Y-142617495D02*
X115332551Y-142379400D01*
X115332551Y-142379400D02*
X115118265Y-142141304D01*
X115118265Y-142141304D02*
X114903979Y-141665114D01*
X114903979Y-141665114D02*
X114903979Y-140236542D01*
X114903979Y-140236542D02*
X115118265Y-139760352D01*
X115118265Y-139760352D02*
X115332551Y-139522257D01*
X115332551Y-139522257D02*
X115761122Y-139284161D01*
X115761122Y-139284161D02*
X116618265Y-139284161D01*
X116618265Y-139284161D02*
X117046837Y-139522257D01*
X119832551Y-142617495D02*
X119403980Y-142379400D01*
X119403980Y-142379400D02*
X119189694Y-142141304D01*
X119189694Y-142141304D02*
X118975408Y-141665114D01*
X118975408Y-141665114D02*
X118975408Y-140236542D01*
X118975408Y-140236542D02*
X119189694Y-139760352D01*
X119189694Y-139760352D02*
X119403980Y-139522257D01*
X119403980Y-139522257D02*
X119832551Y-139284161D01*
X119832551Y-139284161D02*
X120475408Y-139284161D01*
X120475408Y-139284161D02*
X120903980Y-139522257D01*
X120903980Y-139522257D02*
X121118266Y-139760352D01*
X121118266Y-139760352D02*
X121332551Y-140236542D01*
X121332551Y-140236542D02*
X121332551Y-141665114D01*
X121332551Y-141665114D02*
X121118266Y-142141304D01*
X121118266Y-142141304D02*
X120903980Y-142379400D01*
X120903980Y-142379400D02*
X120475408Y-142617495D01*
X120475408Y-142617495D02*
X119832551Y-142617495D01*
X122832552Y-139284161D02*
X123689695Y-142617495D01*
X123689695Y-142617495D02*
X124546837Y-140236542D01*
X124546837Y-140236542D02*
X125403980Y-142617495D01*
X125403980Y-142617495D02*
X126261123Y-139284161D01*
X130975409Y-137617495D02*
X132046837Y-142617495D01*
X132046837Y-142617495D02*
X132903980Y-139046066D01*
X132903980Y-139046066D02*
X133761123Y-142617495D01*
X133761123Y-142617495D02*
X134832552Y-137617495D01*
X138261123Y-142379400D02*
X137832551Y-142617495D01*
X137832551Y-142617495D02*
X136975409Y-142617495D01*
X136975409Y-142617495D02*
X136546837Y-142379400D01*
X136546837Y-142379400D02*
X136332551Y-141903209D01*
X136332551Y-141903209D02*
X136332551Y-139998447D01*
X136332551Y-139998447D02*
X136546837Y-139522257D01*
X136546837Y-139522257D02*
X136975409Y-139284161D01*
X136975409Y-139284161D02*
X137832551Y-139284161D01*
X137832551Y-139284161D02*
X138261123Y-139522257D01*
X138261123Y-139522257D02*
X138475409Y-139998447D01*
X138475409Y-139998447D02*
X138475409Y-140474638D01*
X138475409Y-140474638D02*
X136332551Y-140950828D01*
X142332552Y-142617495D02*
X142332552Y-139998447D01*
X142332552Y-139998447D02*
X142118266Y-139522257D01*
X142118266Y-139522257D02*
X141689694Y-139284161D01*
X141689694Y-139284161D02*
X140832552Y-139284161D01*
X140832552Y-139284161D02*
X140403980Y-139522257D01*
X142332552Y-142379400D02*
X141903980Y-142617495D01*
X141903980Y-142617495D02*
X140832552Y-142617495D01*
X140832552Y-142617495D02*
X140403980Y-142379400D01*
X140403980Y-142379400D02*
X140189694Y-141903209D01*
X140189694Y-141903209D02*
X140189694Y-141427019D01*
X140189694Y-141427019D02*
X140403980Y-140950828D01*
X140403980Y-140950828D02*
X140832552Y-140712733D01*
X140832552Y-140712733D02*
X141903980Y-140712733D01*
X141903980Y-140712733D02*
X142332552Y-140474638D01*
X143832552Y-139284161D02*
X145546838Y-139284161D01*
X144475409Y-137617495D02*
X144475409Y-141903209D01*
X144475409Y-141903209D02*
X144689695Y-142379400D01*
X144689695Y-142379400D02*
X145118266Y-142617495D01*
X145118266Y-142617495D02*
X145546838Y-142617495D01*
X147046838Y-142617495D02*
X147046838Y-137617495D01*
X148975410Y-142617495D02*
X148975410Y-139998447D01*
X148975410Y-139998447D02*
X148761124Y-139522257D01*
X148761124Y-139522257D02*
X148332552Y-139284161D01*
X148332552Y-139284161D02*
X147689695Y-139284161D01*
X147689695Y-139284161D02*
X147261124Y-139522257D01*
X147261124Y-139522257D02*
X147046838Y-139760352D01*
X152832553Y-142379400D02*
X152403981Y-142617495D01*
X152403981Y-142617495D02*
X151546839Y-142617495D01*
X151546839Y-142617495D02*
X151118267Y-142379400D01*
X151118267Y-142379400D02*
X150903981Y-141903209D01*
X150903981Y-141903209D02*
X150903981Y-139998447D01*
X150903981Y-139998447D02*
X151118267Y-139522257D01*
X151118267Y-139522257D02*
X151546839Y-139284161D01*
X151546839Y-139284161D02*
X152403981Y-139284161D01*
X152403981Y-139284161D02*
X152832553Y-139522257D01*
X152832553Y-139522257D02*
X153046839Y-139998447D01*
X153046839Y-139998447D02*
X153046839Y-140474638D01*
X153046839Y-140474638D02*
X150903981Y-140950828D01*
X154975410Y-142617495D02*
X154975410Y-139284161D01*
X154975410Y-140236542D02*
X155189696Y-139760352D01*
X155189696Y-139760352D02*
X155403982Y-139522257D01*
X155403982Y-139522257D02*
X155832553Y-139284161D01*
X155832553Y-139284161D02*
X156261124Y-139284161D01*
X161189695Y-142617495D02*
X161189695Y-137617495D01*
X161189695Y-137617495D02*
X162689695Y-141188923D01*
X162689695Y-141188923D02*
X164189695Y-137617495D01*
X164189695Y-137617495D02*
X164189695Y-142617495D01*
X166975409Y-142617495D02*
X166546838Y-142379400D01*
X166546838Y-142379400D02*
X166332552Y-142141304D01*
X166332552Y-142141304D02*
X166118266Y-141665114D01*
X166118266Y-141665114D02*
X166118266Y-140236542D01*
X166118266Y-140236542D02*
X166332552Y-139760352D01*
X166332552Y-139760352D02*
X166546838Y-139522257D01*
X166546838Y-139522257D02*
X166975409Y-139284161D01*
X166975409Y-139284161D02*
X167618266Y-139284161D01*
X167618266Y-139284161D02*
X168046838Y-139522257D01*
X168046838Y-139522257D02*
X168261124Y-139760352D01*
X168261124Y-139760352D02*
X168475409Y-140236542D01*
X168475409Y-140236542D02*
X168475409Y-141665114D01*
X168475409Y-141665114D02*
X168261124Y-142141304D01*
X168261124Y-142141304D02*
X168046838Y-142379400D01*
X168046838Y-142379400D02*
X167618266Y-142617495D01*
X167618266Y-142617495D02*
X166975409Y-142617495D01*
X170403981Y-139284161D02*
X170403981Y-142617495D01*
X170403981Y-139760352D02*
X170618267Y-139522257D01*
X170618267Y-139522257D02*
X171046838Y-139284161D01*
X171046838Y-139284161D02*
X171689695Y-139284161D01*
X171689695Y-139284161D02*
X172118267Y-139522257D01*
X172118267Y-139522257D02*
X172332553Y-139998447D01*
X172332553Y-139998447D02*
X172332553Y-142617495D01*
X174475410Y-142617495D02*
X174475410Y-139284161D01*
X174475410Y-137617495D02*
X174261124Y-137855590D01*
X174261124Y-137855590D02*
X174475410Y-138093685D01*
X174475410Y-138093685D02*
X174689696Y-137855590D01*
X174689696Y-137855590D02*
X174475410Y-137617495D01*
X174475410Y-137617495D02*
X174475410Y-138093685D01*
X175975410Y-139284161D02*
X177689696Y-139284161D01*
X176618267Y-137617495D02*
X176618267Y-141903209D01*
X176618267Y-141903209D02*
X176832553Y-142379400D01*
X176832553Y-142379400D02*
X177261124Y-142617495D01*
X177261124Y-142617495D02*
X177689696Y-142617495D01*
X179832553Y-142617495D02*
X179403982Y-142379400D01*
X179403982Y-142379400D02*
X179189696Y-142141304D01*
X179189696Y-142141304D02*
X178975410Y-141665114D01*
X178975410Y-141665114D02*
X178975410Y-140236542D01*
X178975410Y-140236542D02*
X179189696Y-139760352D01*
X179189696Y-139760352D02*
X179403982Y-139522257D01*
X179403982Y-139522257D02*
X179832553Y-139284161D01*
X179832553Y-139284161D02*
X180475410Y-139284161D01*
X180475410Y-139284161D02*
X180903982Y-139522257D01*
X180903982Y-139522257D02*
X181118268Y-139760352D01*
X181118268Y-139760352D02*
X181332553Y-140236542D01*
X181332553Y-140236542D02*
X181332553Y-141665114D01*
X181332553Y-141665114D02*
X181118268Y-142141304D01*
X181118268Y-142141304D02*
X180903982Y-142379400D01*
X180903982Y-142379400D02*
X180475410Y-142617495D01*
X180475410Y-142617495D02*
X179832553Y-142617495D01*
X183261125Y-142617495D02*
X183261125Y-139284161D01*
X183261125Y-140236542D02*
X183475411Y-139760352D01*
X183475411Y-139760352D02*
X183689697Y-139522257D01*
X183689697Y-139522257D02*
X184118268Y-139284161D01*
X184118268Y-139284161D02*
X184546839Y-139284161D01*
D11*
X86612796Y-144733228D02*
X85898510Y-144733228D01*
X85898510Y-144733228D02*
X85898510Y-143233228D01*
X87112796Y-144733228D02*
X87112796Y-143233228D01*
X87112796Y-143233228D02*
X87612796Y-144304657D01*
X87612796Y-144304657D02*
X88112796Y-143233228D01*
X88112796Y-143233228D02*
X88112796Y-144733228D01*
X88684225Y-143233228D02*
X89612797Y-143233228D01*
X89612797Y-143233228D02*
X89112797Y-143804657D01*
X89112797Y-143804657D02*
X89327082Y-143804657D01*
X89327082Y-143804657D02*
X89469940Y-143876085D01*
X89469940Y-143876085D02*
X89541368Y-143947514D01*
X89541368Y-143947514D02*
X89612797Y-144090371D01*
X89612797Y-144090371D02*
X89612797Y-144447514D01*
X89612797Y-144447514D02*
X89541368Y-144590371D01*
X89541368Y-144590371D02*
X89469940Y-144661800D01*
X89469940Y-144661800D02*
X89327082Y-144733228D01*
X89327082Y-144733228D02*
X88898511Y-144733228D01*
X88898511Y-144733228D02*
X88755654Y-144661800D01*
X88755654Y-144661800D02*
X88684225Y-144590371D01*
X90327082Y-144733228D02*
X90612796Y-144733228D01*
X90612796Y-144733228D02*
X90755653Y-144661800D01*
X90755653Y-144661800D02*
X90827082Y-144590371D01*
X90827082Y-144590371D02*
X90969939Y-144376085D01*
X90969939Y-144376085D02*
X91041368Y-144090371D01*
X91041368Y-144090371D02*
X91041368Y-143518942D01*
X91041368Y-143518942D02*
X90969939Y-143376085D01*
X90969939Y-143376085D02*
X90898511Y-143304657D01*
X90898511Y-143304657D02*
X90755653Y-143233228D01*
X90755653Y-143233228D02*
X90469939Y-143233228D01*
X90469939Y-143233228D02*
X90327082Y-143304657D01*
X90327082Y-143304657D02*
X90255653Y-143376085D01*
X90255653Y-143376085D02*
X90184225Y-143518942D01*
X90184225Y-143518942D02*
X90184225Y-143876085D01*
X90184225Y-143876085D02*
X90255653Y-144018942D01*
X90255653Y-144018942D02*
X90327082Y-144090371D01*
X90327082Y-144090371D02*
X90469939Y-144161800D01*
X90469939Y-144161800D02*
X90755653Y-144161800D01*
X90755653Y-144161800D02*
X90898511Y-144090371D01*
X90898511Y-144090371D02*
X90969939Y-144018942D01*
X90969939Y-144018942D02*
X91041368Y-143876085D01*
X91541367Y-143233228D02*
X92469939Y-143233228D01*
X92469939Y-143233228D02*
X91969939Y-143804657D01*
X91969939Y-143804657D02*
X92184224Y-143804657D01*
X92184224Y-143804657D02*
X92327082Y-143876085D01*
X92327082Y-143876085D02*
X92398510Y-143947514D01*
X92398510Y-143947514D02*
X92469939Y-144090371D01*
X92469939Y-144090371D02*
X92469939Y-144447514D01*
X92469939Y-144447514D02*
X92398510Y-144590371D01*
X92398510Y-144590371D02*
X92327082Y-144661800D01*
X92327082Y-144661800D02*
X92184224Y-144733228D01*
X92184224Y-144733228D02*
X91755653Y-144733228D01*
X91755653Y-144733228D02*
X91612796Y-144661800D01*
X91612796Y-144661800D02*
X91541367Y-144590371D01*
D12*
X198569342Y-89017019D02*
X198236009Y-88540828D01*
X197997914Y-89017019D02*
X197997914Y-88017019D01*
X197997914Y-88017019D02*
X198378866Y-88017019D01*
X198378866Y-88017019D02*
X198474104Y-88064638D01*
X198474104Y-88064638D02*
X198521723Y-88112257D01*
X198521723Y-88112257D02*
X198569342Y-88207495D01*
X198569342Y-88207495D02*
X198569342Y-88350352D01*
X198569342Y-88350352D02*
X198521723Y-88445590D01*
X198521723Y-88445590D02*
X198474104Y-88493209D01*
X198474104Y-88493209D02*
X198378866Y-88540828D01*
X198378866Y-88540828D02*
X197997914Y-88540828D01*
X199521723Y-89017019D02*
X198950295Y-89017019D01*
X199236009Y-89017019D02*
X199236009Y-88017019D01*
X199236009Y-88017019D02*
X199140771Y-88159876D01*
X199140771Y-88159876D02*
X199045533Y-88255114D01*
X199045533Y-88255114D02*
X198950295Y-88302733D01*
X200140771Y-88017019D02*
X200236009Y-88017019D01*
X200236009Y-88017019D02*
X200331247Y-88064638D01*
X200331247Y-88064638D02*
X200378866Y-88112257D01*
X200378866Y-88112257D02*
X200426485Y-88207495D01*
X200426485Y-88207495D02*
X200474104Y-88397971D01*
X200474104Y-88397971D02*
X200474104Y-88636066D01*
X200474104Y-88636066D02*
X200426485Y-88826542D01*
X200426485Y-88826542D02*
X200378866Y-88921780D01*
X200378866Y-88921780D02*
X200331247Y-88969400D01*
X200331247Y-88969400D02*
X200236009Y-89017019D01*
X200236009Y-89017019D02*
X200140771Y-89017019D01*
X200140771Y-89017019D02*
X200045533Y-88969400D01*
X200045533Y-88969400D02*
X199997914Y-88921780D01*
X199997914Y-88921780D02*
X199950295Y-88826542D01*
X199950295Y-88826542D02*
X199902676Y-88636066D01*
X199902676Y-88636066D02*
X199902676Y-88397971D01*
X199902676Y-88397971D02*
X199950295Y-88207495D01*
X199950295Y-88207495D02*
X199997914Y-88112257D01*
X199997914Y-88112257D02*
X200045533Y-88064638D01*
X200045533Y-88064638D02*
X200140771Y-88017019D01*
X84040742Y-76756419D02*
X83707409Y-76280228D01*
X83469314Y-76756419D02*
X83469314Y-75756419D01*
X83469314Y-75756419D02*
X83850266Y-75756419D01*
X83850266Y-75756419D02*
X83945504Y-75804038D01*
X83945504Y-75804038D02*
X83993123Y-75851657D01*
X83993123Y-75851657D02*
X84040742Y-75946895D01*
X84040742Y-75946895D02*
X84040742Y-76089752D01*
X84040742Y-76089752D02*
X83993123Y-76184990D01*
X83993123Y-76184990D02*
X83945504Y-76232609D01*
X83945504Y-76232609D02*
X83850266Y-76280228D01*
X83850266Y-76280228D02*
X83469314Y-76280228D01*
X84421695Y-75851657D02*
X84469314Y-75804038D01*
X84469314Y-75804038D02*
X84564552Y-75756419D01*
X84564552Y-75756419D02*
X84802647Y-75756419D01*
X84802647Y-75756419D02*
X84897885Y-75804038D01*
X84897885Y-75804038D02*
X84945504Y-75851657D01*
X84945504Y-75851657D02*
X84993123Y-75946895D01*
X84993123Y-75946895D02*
X84993123Y-76042133D01*
X84993123Y-76042133D02*
X84945504Y-76184990D01*
X84945504Y-76184990D02*
X84374076Y-76756419D01*
X84374076Y-76756419D02*
X84993123Y-76756419D01*
X85897885Y-75756419D02*
X85421695Y-75756419D01*
X85421695Y-75756419D02*
X85374076Y-76232609D01*
X85374076Y-76232609D02*
X85421695Y-76184990D01*
X85421695Y-76184990D02*
X85516933Y-76137371D01*
X85516933Y-76137371D02*
X85755028Y-76137371D01*
X85755028Y-76137371D02*
X85850266Y-76184990D01*
X85850266Y-76184990D02*
X85897885Y-76232609D01*
X85897885Y-76232609D02*
X85945504Y-76327847D01*
X85945504Y-76327847D02*
X85945504Y-76565942D01*
X85945504Y-76565942D02*
X85897885Y-76661180D01*
X85897885Y-76661180D02*
X85850266Y-76708800D01*
X85850266Y-76708800D02*
X85755028Y-76756419D01*
X85755028Y-76756419D02*
X85516933Y-76756419D01*
X85516933Y-76756419D02*
X85421695Y-76708800D01*
X85421695Y-76708800D02*
X85374076Y-76661180D01*
X54500542Y-95247619D02*
X54167209Y-94771428D01*
X53929114Y-95247619D02*
X53929114Y-94247619D01*
X53929114Y-94247619D02*
X54310066Y-94247619D01*
X54310066Y-94247619D02*
X54405304Y-94295238D01*
X54405304Y-94295238D02*
X54452923Y-94342857D01*
X54452923Y-94342857D02*
X54500542Y-94438095D01*
X54500542Y-94438095D02*
X54500542Y-94580952D01*
X54500542Y-94580952D02*
X54452923Y-94676190D01*
X54452923Y-94676190D02*
X54405304Y-94723809D01*
X54405304Y-94723809D02*
X54310066Y-94771428D01*
X54310066Y-94771428D02*
X53929114Y-94771428D01*
X54881495Y-94342857D02*
X54929114Y-94295238D01*
X54929114Y-94295238D02*
X55024352Y-94247619D01*
X55024352Y-94247619D02*
X55262447Y-94247619D01*
X55262447Y-94247619D02*
X55357685Y-94295238D01*
X55357685Y-94295238D02*
X55405304Y-94342857D01*
X55405304Y-94342857D02*
X55452923Y-94438095D01*
X55452923Y-94438095D02*
X55452923Y-94533333D01*
X55452923Y-94533333D02*
X55405304Y-94676190D01*
X55405304Y-94676190D02*
X54833876Y-95247619D01*
X54833876Y-95247619D02*
X55452923Y-95247619D01*
X56310066Y-94247619D02*
X56119590Y-94247619D01*
X56119590Y-94247619D02*
X56024352Y-94295238D01*
X56024352Y-94295238D02*
X55976733Y-94342857D01*
X55976733Y-94342857D02*
X55881495Y-94485714D01*
X55881495Y-94485714D02*
X55833876Y-94676190D01*
X55833876Y-94676190D02*
X55833876Y-95057142D01*
X55833876Y-95057142D02*
X55881495Y-95152380D01*
X55881495Y-95152380D02*
X55929114Y-95200000D01*
X55929114Y-95200000D02*
X56024352Y-95247619D01*
X56024352Y-95247619D02*
X56214828Y-95247619D01*
X56214828Y-95247619D02*
X56310066Y-95200000D01*
X56310066Y-95200000D02*
X56357685Y-95152380D01*
X56357685Y-95152380D02*
X56405304Y-95057142D01*
X56405304Y-95057142D02*
X56405304Y-94819047D01*
X56405304Y-94819047D02*
X56357685Y-94723809D01*
X56357685Y-94723809D02*
X56310066Y-94676190D01*
X56310066Y-94676190D02*
X56214828Y-94628571D01*
X56214828Y-94628571D02*
X56024352Y-94628571D01*
X56024352Y-94628571D02*
X55929114Y-94676190D01*
X55929114Y-94676190D02*
X55881495Y-94723809D01*
X55881495Y-94723809D02*
X55833876Y-94819047D01*
X64603333Y-129537619D02*
X64270000Y-129061428D01*
X64031905Y-129537619D02*
X64031905Y-128537619D01*
X64031905Y-128537619D02*
X64412857Y-128537619D01*
X64412857Y-128537619D02*
X64508095Y-128585238D01*
X64508095Y-128585238D02*
X64555714Y-128632857D01*
X64555714Y-128632857D02*
X64603333Y-128728095D01*
X64603333Y-128728095D02*
X64603333Y-128870952D01*
X64603333Y-128870952D02*
X64555714Y-128966190D01*
X64555714Y-128966190D02*
X64508095Y-129013809D01*
X64508095Y-129013809D02*
X64412857Y-129061428D01*
X64412857Y-129061428D02*
X64031905Y-129061428D01*
X65555714Y-129537619D02*
X64984286Y-129537619D01*
X65270000Y-129537619D02*
X65270000Y-128537619D01*
X65270000Y-128537619D02*
X65174762Y-128680476D01*
X65174762Y-128680476D02*
X65079524Y-128775714D01*
X65079524Y-128775714D02*
X64984286Y-128823333D01*
X149140942Y-75486419D02*
X148807609Y-75010228D01*
X148569514Y-75486419D02*
X148569514Y-74486419D01*
X148569514Y-74486419D02*
X148950466Y-74486419D01*
X148950466Y-74486419D02*
X149045704Y-74534038D01*
X149045704Y-74534038D02*
X149093323Y-74581657D01*
X149093323Y-74581657D02*
X149140942Y-74676895D01*
X149140942Y-74676895D02*
X149140942Y-74819752D01*
X149140942Y-74819752D02*
X149093323Y-74914990D01*
X149093323Y-74914990D02*
X149045704Y-74962609D01*
X149045704Y-74962609D02*
X148950466Y-75010228D01*
X148950466Y-75010228D02*
X148569514Y-75010228D01*
X150093323Y-75486419D02*
X149521895Y-75486419D01*
X149807609Y-75486419D02*
X149807609Y-74486419D01*
X149807609Y-74486419D02*
X149712371Y-74629276D01*
X149712371Y-74629276D02*
X149617133Y-74724514D01*
X149617133Y-74724514D02*
X149521895Y-74772133D01*
X151045704Y-75486419D02*
X150474276Y-75486419D01*
X150759990Y-75486419D02*
X150759990Y-74486419D01*
X150759990Y-74486419D02*
X150664752Y-74629276D01*
X150664752Y-74629276D02*
X150569514Y-74724514D01*
X150569514Y-74724514D02*
X150474276Y-74772133D01*
X60698142Y-86103619D02*
X60364809Y-85627428D01*
X60126714Y-86103619D02*
X60126714Y-85103619D01*
X60126714Y-85103619D02*
X60507666Y-85103619D01*
X60507666Y-85103619D02*
X60602904Y-85151238D01*
X60602904Y-85151238D02*
X60650523Y-85198857D01*
X60650523Y-85198857D02*
X60698142Y-85294095D01*
X60698142Y-85294095D02*
X60698142Y-85436952D01*
X60698142Y-85436952D02*
X60650523Y-85532190D01*
X60650523Y-85532190D02*
X60602904Y-85579809D01*
X60602904Y-85579809D02*
X60507666Y-85627428D01*
X60507666Y-85627428D02*
X60126714Y-85627428D01*
X61079095Y-85198857D02*
X61126714Y-85151238D01*
X61126714Y-85151238D02*
X61221952Y-85103619D01*
X61221952Y-85103619D02*
X61460047Y-85103619D01*
X61460047Y-85103619D02*
X61555285Y-85151238D01*
X61555285Y-85151238D02*
X61602904Y-85198857D01*
X61602904Y-85198857D02*
X61650523Y-85294095D01*
X61650523Y-85294095D02*
X61650523Y-85389333D01*
X61650523Y-85389333D02*
X61602904Y-85532190D01*
X61602904Y-85532190D02*
X61031476Y-86103619D01*
X61031476Y-86103619D02*
X61650523Y-86103619D01*
X62221952Y-85532190D02*
X62126714Y-85484571D01*
X62126714Y-85484571D02*
X62079095Y-85436952D01*
X62079095Y-85436952D02*
X62031476Y-85341714D01*
X62031476Y-85341714D02*
X62031476Y-85294095D01*
X62031476Y-85294095D02*
X62079095Y-85198857D01*
X62079095Y-85198857D02*
X62126714Y-85151238D01*
X62126714Y-85151238D02*
X62221952Y-85103619D01*
X62221952Y-85103619D02*
X62412428Y-85103619D01*
X62412428Y-85103619D02*
X62507666Y-85151238D01*
X62507666Y-85151238D02*
X62555285Y-85198857D01*
X62555285Y-85198857D02*
X62602904Y-85294095D01*
X62602904Y-85294095D02*
X62602904Y-85341714D01*
X62602904Y-85341714D02*
X62555285Y-85436952D01*
X62555285Y-85436952D02*
X62507666Y-85484571D01*
X62507666Y-85484571D02*
X62412428Y-85532190D01*
X62412428Y-85532190D02*
X62221952Y-85532190D01*
X62221952Y-85532190D02*
X62126714Y-85579809D01*
X62126714Y-85579809D02*
X62079095Y-85627428D01*
X62079095Y-85627428D02*
X62031476Y-85722666D01*
X62031476Y-85722666D02*
X62031476Y-85913142D01*
X62031476Y-85913142D02*
X62079095Y-86008380D01*
X62079095Y-86008380D02*
X62126714Y-86056000D01*
X62126714Y-86056000D02*
X62221952Y-86103619D01*
X62221952Y-86103619D02*
X62412428Y-86103619D01*
X62412428Y-86103619D02*
X62507666Y-86056000D01*
X62507666Y-86056000D02*
X62555285Y-86008380D01*
X62555285Y-86008380D02*
X62602904Y-85913142D01*
X62602904Y-85913142D02*
X62602904Y-85722666D01*
X62602904Y-85722666D02*
X62555285Y-85627428D01*
X62555285Y-85627428D02*
X62507666Y-85579809D01*
X62507666Y-85579809D02*
X62412428Y-85532190D01*
X75239714Y-64996219D02*
X75239714Y-63996219D01*
X75239714Y-63996219D02*
X75477809Y-63996219D01*
X75477809Y-63996219D02*
X75620666Y-64043838D01*
X75620666Y-64043838D02*
X75715904Y-64139076D01*
X75715904Y-64139076D02*
X75763523Y-64234314D01*
X75763523Y-64234314D02*
X75811142Y-64424790D01*
X75811142Y-64424790D02*
X75811142Y-64567647D01*
X75811142Y-64567647D02*
X75763523Y-64758123D01*
X75763523Y-64758123D02*
X75715904Y-64853361D01*
X75715904Y-64853361D02*
X75620666Y-64948600D01*
X75620666Y-64948600D02*
X75477809Y-64996219D01*
X75477809Y-64996219D02*
X75239714Y-64996219D01*
X76192095Y-64948600D02*
X76334952Y-64996219D01*
X76334952Y-64996219D02*
X76573047Y-64996219D01*
X76573047Y-64996219D02*
X76668285Y-64948600D01*
X76668285Y-64948600D02*
X76715904Y-64900980D01*
X76715904Y-64900980D02*
X76763523Y-64805742D01*
X76763523Y-64805742D02*
X76763523Y-64710504D01*
X76763523Y-64710504D02*
X76715904Y-64615266D01*
X76715904Y-64615266D02*
X76668285Y-64567647D01*
X76668285Y-64567647D02*
X76573047Y-64520028D01*
X76573047Y-64520028D02*
X76382571Y-64472409D01*
X76382571Y-64472409D02*
X76287333Y-64424790D01*
X76287333Y-64424790D02*
X76239714Y-64377171D01*
X76239714Y-64377171D02*
X76192095Y-64281933D01*
X76192095Y-64281933D02*
X76192095Y-64186695D01*
X76192095Y-64186695D02*
X76239714Y-64091457D01*
X76239714Y-64091457D02*
X76287333Y-64043838D01*
X76287333Y-64043838D02*
X76382571Y-63996219D01*
X76382571Y-63996219D02*
X76620666Y-63996219D01*
X76620666Y-63996219D02*
X76763523Y-64043838D01*
X77715904Y-64996219D02*
X77144476Y-64996219D01*
X77430190Y-64996219D02*
X77430190Y-63996219D01*
X77430190Y-63996219D02*
X77334952Y-64139076D01*
X77334952Y-64139076D02*
X77239714Y-64234314D01*
X77239714Y-64234314D02*
X77144476Y-64281933D01*
X86015533Y-134998619D02*
X85682200Y-134522428D01*
X85444105Y-134998619D02*
X85444105Y-133998619D01*
X85444105Y-133998619D02*
X85825057Y-133998619D01*
X85825057Y-133998619D02*
X85920295Y-134046238D01*
X85920295Y-134046238D02*
X85967914Y-134093857D01*
X85967914Y-134093857D02*
X86015533Y-134189095D01*
X86015533Y-134189095D02*
X86015533Y-134331952D01*
X86015533Y-134331952D02*
X85967914Y-134427190D01*
X85967914Y-134427190D02*
X85920295Y-134474809D01*
X85920295Y-134474809D02*
X85825057Y-134522428D01*
X85825057Y-134522428D02*
X85444105Y-134522428D01*
X86396486Y-134093857D02*
X86444105Y-134046238D01*
X86444105Y-134046238D02*
X86539343Y-133998619D01*
X86539343Y-133998619D02*
X86777438Y-133998619D01*
X86777438Y-133998619D02*
X86872676Y-134046238D01*
X86872676Y-134046238D02*
X86920295Y-134093857D01*
X86920295Y-134093857D02*
X86967914Y-134189095D01*
X86967914Y-134189095D02*
X86967914Y-134284333D01*
X86967914Y-134284333D02*
X86920295Y-134427190D01*
X86920295Y-134427190D02*
X86348867Y-134998619D01*
X86348867Y-134998619D02*
X86967914Y-134998619D01*
D10*
X60799742Y-99512219D02*
X60466409Y-99036028D01*
X60228314Y-99512219D02*
X60228314Y-98512219D01*
X60228314Y-98512219D02*
X60609266Y-98512219D01*
X60609266Y-98512219D02*
X60704504Y-98559838D01*
X60704504Y-98559838D02*
X60752123Y-98607457D01*
X60752123Y-98607457D02*
X60799742Y-98702695D01*
X60799742Y-98702695D02*
X60799742Y-98845552D01*
X60799742Y-98845552D02*
X60752123Y-98940790D01*
X60752123Y-98940790D02*
X60704504Y-98988409D01*
X60704504Y-98988409D02*
X60609266Y-99036028D01*
X60609266Y-99036028D02*
X60228314Y-99036028D01*
X61180695Y-98607457D02*
X61228314Y-98559838D01*
X61228314Y-98559838D02*
X61323552Y-98512219D01*
X61323552Y-98512219D02*
X61561647Y-98512219D01*
X61561647Y-98512219D02*
X61656885Y-98559838D01*
X61656885Y-98559838D02*
X61704504Y-98607457D01*
X61704504Y-98607457D02*
X61752123Y-98702695D01*
X61752123Y-98702695D02*
X61752123Y-98797933D01*
X61752123Y-98797933D02*
X61704504Y-98940790D01*
X61704504Y-98940790D02*
X61133076Y-99512219D01*
X61133076Y-99512219D02*
X61752123Y-99512219D01*
X62085457Y-98512219D02*
X62752123Y-98512219D01*
X62752123Y-98512219D02*
X62323552Y-99512219D01*
D12*
X205130495Y-92874619D02*
X205130495Y-93684142D01*
X205130495Y-93684142D02*
X205178114Y-93779380D01*
X205178114Y-93779380D02*
X205225733Y-93827000D01*
X205225733Y-93827000D02*
X205320971Y-93874619D01*
X205320971Y-93874619D02*
X205511447Y-93874619D01*
X205511447Y-93874619D02*
X205606685Y-93827000D01*
X205606685Y-93827000D02*
X205654304Y-93779380D01*
X205654304Y-93779380D02*
X205701923Y-93684142D01*
X205701923Y-93684142D02*
X205701923Y-92874619D01*
X206654304Y-92874619D02*
X206178114Y-92874619D01*
X206178114Y-92874619D02*
X206130495Y-93350809D01*
X206130495Y-93350809D02*
X206178114Y-93303190D01*
X206178114Y-93303190D02*
X206273352Y-93255571D01*
X206273352Y-93255571D02*
X206511447Y-93255571D01*
X206511447Y-93255571D02*
X206606685Y-93303190D01*
X206606685Y-93303190D02*
X206654304Y-93350809D01*
X206654304Y-93350809D02*
X206701923Y-93446047D01*
X206701923Y-93446047D02*
X206701923Y-93684142D01*
X206701923Y-93684142D02*
X206654304Y-93779380D01*
X206654304Y-93779380D02*
X206606685Y-93827000D01*
X206606685Y-93827000D02*
X206511447Y-93874619D01*
X206511447Y-93874619D02*
X206273352Y-93874619D01*
X206273352Y-93874619D02*
X206178114Y-93827000D01*
X206178114Y-93827000D02*
X206130495Y-93779380D01*
X153662142Y-71092219D02*
X153328809Y-70616028D01*
X153090714Y-71092219D02*
X153090714Y-70092219D01*
X153090714Y-70092219D02*
X153471666Y-70092219D01*
X153471666Y-70092219D02*
X153566904Y-70139838D01*
X153566904Y-70139838D02*
X153614523Y-70187457D01*
X153614523Y-70187457D02*
X153662142Y-70282695D01*
X153662142Y-70282695D02*
X153662142Y-70425552D01*
X153662142Y-70425552D02*
X153614523Y-70520790D01*
X153614523Y-70520790D02*
X153566904Y-70568409D01*
X153566904Y-70568409D02*
X153471666Y-70616028D01*
X153471666Y-70616028D02*
X153090714Y-70616028D01*
X154614523Y-71092219D02*
X154043095Y-71092219D01*
X154328809Y-71092219D02*
X154328809Y-70092219D01*
X154328809Y-70092219D02*
X154233571Y-70235076D01*
X154233571Y-70235076D02*
X154138333Y-70330314D01*
X154138333Y-70330314D02*
X154043095Y-70377933D01*
X155090714Y-71092219D02*
X155281190Y-71092219D01*
X155281190Y-71092219D02*
X155376428Y-71044600D01*
X155376428Y-71044600D02*
X155424047Y-70996980D01*
X155424047Y-70996980D02*
X155519285Y-70854123D01*
X155519285Y-70854123D02*
X155566904Y-70663647D01*
X155566904Y-70663647D02*
X155566904Y-70282695D01*
X155566904Y-70282695D02*
X155519285Y-70187457D01*
X155519285Y-70187457D02*
X155471666Y-70139838D01*
X155471666Y-70139838D02*
X155376428Y-70092219D01*
X155376428Y-70092219D02*
X155185952Y-70092219D01*
X155185952Y-70092219D02*
X155090714Y-70139838D01*
X155090714Y-70139838D02*
X155043095Y-70187457D01*
X155043095Y-70187457D02*
X154995476Y-70282695D01*
X154995476Y-70282695D02*
X154995476Y-70520790D01*
X154995476Y-70520790D02*
X155043095Y-70616028D01*
X155043095Y-70616028D02*
X155090714Y-70663647D01*
X155090714Y-70663647D02*
X155185952Y-70711266D01*
X155185952Y-70711266D02*
X155376428Y-70711266D01*
X155376428Y-70711266D02*
X155471666Y-70663647D01*
X155471666Y-70663647D02*
X155519285Y-70616028D01*
X155519285Y-70616028D02*
X155566904Y-70520790D01*
X151179305Y-59332019D02*
X151179305Y-58332019D01*
X151179305Y-58332019D02*
X151417400Y-58332019D01*
X151417400Y-58332019D02*
X151560257Y-58379638D01*
X151560257Y-58379638D02*
X151655495Y-58474876D01*
X151655495Y-58474876D02*
X151703114Y-58570114D01*
X151703114Y-58570114D02*
X151750733Y-58760590D01*
X151750733Y-58760590D02*
X151750733Y-58903447D01*
X151750733Y-58903447D02*
X151703114Y-59093923D01*
X151703114Y-59093923D02*
X151655495Y-59189161D01*
X151655495Y-59189161D02*
X151560257Y-59284400D01*
X151560257Y-59284400D02*
X151417400Y-59332019D01*
X151417400Y-59332019D02*
X151179305Y-59332019D01*
X152084067Y-58332019D02*
X152703114Y-58332019D01*
X152703114Y-58332019D02*
X152369781Y-58712971D01*
X152369781Y-58712971D02*
X152512638Y-58712971D01*
X152512638Y-58712971D02*
X152607876Y-58760590D01*
X152607876Y-58760590D02*
X152655495Y-58808209D01*
X152655495Y-58808209D02*
X152703114Y-58903447D01*
X152703114Y-58903447D02*
X152703114Y-59141542D01*
X152703114Y-59141542D02*
X152655495Y-59236780D01*
X152655495Y-59236780D02*
X152607876Y-59284400D01*
X152607876Y-59284400D02*
X152512638Y-59332019D01*
X152512638Y-59332019D02*
X152226924Y-59332019D01*
X152226924Y-59332019D02*
X152131686Y-59284400D01*
X152131686Y-59284400D02*
X152084067Y-59236780D01*
X151646095Y-111399219D02*
X152217523Y-111399219D01*
X151931809Y-112399219D02*
X151931809Y-111399219D01*
X152550857Y-112399219D02*
X152550857Y-111399219D01*
X152550857Y-111399219D02*
X152931809Y-111399219D01*
X152931809Y-111399219D02*
X153027047Y-111446838D01*
X153027047Y-111446838D02*
X153074666Y-111494457D01*
X153074666Y-111494457D02*
X153122285Y-111589695D01*
X153122285Y-111589695D02*
X153122285Y-111732552D01*
X153122285Y-111732552D02*
X153074666Y-111827790D01*
X153074666Y-111827790D02*
X153027047Y-111875409D01*
X153027047Y-111875409D02*
X152931809Y-111923028D01*
X152931809Y-111923028D02*
X152550857Y-111923028D01*
X153979428Y-111399219D02*
X153788952Y-111399219D01*
X153788952Y-111399219D02*
X153693714Y-111446838D01*
X153693714Y-111446838D02*
X153646095Y-111494457D01*
X153646095Y-111494457D02*
X153550857Y-111637314D01*
X153550857Y-111637314D02*
X153503238Y-111827790D01*
X153503238Y-111827790D02*
X153503238Y-112208742D01*
X153503238Y-112208742D02*
X153550857Y-112303980D01*
X153550857Y-112303980D02*
X153598476Y-112351600D01*
X153598476Y-112351600D02*
X153693714Y-112399219D01*
X153693714Y-112399219D02*
X153884190Y-112399219D01*
X153884190Y-112399219D02*
X153979428Y-112351600D01*
X153979428Y-112351600D02*
X154027047Y-112303980D01*
X154027047Y-112303980D02*
X154074666Y-112208742D01*
X154074666Y-112208742D02*
X154074666Y-111970647D01*
X154074666Y-111970647D02*
X154027047Y-111875409D01*
X154027047Y-111875409D02*
X153979428Y-111827790D01*
X153979428Y-111827790D02*
X153884190Y-111780171D01*
X153884190Y-111780171D02*
X153693714Y-111780171D01*
X153693714Y-111780171D02*
X153598476Y-111827790D01*
X153598476Y-111827790D02*
X153550857Y-111875409D01*
X153550857Y-111875409D02*
X153503238Y-111970647D01*
X69200733Y-126565819D02*
X68867400Y-126089628D01*
X68629305Y-126565819D02*
X68629305Y-125565819D01*
X68629305Y-125565819D02*
X69010257Y-125565819D01*
X69010257Y-125565819D02*
X69105495Y-125613438D01*
X69105495Y-125613438D02*
X69153114Y-125661057D01*
X69153114Y-125661057D02*
X69200733Y-125756295D01*
X69200733Y-125756295D02*
X69200733Y-125899152D01*
X69200733Y-125899152D02*
X69153114Y-125994390D01*
X69153114Y-125994390D02*
X69105495Y-126042009D01*
X69105495Y-126042009D02*
X69010257Y-126089628D01*
X69010257Y-126089628D02*
X68629305Y-126089628D01*
X70105495Y-125565819D02*
X69629305Y-125565819D01*
X69629305Y-125565819D02*
X69581686Y-126042009D01*
X69581686Y-126042009D02*
X69629305Y-125994390D01*
X69629305Y-125994390D02*
X69724543Y-125946771D01*
X69724543Y-125946771D02*
X69962638Y-125946771D01*
X69962638Y-125946771D02*
X70057876Y-125994390D01*
X70057876Y-125994390D02*
X70105495Y-126042009D01*
X70105495Y-126042009D02*
X70153114Y-126137247D01*
X70153114Y-126137247D02*
X70153114Y-126375342D01*
X70153114Y-126375342D02*
X70105495Y-126470580D01*
X70105495Y-126470580D02*
X70057876Y-126518200D01*
X70057876Y-126518200D02*
X69962638Y-126565819D01*
X69962638Y-126565819D02*
X69724543Y-126565819D01*
X69724543Y-126565819D02*
X69629305Y-126518200D01*
X69629305Y-126518200D02*
X69581686Y-126470580D01*
X63990695Y-66453419D02*
X64562123Y-66453419D01*
X64276409Y-67453419D02*
X64276409Y-66453419D01*
X64895457Y-67453419D02*
X64895457Y-66453419D01*
X64895457Y-66453419D02*
X65276409Y-66453419D01*
X65276409Y-66453419D02*
X65371647Y-66501038D01*
X65371647Y-66501038D02*
X65419266Y-66548657D01*
X65419266Y-66548657D02*
X65466885Y-66643895D01*
X65466885Y-66643895D02*
X65466885Y-66786752D01*
X65466885Y-66786752D02*
X65419266Y-66881990D01*
X65419266Y-66881990D02*
X65371647Y-66929609D01*
X65371647Y-66929609D02*
X65276409Y-66977228D01*
X65276409Y-66977228D02*
X64895457Y-66977228D01*
X66419266Y-67453419D02*
X65847838Y-67453419D01*
X66133552Y-67453419D02*
X66133552Y-66453419D01*
X66133552Y-66453419D02*
X66038314Y-66596276D01*
X66038314Y-66596276D02*
X65943076Y-66691514D01*
X65943076Y-66691514D02*
X65847838Y-66739133D01*
X42973666Y-57824019D02*
X42973666Y-58538304D01*
X42973666Y-58538304D02*
X42926047Y-58681161D01*
X42926047Y-58681161D02*
X42830809Y-58776400D01*
X42830809Y-58776400D02*
X42687952Y-58824019D01*
X42687952Y-58824019D02*
X42592714Y-58824019D01*
X43973666Y-58824019D02*
X43402238Y-58824019D01*
X43687952Y-58824019D02*
X43687952Y-57824019D01*
X43687952Y-57824019D02*
X43592714Y-57966876D01*
X43592714Y-57966876D02*
X43497476Y-58062114D01*
X43497476Y-58062114D02*
X43402238Y-58109733D01*
X72931495Y-128607219D02*
X73502923Y-128607219D01*
X73217209Y-129607219D02*
X73217209Y-128607219D01*
X73836257Y-129607219D02*
X73836257Y-128607219D01*
X73836257Y-128607219D02*
X74217209Y-128607219D01*
X74217209Y-128607219D02*
X74312447Y-128654838D01*
X74312447Y-128654838D02*
X74360066Y-128702457D01*
X74360066Y-128702457D02*
X74407685Y-128797695D01*
X74407685Y-128797695D02*
X74407685Y-128940552D01*
X74407685Y-128940552D02*
X74360066Y-129035790D01*
X74360066Y-129035790D02*
X74312447Y-129083409D01*
X74312447Y-129083409D02*
X74217209Y-129131028D01*
X74217209Y-129131028D02*
X73836257Y-129131028D01*
X74979114Y-129035790D02*
X74883876Y-128988171D01*
X74883876Y-128988171D02*
X74836257Y-128940552D01*
X74836257Y-128940552D02*
X74788638Y-128845314D01*
X74788638Y-128845314D02*
X74788638Y-128797695D01*
X74788638Y-128797695D02*
X74836257Y-128702457D01*
X74836257Y-128702457D02*
X74883876Y-128654838D01*
X74883876Y-128654838D02*
X74979114Y-128607219D01*
X74979114Y-128607219D02*
X75169590Y-128607219D01*
X75169590Y-128607219D02*
X75264828Y-128654838D01*
X75264828Y-128654838D02*
X75312447Y-128702457D01*
X75312447Y-128702457D02*
X75360066Y-128797695D01*
X75360066Y-128797695D02*
X75360066Y-128845314D01*
X75360066Y-128845314D02*
X75312447Y-128940552D01*
X75312447Y-128940552D02*
X75264828Y-128988171D01*
X75264828Y-128988171D02*
X75169590Y-129035790D01*
X75169590Y-129035790D02*
X74979114Y-129035790D01*
X74979114Y-129035790D02*
X74883876Y-129083409D01*
X74883876Y-129083409D02*
X74836257Y-129131028D01*
X74836257Y-129131028D02*
X74788638Y-129226266D01*
X74788638Y-129226266D02*
X74788638Y-129416742D01*
X74788638Y-129416742D02*
X74836257Y-129511980D01*
X74836257Y-129511980D02*
X74883876Y-129559600D01*
X74883876Y-129559600D02*
X74979114Y-129607219D01*
X74979114Y-129607219D02*
X75169590Y-129607219D01*
X75169590Y-129607219D02*
X75264828Y-129559600D01*
X75264828Y-129559600D02*
X75312447Y-129511980D01*
X75312447Y-129511980D02*
X75360066Y-129416742D01*
X75360066Y-129416742D02*
X75360066Y-129226266D01*
X75360066Y-129226266D02*
X75312447Y-129131028D01*
X75312447Y-129131028D02*
X75264828Y-129083409D01*
X75264828Y-129083409D02*
X75169590Y-129035790D01*
X169581533Y-121390580D02*
X169533914Y-121438200D01*
X169533914Y-121438200D02*
X169391057Y-121485819D01*
X169391057Y-121485819D02*
X169295819Y-121485819D01*
X169295819Y-121485819D02*
X169152962Y-121438200D01*
X169152962Y-121438200D02*
X169057724Y-121342961D01*
X169057724Y-121342961D02*
X169010105Y-121247723D01*
X169010105Y-121247723D02*
X168962486Y-121057247D01*
X168962486Y-121057247D02*
X168962486Y-120914390D01*
X168962486Y-120914390D02*
X169010105Y-120723914D01*
X169010105Y-120723914D02*
X169057724Y-120628676D01*
X169057724Y-120628676D02*
X169152962Y-120533438D01*
X169152962Y-120533438D02*
X169295819Y-120485819D01*
X169295819Y-120485819D02*
X169391057Y-120485819D01*
X169391057Y-120485819D02*
X169533914Y-120533438D01*
X169533914Y-120533438D02*
X169581533Y-120581057D01*
X170438676Y-120819152D02*
X170438676Y-121485819D01*
X170200581Y-120438200D02*
X169962486Y-121152485D01*
X169962486Y-121152485D02*
X170581533Y-121152485D01*
X85609133Y-71758980D02*
X85561514Y-71806600D01*
X85561514Y-71806600D02*
X85418657Y-71854219D01*
X85418657Y-71854219D02*
X85323419Y-71854219D01*
X85323419Y-71854219D02*
X85180562Y-71806600D01*
X85180562Y-71806600D02*
X85085324Y-71711361D01*
X85085324Y-71711361D02*
X85037705Y-71616123D01*
X85037705Y-71616123D02*
X84990086Y-71425647D01*
X84990086Y-71425647D02*
X84990086Y-71282790D01*
X84990086Y-71282790D02*
X85037705Y-71092314D01*
X85037705Y-71092314D02*
X85085324Y-70997076D01*
X85085324Y-70997076D02*
X85180562Y-70901838D01*
X85180562Y-70901838D02*
X85323419Y-70854219D01*
X85323419Y-70854219D02*
X85418657Y-70854219D01*
X85418657Y-70854219D02*
X85561514Y-70901838D01*
X85561514Y-70901838D02*
X85609133Y-70949457D01*
X86466276Y-70854219D02*
X86275800Y-70854219D01*
X86275800Y-70854219D02*
X86180562Y-70901838D01*
X86180562Y-70901838D02*
X86132943Y-70949457D01*
X86132943Y-70949457D02*
X86037705Y-71092314D01*
X86037705Y-71092314D02*
X85990086Y-71282790D01*
X85990086Y-71282790D02*
X85990086Y-71663742D01*
X85990086Y-71663742D02*
X86037705Y-71758980D01*
X86037705Y-71758980D02*
X86085324Y-71806600D01*
X86085324Y-71806600D02*
X86180562Y-71854219D01*
X86180562Y-71854219D02*
X86371038Y-71854219D01*
X86371038Y-71854219D02*
X86466276Y-71806600D01*
X86466276Y-71806600D02*
X86513895Y-71758980D01*
X86513895Y-71758980D02*
X86561514Y-71663742D01*
X86561514Y-71663742D02*
X86561514Y-71425647D01*
X86561514Y-71425647D02*
X86513895Y-71330409D01*
X86513895Y-71330409D02*
X86466276Y-71282790D01*
X86466276Y-71282790D02*
X86371038Y-71235171D01*
X86371038Y-71235171D02*
X86180562Y-71235171D01*
X86180562Y-71235171D02*
X86085324Y-71282790D01*
X86085324Y-71282790D02*
X86037705Y-71330409D01*
X86037705Y-71330409D02*
X85990086Y-71425647D01*
X163364942Y-51483419D02*
X163031609Y-51007228D01*
X162793514Y-51483419D02*
X162793514Y-50483419D01*
X162793514Y-50483419D02*
X163174466Y-50483419D01*
X163174466Y-50483419D02*
X163269704Y-50531038D01*
X163269704Y-50531038D02*
X163317323Y-50578657D01*
X163317323Y-50578657D02*
X163364942Y-50673895D01*
X163364942Y-50673895D02*
X163364942Y-50816752D01*
X163364942Y-50816752D02*
X163317323Y-50911990D01*
X163317323Y-50911990D02*
X163269704Y-50959609D01*
X163269704Y-50959609D02*
X163174466Y-51007228D01*
X163174466Y-51007228D02*
X162793514Y-51007228D01*
X163745895Y-50578657D02*
X163793514Y-50531038D01*
X163793514Y-50531038D02*
X163888752Y-50483419D01*
X163888752Y-50483419D02*
X164126847Y-50483419D01*
X164126847Y-50483419D02*
X164222085Y-50531038D01*
X164222085Y-50531038D02*
X164269704Y-50578657D01*
X164269704Y-50578657D02*
X164317323Y-50673895D01*
X164317323Y-50673895D02*
X164317323Y-50769133D01*
X164317323Y-50769133D02*
X164269704Y-50911990D01*
X164269704Y-50911990D02*
X163698276Y-51483419D01*
X163698276Y-51483419D02*
X164317323Y-51483419D01*
X164936371Y-50483419D02*
X165031609Y-50483419D01*
X165031609Y-50483419D02*
X165126847Y-50531038D01*
X165126847Y-50531038D02*
X165174466Y-50578657D01*
X165174466Y-50578657D02*
X165222085Y-50673895D01*
X165222085Y-50673895D02*
X165269704Y-50864371D01*
X165269704Y-50864371D02*
X165269704Y-51102466D01*
X165269704Y-51102466D02*
X165222085Y-51292942D01*
X165222085Y-51292942D02*
X165174466Y-51388180D01*
X165174466Y-51388180D02*
X165126847Y-51435800D01*
X165126847Y-51435800D02*
X165031609Y-51483419D01*
X165031609Y-51483419D02*
X164936371Y-51483419D01*
X164936371Y-51483419D02*
X164841133Y-51435800D01*
X164841133Y-51435800D02*
X164793514Y-51388180D01*
X164793514Y-51388180D02*
X164745895Y-51292942D01*
X164745895Y-51292942D02*
X164698276Y-51102466D01*
X164698276Y-51102466D02*
X164698276Y-50864371D01*
X164698276Y-50864371D02*
X164745895Y-50673895D01*
X164745895Y-50673895D02*
X164793514Y-50578657D01*
X164793514Y-50578657D02*
X164841133Y-50531038D01*
X164841133Y-50531038D02*
X164936371Y-50483419D01*
X81635695Y-136310019D02*
X81635695Y-137119542D01*
X81635695Y-137119542D02*
X81683314Y-137214780D01*
X81683314Y-137214780D02*
X81730933Y-137262400D01*
X81730933Y-137262400D02*
X81826171Y-137310019D01*
X81826171Y-137310019D02*
X82016647Y-137310019D01*
X82016647Y-137310019D02*
X82111885Y-137262400D01*
X82111885Y-137262400D02*
X82159504Y-137214780D01*
X82159504Y-137214780D02*
X82207123Y-137119542D01*
X82207123Y-137119542D02*
X82207123Y-136310019D01*
X82588076Y-136310019D02*
X83207123Y-136310019D01*
X83207123Y-136310019D02*
X82873790Y-136690971D01*
X82873790Y-136690971D02*
X83016647Y-136690971D01*
X83016647Y-136690971D02*
X83111885Y-136738590D01*
X83111885Y-136738590D02*
X83159504Y-136786209D01*
X83159504Y-136786209D02*
X83207123Y-136881447D01*
X83207123Y-136881447D02*
X83207123Y-137119542D01*
X83207123Y-137119542D02*
X83159504Y-137214780D01*
X83159504Y-137214780D02*
X83111885Y-137262400D01*
X83111885Y-137262400D02*
X83016647Y-137310019D01*
X83016647Y-137310019D02*
X82730933Y-137310019D01*
X82730933Y-137310019D02*
X82635695Y-137262400D01*
X82635695Y-137262400D02*
X82588076Y-137214780D01*
X119619733Y-114100780D02*
X119572114Y-114148400D01*
X119572114Y-114148400D02*
X119429257Y-114196019D01*
X119429257Y-114196019D02*
X119334019Y-114196019D01*
X119334019Y-114196019D02*
X119191162Y-114148400D01*
X119191162Y-114148400D02*
X119095924Y-114053161D01*
X119095924Y-114053161D02*
X119048305Y-113957923D01*
X119048305Y-113957923D02*
X119000686Y-113767447D01*
X119000686Y-113767447D02*
X119000686Y-113624590D01*
X119000686Y-113624590D02*
X119048305Y-113434114D01*
X119048305Y-113434114D02*
X119095924Y-113338876D01*
X119095924Y-113338876D02*
X119191162Y-113243638D01*
X119191162Y-113243638D02*
X119334019Y-113196019D01*
X119334019Y-113196019D02*
X119429257Y-113196019D01*
X119429257Y-113196019D02*
X119572114Y-113243638D01*
X119572114Y-113243638D02*
X119619733Y-113291257D01*
X120000686Y-113291257D02*
X120048305Y-113243638D01*
X120048305Y-113243638D02*
X120143543Y-113196019D01*
X120143543Y-113196019D02*
X120381638Y-113196019D01*
X120381638Y-113196019D02*
X120476876Y-113243638D01*
X120476876Y-113243638D02*
X120524495Y-113291257D01*
X120524495Y-113291257D02*
X120572114Y-113386495D01*
X120572114Y-113386495D02*
X120572114Y-113481733D01*
X120572114Y-113481733D02*
X120524495Y-113624590D01*
X120524495Y-113624590D02*
X119953067Y-114196019D01*
X119953067Y-114196019D02*
X120572114Y-114196019D01*
X149140942Y-71117619D02*
X148807609Y-70641428D01*
X148569514Y-71117619D02*
X148569514Y-70117619D01*
X148569514Y-70117619D02*
X148950466Y-70117619D01*
X148950466Y-70117619D02*
X149045704Y-70165238D01*
X149045704Y-70165238D02*
X149093323Y-70212857D01*
X149093323Y-70212857D02*
X149140942Y-70308095D01*
X149140942Y-70308095D02*
X149140942Y-70450952D01*
X149140942Y-70450952D02*
X149093323Y-70546190D01*
X149093323Y-70546190D02*
X149045704Y-70593809D01*
X149045704Y-70593809D02*
X148950466Y-70641428D01*
X148950466Y-70641428D02*
X148569514Y-70641428D01*
X150093323Y-71117619D02*
X149521895Y-71117619D01*
X149807609Y-71117619D02*
X149807609Y-70117619D01*
X149807609Y-70117619D02*
X149712371Y-70260476D01*
X149712371Y-70260476D02*
X149617133Y-70355714D01*
X149617133Y-70355714D02*
X149521895Y-70403333D01*
X150664752Y-70546190D02*
X150569514Y-70498571D01*
X150569514Y-70498571D02*
X150521895Y-70450952D01*
X150521895Y-70450952D02*
X150474276Y-70355714D01*
X150474276Y-70355714D02*
X150474276Y-70308095D01*
X150474276Y-70308095D02*
X150521895Y-70212857D01*
X150521895Y-70212857D02*
X150569514Y-70165238D01*
X150569514Y-70165238D02*
X150664752Y-70117619D01*
X150664752Y-70117619D02*
X150855228Y-70117619D01*
X150855228Y-70117619D02*
X150950466Y-70165238D01*
X150950466Y-70165238D02*
X150998085Y-70212857D01*
X150998085Y-70212857D02*
X151045704Y-70308095D01*
X151045704Y-70308095D02*
X151045704Y-70355714D01*
X151045704Y-70355714D02*
X150998085Y-70450952D01*
X150998085Y-70450952D02*
X150950466Y-70498571D01*
X150950466Y-70498571D02*
X150855228Y-70546190D01*
X150855228Y-70546190D02*
X150664752Y-70546190D01*
X150664752Y-70546190D02*
X150569514Y-70593809D01*
X150569514Y-70593809D02*
X150521895Y-70641428D01*
X150521895Y-70641428D02*
X150474276Y-70736666D01*
X150474276Y-70736666D02*
X150474276Y-70927142D01*
X150474276Y-70927142D02*
X150521895Y-71022380D01*
X150521895Y-71022380D02*
X150569514Y-71070000D01*
X150569514Y-71070000D02*
X150664752Y-71117619D01*
X150664752Y-71117619D02*
X150855228Y-71117619D01*
X150855228Y-71117619D02*
X150950466Y-71070000D01*
X150950466Y-71070000D02*
X150998085Y-71022380D01*
X150998085Y-71022380D02*
X151045704Y-70927142D01*
X151045704Y-70927142D02*
X151045704Y-70736666D01*
X151045704Y-70736666D02*
X150998085Y-70641428D01*
X150998085Y-70641428D02*
X150950466Y-70593809D01*
X150950466Y-70593809D02*
X150855228Y-70546190D01*
X164965142Y-57757219D02*
X164631809Y-57281028D01*
X164393714Y-57757219D02*
X164393714Y-56757219D01*
X164393714Y-56757219D02*
X164774666Y-56757219D01*
X164774666Y-56757219D02*
X164869904Y-56804838D01*
X164869904Y-56804838D02*
X164917523Y-56852457D01*
X164917523Y-56852457D02*
X164965142Y-56947695D01*
X164965142Y-56947695D02*
X164965142Y-57090552D01*
X164965142Y-57090552D02*
X164917523Y-57185790D01*
X164917523Y-57185790D02*
X164869904Y-57233409D01*
X164869904Y-57233409D02*
X164774666Y-57281028D01*
X164774666Y-57281028D02*
X164393714Y-57281028D01*
X165917523Y-57757219D02*
X165346095Y-57757219D01*
X165631809Y-57757219D02*
X165631809Y-56757219D01*
X165631809Y-56757219D02*
X165536571Y-56900076D01*
X165536571Y-56900076D02*
X165441333Y-56995314D01*
X165441333Y-56995314D02*
X165346095Y-57042933D01*
X166774666Y-57090552D02*
X166774666Y-57757219D01*
X166536571Y-56709600D02*
X166298476Y-57423885D01*
X166298476Y-57423885D02*
X166917523Y-57423885D01*
X98610895Y-131553619D02*
X99182323Y-131553619D01*
X98896609Y-132553619D02*
X98896609Y-131553619D01*
X99515657Y-132553619D02*
X99515657Y-131553619D01*
X99515657Y-131553619D02*
X99896609Y-131553619D01*
X99896609Y-131553619D02*
X99991847Y-131601238D01*
X99991847Y-131601238D02*
X100039466Y-131648857D01*
X100039466Y-131648857D02*
X100087085Y-131744095D01*
X100087085Y-131744095D02*
X100087085Y-131886952D01*
X100087085Y-131886952D02*
X100039466Y-131982190D01*
X100039466Y-131982190D02*
X99991847Y-132029809D01*
X99991847Y-132029809D02*
X99896609Y-132077428D01*
X99896609Y-132077428D02*
X99515657Y-132077428D01*
X100420419Y-131553619D02*
X101087085Y-131553619D01*
X101087085Y-131553619D02*
X100658514Y-132553619D01*
X180924295Y-81827019D02*
X180924295Y-82636542D01*
X180924295Y-82636542D02*
X180971914Y-82731780D01*
X180971914Y-82731780D02*
X181019533Y-82779400D01*
X181019533Y-82779400D02*
X181114771Y-82827019D01*
X181114771Y-82827019D02*
X181305247Y-82827019D01*
X181305247Y-82827019D02*
X181400485Y-82779400D01*
X181400485Y-82779400D02*
X181448104Y-82731780D01*
X181448104Y-82731780D02*
X181495723Y-82636542D01*
X181495723Y-82636542D02*
X181495723Y-81827019D01*
X182495723Y-82827019D02*
X181924295Y-82827019D01*
X182210009Y-82827019D02*
X182210009Y-81827019D01*
X182210009Y-81827019D02*
X182114771Y-81969876D01*
X182114771Y-81969876D02*
X182019533Y-82065114D01*
X182019533Y-82065114D02*
X181924295Y-82112733D01*
X158538942Y-75467619D02*
X158205609Y-74991428D01*
X157967514Y-75467619D02*
X157967514Y-74467619D01*
X157967514Y-74467619D02*
X158348466Y-74467619D01*
X158348466Y-74467619D02*
X158443704Y-74515238D01*
X158443704Y-74515238D02*
X158491323Y-74562857D01*
X158491323Y-74562857D02*
X158538942Y-74658095D01*
X158538942Y-74658095D02*
X158538942Y-74800952D01*
X158538942Y-74800952D02*
X158491323Y-74896190D01*
X158491323Y-74896190D02*
X158443704Y-74943809D01*
X158443704Y-74943809D02*
X158348466Y-74991428D01*
X158348466Y-74991428D02*
X157967514Y-74991428D01*
X159491323Y-75467619D02*
X158919895Y-75467619D01*
X159205609Y-75467619D02*
X159205609Y-74467619D01*
X159205609Y-74467619D02*
X159110371Y-74610476D01*
X159110371Y-74610476D02*
X159015133Y-74705714D01*
X159015133Y-74705714D02*
X158919895Y-74753333D01*
X160348466Y-74467619D02*
X160157990Y-74467619D01*
X160157990Y-74467619D02*
X160062752Y-74515238D01*
X160062752Y-74515238D02*
X160015133Y-74562857D01*
X160015133Y-74562857D02*
X159919895Y-74705714D01*
X159919895Y-74705714D02*
X159872276Y-74896190D01*
X159872276Y-74896190D02*
X159872276Y-75277142D01*
X159872276Y-75277142D02*
X159919895Y-75372380D01*
X159919895Y-75372380D02*
X159967514Y-75420000D01*
X159967514Y-75420000D02*
X160062752Y-75467619D01*
X160062752Y-75467619D02*
X160253228Y-75467619D01*
X160253228Y-75467619D02*
X160348466Y-75420000D01*
X160348466Y-75420000D02*
X160396085Y-75372380D01*
X160396085Y-75372380D02*
X160443704Y-75277142D01*
X160443704Y-75277142D02*
X160443704Y-75039047D01*
X160443704Y-75039047D02*
X160396085Y-74943809D01*
X160396085Y-74943809D02*
X160348466Y-74896190D01*
X160348466Y-74896190D02*
X160253228Y-74848571D01*
X160253228Y-74848571D02*
X160062752Y-74848571D01*
X160062752Y-74848571D02*
X159967514Y-74896190D01*
X159967514Y-74896190D02*
X159919895Y-74943809D01*
X159919895Y-74943809D02*
X159872276Y-75039047D01*
X116470133Y-124635419D02*
X116136800Y-124159228D01*
X115898705Y-124635419D02*
X115898705Y-123635419D01*
X115898705Y-123635419D02*
X116279657Y-123635419D01*
X116279657Y-123635419D02*
X116374895Y-123683038D01*
X116374895Y-123683038D02*
X116422514Y-123730657D01*
X116422514Y-123730657D02*
X116470133Y-123825895D01*
X116470133Y-123825895D02*
X116470133Y-123968752D01*
X116470133Y-123968752D02*
X116422514Y-124063990D01*
X116422514Y-124063990D02*
X116374895Y-124111609D01*
X116374895Y-124111609D02*
X116279657Y-124159228D01*
X116279657Y-124159228D02*
X115898705Y-124159228D01*
X116803467Y-123635419D02*
X117422514Y-123635419D01*
X117422514Y-123635419D02*
X117089181Y-124016371D01*
X117089181Y-124016371D02*
X117232038Y-124016371D01*
X117232038Y-124016371D02*
X117327276Y-124063990D01*
X117327276Y-124063990D02*
X117374895Y-124111609D01*
X117374895Y-124111609D02*
X117422514Y-124206847D01*
X117422514Y-124206847D02*
X117422514Y-124444942D01*
X117422514Y-124444942D02*
X117374895Y-124540180D01*
X117374895Y-124540180D02*
X117327276Y-124587800D01*
X117327276Y-124587800D02*
X117232038Y-124635419D01*
X117232038Y-124635419D02*
X116946324Y-124635419D01*
X116946324Y-124635419D02*
X116851086Y-124587800D01*
X116851086Y-124587800D02*
X116803467Y-124540180D01*
X61061695Y-135954419D02*
X61061695Y-136763942D01*
X61061695Y-136763942D02*
X61109314Y-136859180D01*
X61109314Y-136859180D02*
X61156933Y-136906800D01*
X61156933Y-136906800D02*
X61252171Y-136954419D01*
X61252171Y-136954419D02*
X61442647Y-136954419D01*
X61442647Y-136954419D02*
X61537885Y-136906800D01*
X61537885Y-136906800D02*
X61585504Y-136859180D01*
X61585504Y-136859180D02*
X61633123Y-136763942D01*
X61633123Y-136763942D02*
X61633123Y-135954419D01*
X62061695Y-136049657D02*
X62109314Y-136002038D01*
X62109314Y-136002038D02*
X62204552Y-135954419D01*
X62204552Y-135954419D02*
X62442647Y-135954419D01*
X62442647Y-135954419D02*
X62537885Y-136002038D01*
X62537885Y-136002038D02*
X62585504Y-136049657D01*
X62585504Y-136049657D02*
X62633123Y-136144895D01*
X62633123Y-136144895D02*
X62633123Y-136240133D01*
X62633123Y-136240133D02*
X62585504Y-136382990D01*
X62585504Y-136382990D02*
X62014076Y-136954419D01*
X62014076Y-136954419D02*
X62633123Y-136954419D01*
X140809742Y-48537019D02*
X140476409Y-48060828D01*
X140238314Y-48537019D02*
X140238314Y-47537019D01*
X140238314Y-47537019D02*
X140619266Y-47537019D01*
X140619266Y-47537019D02*
X140714504Y-47584638D01*
X140714504Y-47584638D02*
X140762123Y-47632257D01*
X140762123Y-47632257D02*
X140809742Y-47727495D01*
X140809742Y-47727495D02*
X140809742Y-47870352D01*
X140809742Y-47870352D02*
X140762123Y-47965590D01*
X140762123Y-47965590D02*
X140714504Y-48013209D01*
X140714504Y-48013209D02*
X140619266Y-48060828D01*
X140619266Y-48060828D02*
X140238314Y-48060828D01*
X141762123Y-48537019D02*
X141190695Y-48537019D01*
X141476409Y-48537019D02*
X141476409Y-47537019D01*
X141476409Y-47537019D02*
X141381171Y-47679876D01*
X141381171Y-47679876D02*
X141285933Y-47775114D01*
X141285933Y-47775114D02*
X141190695Y-47822733D01*
X142666885Y-47537019D02*
X142190695Y-47537019D01*
X142190695Y-47537019D02*
X142143076Y-48013209D01*
X142143076Y-48013209D02*
X142190695Y-47965590D01*
X142190695Y-47965590D02*
X142285933Y-47917971D01*
X142285933Y-47917971D02*
X142524028Y-47917971D01*
X142524028Y-47917971D02*
X142619266Y-47965590D01*
X142619266Y-47965590D02*
X142666885Y-48013209D01*
X142666885Y-48013209D02*
X142714504Y-48108447D01*
X142714504Y-48108447D02*
X142714504Y-48346542D01*
X142714504Y-48346542D02*
X142666885Y-48441780D01*
X142666885Y-48441780D02*
X142619266Y-48489400D01*
X142619266Y-48489400D02*
X142524028Y-48537019D01*
X142524028Y-48537019D02*
X142285933Y-48537019D01*
X142285933Y-48537019D02*
X142190695Y-48489400D01*
X142190695Y-48489400D02*
X142143076Y-48441780D01*
X138898333Y-113154619D02*
X138565000Y-112678428D01*
X138326905Y-113154619D02*
X138326905Y-112154619D01*
X138326905Y-112154619D02*
X138707857Y-112154619D01*
X138707857Y-112154619D02*
X138803095Y-112202238D01*
X138803095Y-112202238D02*
X138850714Y-112249857D01*
X138850714Y-112249857D02*
X138898333Y-112345095D01*
X138898333Y-112345095D02*
X138898333Y-112487952D01*
X138898333Y-112487952D02*
X138850714Y-112583190D01*
X138850714Y-112583190D02*
X138803095Y-112630809D01*
X138803095Y-112630809D02*
X138707857Y-112678428D01*
X138707857Y-112678428D02*
X138326905Y-112678428D01*
X139231667Y-112154619D02*
X139898333Y-112154619D01*
X139898333Y-112154619D02*
X139469762Y-113154619D01*
X76492267Y-98112800D02*
X76635124Y-98160419D01*
X76635124Y-98160419D02*
X76873219Y-98160419D01*
X76873219Y-98160419D02*
X76968457Y-98112800D01*
X76968457Y-98112800D02*
X77016076Y-98065180D01*
X77016076Y-98065180D02*
X77063695Y-97969942D01*
X77063695Y-97969942D02*
X77063695Y-97874704D01*
X77063695Y-97874704D02*
X77016076Y-97779466D01*
X77016076Y-97779466D02*
X76968457Y-97731847D01*
X76968457Y-97731847D02*
X76873219Y-97684228D01*
X76873219Y-97684228D02*
X76682743Y-97636609D01*
X76682743Y-97636609D02*
X76587505Y-97588990D01*
X76587505Y-97588990D02*
X76539886Y-97541371D01*
X76539886Y-97541371D02*
X76492267Y-97446133D01*
X76492267Y-97446133D02*
X76492267Y-97350895D01*
X76492267Y-97350895D02*
X76539886Y-97255657D01*
X76539886Y-97255657D02*
X76587505Y-97208038D01*
X76587505Y-97208038D02*
X76682743Y-97160419D01*
X76682743Y-97160419D02*
X76920838Y-97160419D01*
X76920838Y-97160419D02*
X77063695Y-97208038D01*
X77397029Y-97160419D02*
X77635124Y-98160419D01*
X77635124Y-98160419D02*
X77825600Y-97446133D01*
X77825600Y-97446133D02*
X78016076Y-98160419D01*
X78016076Y-98160419D02*
X78254172Y-97160419D01*
X79158933Y-98160419D02*
X78587505Y-98160419D01*
X78873219Y-98160419D02*
X78873219Y-97160419D01*
X78873219Y-97160419D02*
X78777981Y-97303276D01*
X78777981Y-97303276D02*
X78682743Y-97398514D01*
X78682743Y-97398514D02*
X78587505Y-97446133D01*
X151001505Y-38402419D02*
X151001505Y-37402419D01*
X151001505Y-37402419D02*
X151239600Y-37402419D01*
X151239600Y-37402419D02*
X151382457Y-37450038D01*
X151382457Y-37450038D02*
X151477695Y-37545276D01*
X151477695Y-37545276D02*
X151525314Y-37640514D01*
X151525314Y-37640514D02*
X151572933Y-37830990D01*
X151572933Y-37830990D02*
X151572933Y-37973847D01*
X151572933Y-37973847D02*
X151525314Y-38164323D01*
X151525314Y-38164323D02*
X151477695Y-38259561D01*
X151477695Y-38259561D02*
X151382457Y-38354800D01*
X151382457Y-38354800D02*
X151239600Y-38402419D01*
X151239600Y-38402419D02*
X151001505Y-38402419D01*
X151953886Y-37497657D02*
X152001505Y-37450038D01*
X152001505Y-37450038D02*
X152096743Y-37402419D01*
X152096743Y-37402419D02*
X152334838Y-37402419D01*
X152334838Y-37402419D02*
X152430076Y-37450038D01*
X152430076Y-37450038D02*
X152477695Y-37497657D01*
X152477695Y-37497657D02*
X152525314Y-37592895D01*
X152525314Y-37592895D02*
X152525314Y-37688133D01*
X152525314Y-37688133D02*
X152477695Y-37830990D01*
X152477695Y-37830990D02*
X151906267Y-38402419D01*
X151906267Y-38402419D02*
X152525314Y-38402419D01*
X171156333Y-117123380D02*
X171108714Y-117171000D01*
X171108714Y-117171000D02*
X170965857Y-117218619D01*
X170965857Y-117218619D02*
X170870619Y-117218619D01*
X170870619Y-117218619D02*
X170727762Y-117171000D01*
X170727762Y-117171000D02*
X170632524Y-117075761D01*
X170632524Y-117075761D02*
X170584905Y-116980523D01*
X170584905Y-116980523D02*
X170537286Y-116790047D01*
X170537286Y-116790047D02*
X170537286Y-116647190D01*
X170537286Y-116647190D02*
X170584905Y-116456714D01*
X170584905Y-116456714D02*
X170632524Y-116361476D01*
X170632524Y-116361476D02*
X170727762Y-116266238D01*
X170727762Y-116266238D02*
X170870619Y-116218619D01*
X170870619Y-116218619D02*
X170965857Y-116218619D01*
X170965857Y-116218619D02*
X171108714Y-116266238D01*
X171108714Y-116266238D02*
X171156333Y-116313857D01*
X172061095Y-116218619D02*
X171584905Y-116218619D01*
X171584905Y-116218619D02*
X171537286Y-116694809D01*
X171537286Y-116694809D02*
X171584905Y-116647190D01*
X171584905Y-116647190D02*
X171680143Y-116599571D01*
X171680143Y-116599571D02*
X171918238Y-116599571D01*
X171918238Y-116599571D02*
X172013476Y-116647190D01*
X172013476Y-116647190D02*
X172061095Y-116694809D01*
X172061095Y-116694809D02*
X172108714Y-116790047D01*
X172108714Y-116790047D02*
X172108714Y-117028142D01*
X172108714Y-117028142D02*
X172061095Y-117123380D01*
X172061095Y-117123380D02*
X172013476Y-117171000D01*
X172013476Y-117171000D02*
X171918238Y-117218619D01*
X171918238Y-117218619D02*
X171680143Y-117218619D01*
X171680143Y-117218619D02*
X171584905Y-117171000D01*
X171584905Y-117171000D02*
X171537286Y-117123380D01*
X73141105Y-68644419D02*
X73712533Y-68644419D01*
X73426819Y-69644419D02*
X73426819Y-68644419D01*
X74045867Y-69644419D02*
X74045867Y-68644419D01*
X74045867Y-68644419D02*
X74426819Y-68644419D01*
X74426819Y-68644419D02*
X74522057Y-68692038D01*
X74522057Y-68692038D02*
X74569676Y-68739657D01*
X74569676Y-68739657D02*
X74617295Y-68834895D01*
X74617295Y-68834895D02*
X74617295Y-68977752D01*
X74617295Y-68977752D02*
X74569676Y-69072990D01*
X74569676Y-69072990D02*
X74522057Y-69120609D01*
X74522057Y-69120609D02*
X74426819Y-69168228D01*
X74426819Y-69168228D02*
X74045867Y-69168228D01*
X75569676Y-69644419D02*
X74998248Y-69644419D01*
X75283962Y-69644419D02*
X75283962Y-68644419D01*
X75283962Y-68644419D02*
X75188724Y-68787276D01*
X75188724Y-68787276D02*
X75093486Y-68882514D01*
X75093486Y-68882514D02*
X74998248Y-68930133D01*
X75950629Y-68739657D02*
X75998248Y-68692038D01*
X75998248Y-68692038D02*
X76093486Y-68644419D01*
X76093486Y-68644419D02*
X76331581Y-68644419D01*
X76331581Y-68644419D02*
X76426819Y-68692038D01*
X76426819Y-68692038D02*
X76474438Y-68739657D01*
X76474438Y-68739657D02*
X76522057Y-68834895D01*
X76522057Y-68834895D02*
X76522057Y-68930133D01*
X76522057Y-68930133D02*
X76474438Y-69072990D01*
X76474438Y-69072990D02*
X75903010Y-69644419D01*
X75903010Y-69644419D02*
X76522057Y-69644419D01*
X51700133Y-67111180D02*
X51652514Y-67158800D01*
X51652514Y-67158800D02*
X51509657Y-67206419D01*
X51509657Y-67206419D02*
X51414419Y-67206419D01*
X51414419Y-67206419D02*
X51271562Y-67158800D01*
X51271562Y-67158800D02*
X51176324Y-67063561D01*
X51176324Y-67063561D02*
X51128705Y-66968323D01*
X51128705Y-66968323D02*
X51081086Y-66777847D01*
X51081086Y-66777847D02*
X51081086Y-66634990D01*
X51081086Y-66634990D02*
X51128705Y-66444514D01*
X51128705Y-66444514D02*
X51176324Y-66349276D01*
X51176324Y-66349276D02*
X51271562Y-66254038D01*
X51271562Y-66254038D02*
X51414419Y-66206419D01*
X51414419Y-66206419D02*
X51509657Y-66206419D01*
X51509657Y-66206419D02*
X51652514Y-66254038D01*
X51652514Y-66254038D02*
X51700133Y-66301657D01*
X52271562Y-66634990D02*
X52176324Y-66587371D01*
X52176324Y-66587371D02*
X52128705Y-66539752D01*
X52128705Y-66539752D02*
X52081086Y-66444514D01*
X52081086Y-66444514D02*
X52081086Y-66396895D01*
X52081086Y-66396895D02*
X52128705Y-66301657D01*
X52128705Y-66301657D02*
X52176324Y-66254038D01*
X52176324Y-66254038D02*
X52271562Y-66206419D01*
X52271562Y-66206419D02*
X52462038Y-66206419D01*
X52462038Y-66206419D02*
X52557276Y-66254038D01*
X52557276Y-66254038D02*
X52604895Y-66301657D01*
X52604895Y-66301657D02*
X52652514Y-66396895D01*
X52652514Y-66396895D02*
X52652514Y-66444514D01*
X52652514Y-66444514D02*
X52604895Y-66539752D01*
X52604895Y-66539752D02*
X52557276Y-66587371D01*
X52557276Y-66587371D02*
X52462038Y-66634990D01*
X52462038Y-66634990D02*
X52271562Y-66634990D01*
X52271562Y-66634990D02*
X52176324Y-66682609D01*
X52176324Y-66682609D02*
X52128705Y-66730228D01*
X52128705Y-66730228D02*
X52081086Y-66825466D01*
X52081086Y-66825466D02*
X52081086Y-67015942D01*
X52081086Y-67015942D02*
X52128705Y-67111180D01*
X52128705Y-67111180D02*
X52176324Y-67158800D01*
X52176324Y-67158800D02*
X52271562Y-67206419D01*
X52271562Y-67206419D02*
X52462038Y-67206419D01*
X52462038Y-67206419D02*
X52557276Y-67158800D01*
X52557276Y-67158800D02*
X52604895Y-67111180D01*
X52604895Y-67111180D02*
X52652514Y-67015942D01*
X52652514Y-67015942D02*
X52652514Y-66825466D01*
X52652514Y-66825466D02*
X52604895Y-66730228D01*
X52604895Y-66730228D02*
X52557276Y-66682609D01*
X52557276Y-66682609D02*
X52462038Y-66634990D01*
X192444905Y-103391619D02*
X193016333Y-103391619D01*
X192730619Y-104391619D02*
X192730619Y-103391619D01*
X193349667Y-104391619D02*
X193349667Y-103391619D01*
X193349667Y-103391619D02*
X193730619Y-103391619D01*
X193730619Y-103391619D02*
X193825857Y-103439238D01*
X193825857Y-103439238D02*
X193873476Y-103486857D01*
X193873476Y-103486857D02*
X193921095Y-103582095D01*
X193921095Y-103582095D02*
X193921095Y-103724952D01*
X193921095Y-103724952D02*
X193873476Y-103820190D01*
X193873476Y-103820190D02*
X193825857Y-103867809D01*
X193825857Y-103867809D02*
X193730619Y-103915428D01*
X193730619Y-103915428D02*
X193349667Y-103915428D01*
X194873476Y-104391619D02*
X194302048Y-104391619D01*
X194587762Y-104391619D02*
X194587762Y-103391619D01*
X194587762Y-103391619D02*
X194492524Y-103534476D01*
X194492524Y-103534476D02*
X194397286Y-103629714D01*
X194397286Y-103629714D02*
X194302048Y-103677333D01*
X195825857Y-104391619D02*
X195254429Y-104391619D01*
X195540143Y-104391619D02*
X195540143Y-103391619D01*
X195540143Y-103391619D02*
X195444905Y-103534476D01*
X195444905Y-103534476D02*
X195349667Y-103629714D01*
X195349667Y-103629714D02*
X195254429Y-103677333D01*
X172194695Y-108312619D02*
X172766123Y-108312619D01*
X172480409Y-109312619D02*
X172480409Y-108312619D01*
X173099457Y-109312619D02*
X173099457Y-108312619D01*
X173099457Y-108312619D02*
X173480409Y-108312619D01*
X173480409Y-108312619D02*
X173575647Y-108360238D01*
X173575647Y-108360238D02*
X173623266Y-108407857D01*
X173623266Y-108407857D02*
X173670885Y-108503095D01*
X173670885Y-108503095D02*
X173670885Y-108645952D01*
X173670885Y-108645952D02*
X173623266Y-108741190D01*
X173623266Y-108741190D02*
X173575647Y-108788809D01*
X173575647Y-108788809D02*
X173480409Y-108836428D01*
X173480409Y-108836428D02*
X173099457Y-108836428D01*
X174147076Y-109312619D02*
X174337552Y-109312619D01*
X174337552Y-109312619D02*
X174432790Y-109265000D01*
X174432790Y-109265000D02*
X174480409Y-109217380D01*
X174480409Y-109217380D02*
X174575647Y-109074523D01*
X174575647Y-109074523D02*
X174623266Y-108884047D01*
X174623266Y-108884047D02*
X174623266Y-108503095D01*
X174623266Y-108503095D02*
X174575647Y-108407857D01*
X174575647Y-108407857D02*
X174528028Y-108360238D01*
X174528028Y-108360238D02*
X174432790Y-108312619D01*
X174432790Y-108312619D02*
X174242314Y-108312619D01*
X174242314Y-108312619D02*
X174147076Y-108360238D01*
X174147076Y-108360238D02*
X174099457Y-108407857D01*
X174099457Y-108407857D02*
X174051838Y-108503095D01*
X174051838Y-108503095D02*
X174051838Y-108741190D01*
X174051838Y-108741190D02*
X174099457Y-108836428D01*
X174099457Y-108836428D02*
X174147076Y-108884047D01*
X174147076Y-108884047D02*
X174242314Y-108931666D01*
X174242314Y-108931666D02*
X174432790Y-108931666D01*
X174432790Y-108931666D02*
X174528028Y-108884047D01*
X174528028Y-108884047D02*
X174575647Y-108836428D01*
X174575647Y-108836428D02*
X174623266Y-108741190D01*
X63762095Y-71819419D02*
X64333523Y-71819419D01*
X64047809Y-72819419D02*
X64047809Y-71819419D01*
X64666857Y-72819419D02*
X64666857Y-71819419D01*
X64666857Y-71819419D02*
X65047809Y-71819419D01*
X65047809Y-71819419D02*
X65143047Y-71867038D01*
X65143047Y-71867038D02*
X65190666Y-71914657D01*
X65190666Y-71914657D02*
X65238285Y-72009895D01*
X65238285Y-72009895D02*
X65238285Y-72152752D01*
X65238285Y-72152752D02*
X65190666Y-72247990D01*
X65190666Y-72247990D02*
X65143047Y-72295609D01*
X65143047Y-72295609D02*
X65047809Y-72343228D01*
X65047809Y-72343228D02*
X64666857Y-72343228D01*
X65571619Y-71819419D02*
X66190666Y-71819419D01*
X66190666Y-71819419D02*
X65857333Y-72200371D01*
X65857333Y-72200371D02*
X66000190Y-72200371D01*
X66000190Y-72200371D02*
X66095428Y-72247990D01*
X66095428Y-72247990D02*
X66143047Y-72295609D01*
X66143047Y-72295609D02*
X66190666Y-72390847D01*
X66190666Y-72390847D02*
X66190666Y-72628942D01*
X66190666Y-72628942D02*
X66143047Y-72724180D01*
X66143047Y-72724180D02*
X66095428Y-72771800D01*
X66095428Y-72771800D02*
X66000190Y-72819419D01*
X66000190Y-72819419D02*
X65714476Y-72819419D01*
X65714476Y-72819419D02*
X65619238Y-72771800D01*
X65619238Y-72771800D02*
X65571619Y-72724180D01*
X58343895Y-75787019D02*
X58343895Y-76596542D01*
X58343895Y-76596542D02*
X58391514Y-76691780D01*
X58391514Y-76691780D02*
X58439133Y-76739400D01*
X58439133Y-76739400D02*
X58534371Y-76787019D01*
X58534371Y-76787019D02*
X58724847Y-76787019D01*
X58724847Y-76787019D02*
X58820085Y-76739400D01*
X58820085Y-76739400D02*
X58867704Y-76691780D01*
X58867704Y-76691780D02*
X58915323Y-76596542D01*
X58915323Y-76596542D02*
X58915323Y-75787019D01*
X59820085Y-75787019D02*
X59629609Y-75787019D01*
X59629609Y-75787019D02*
X59534371Y-75834638D01*
X59534371Y-75834638D02*
X59486752Y-75882257D01*
X59486752Y-75882257D02*
X59391514Y-76025114D01*
X59391514Y-76025114D02*
X59343895Y-76215590D01*
X59343895Y-76215590D02*
X59343895Y-76596542D01*
X59343895Y-76596542D02*
X59391514Y-76691780D01*
X59391514Y-76691780D02*
X59439133Y-76739400D01*
X59439133Y-76739400D02*
X59534371Y-76787019D01*
X59534371Y-76787019D02*
X59724847Y-76787019D01*
X59724847Y-76787019D02*
X59820085Y-76739400D01*
X59820085Y-76739400D02*
X59867704Y-76691780D01*
X59867704Y-76691780D02*
X59915323Y-76596542D01*
X59915323Y-76596542D02*
X59915323Y-76358447D01*
X59915323Y-76358447D02*
X59867704Y-76263209D01*
X59867704Y-76263209D02*
X59820085Y-76215590D01*
X59820085Y-76215590D02*
X59724847Y-76167971D01*
X59724847Y-76167971D02*
X59534371Y-76167971D01*
X59534371Y-76167971D02*
X59439133Y-76215590D01*
X59439133Y-76215590D02*
X59391514Y-76263209D01*
X59391514Y-76263209D02*
X59343895Y-76358447D01*
X117841733Y-118063180D02*
X117794114Y-118110800D01*
X117794114Y-118110800D02*
X117651257Y-118158419D01*
X117651257Y-118158419D02*
X117556019Y-118158419D01*
X117556019Y-118158419D02*
X117413162Y-118110800D01*
X117413162Y-118110800D02*
X117317924Y-118015561D01*
X117317924Y-118015561D02*
X117270305Y-117920323D01*
X117270305Y-117920323D02*
X117222686Y-117729847D01*
X117222686Y-117729847D02*
X117222686Y-117586990D01*
X117222686Y-117586990D02*
X117270305Y-117396514D01*
X117270305Y-117396514D02*
X117317924Y-117301276D01*
X117317924Y-117301276D02*
X117413162Y-117206038D01*
X117413162Y-117206038D02*
X117556019Y-117158419D01*
X117556019Y-117158419D02*
X117651257Y-117158419D01*
X117651257Y-117158419D02*
X117794114Y-117206038D01*
X117794114Y-117206038D02*
X117841733Y-117253657D01*
X118794114Y-118158419D02*
X118222686Y-118158419D01*
X118508400Y-118158419D02*
X118508400Y-117158419D01*
X118508400Y-117158419D02*
X118413162Y-117301276D01*
X118413162Y-117301276D02*
X118317924Y-117396514D01*
X118317924Y-117396514D02*
X118222686Y-117444133D01*
X71308933Y-109903419D02*
X70975600Y-109427228D01*
X70737505Y-109903419D02*
X70737505Y-108903419D01*
X70737505Y-108903419D02*
X71118457Y-108903419D01*
X71118457Y-108903419D02*
X71213695Y-108951038D01*
X71213695Y-108951038D02*
X71261314Y-108998657D01*
X71261314Y-108998657D02*
X71308933Y-109093895D01*
X71308933Y-109093895D02*
X71308933Y-109236752D01*
X71308933Y-109236752D02*
X71261314Y-109331990D01*
X71261314Y-109331990D02*
X71213695Y-109379609D01*
X71213695Y-109379609D02*
X71118457Y-109427228D01*
X71118457Y-109427228D02*
X70737505Y-109427228D01*
X71785124Y-109903419D02*
X71975600Y-109903419D01*
X71975600Y-109903419D02*
X72070838Y-109855800D01*
X72070838Y-109855800D02*
X72118457Y-109808180D01*
X72118457Y-109808180D02*
X72213695Y-109665323D01*
X72213695Y-109665323D02*
X72261314Y-109474847D01*
X72261314Y-109474847D02*
X72261314Y-109093895D01*
X72261314Y-109093895D02*
X72213695Y-108998657D01*
X72213695Y-108998657D02*
X72166076Y-108951038D01*
X72166076Y-108951038D02*
X72070838Y-108903419D01*
X72070838Y-108903419D02*
X71880362Y-108903419D01*
X71880362Y-108903419D02*
X71785124Y-108951038D01*
X71785124Y-108951038D02*
X71737505Y-108998657D01*
X71737505Y-108998657D02*
X71689886Y-109093895D01*
X71689886Y-109093895D02*
X71689886Y-109331990D01*
X71689886Y-109331990D02*
X71737505Y-109427228D01*
X71737505Y-109427228D02*
X71785124Y-109474847D01*
X71785124Y-109474847D02*
X71880362Y-109522466D01*
X71880362Y-109522466D02*
X72070838Y-109522466D01*
X72070838Y-109522466D02*
X72166076Y-109474847D01*
X72166076Y-109474847D02*
X72213695Y-109427228D01*
X72213695Y-109427228D02*
X72261314Y-109331990D01*
X142079742Y-44549219D02*
X141746409Y-44073028D01*
X141508314Y-44549219D02*
X141508314Y-43549219D01*
X141508314Y-43549219D02*
X141889266Y-43549219D01*
X141889266Y-43549219D02*
X141984504Y-43596838D01*
X141984504Y-43596838D02*
X142032123Y-43644457D01*
X142032123Y-43644457D02*
X142079742Y-43739695D01*
X142079742Y-43739695D02*
X142079742Y-43882552D01*
X142079742Y-43882552D02*
X142032123Y-43977790D01*
X142032123Y-43977790D02*
X141984504Y-44025409D01*
X141984504Y-44025409D02*
X141889266Y-44073028D01*
X141889266Y-44073028D02*
X141508314Y-44073028D01*
X142460695Y-43644457D02*
X142508314Y-43596838D01*
X142508314Y-43596838D02*
X142603552Y-43549219D01*
X142603552Y-43549219D02*
X142841647Y-43549219D01*
X142841647Y-43549219D02*
X142936885Y-43596838D01*
X142936885Y-43596838D02*
X142984504Y-43644457D01*
X142984504Y-43644457D02*
X143032123Y-43739695D01*
X143032123Y-43739695D02*
X143032123Y-43834933D01*
X143032123Y-43834933D02*
X142984504Y-43977790D01*
X142984504Y-43977790D02*
X142413076Y-44549219D01*
X142413076Y-44549219D02*
X143032123Y-44549219D01*
X143984504Y-44549219D02*
X143413076Y-44549219D01*
X143698790Y-44549219D02*
X143698790Y-43549219D01*
X143698790Y-43549219D02*
X143603552Y-43692076D01*
X143603552Y-43692076D02*
X143508314Y-43787314D01*
X143508314Y-43787314D02*
X143413076Y-43834933D01*
X122283695Y-118352219D02*
X122855123Y-118352219D01*
X122569409Y-119352219D02*
X122569409Y-118352219D01*
X123188457Y-119352219D02*
X123188457Y-118352219D01*
X123188457Y-118352219D02*
X123569409Y-118352219D01*
X123569409Y-118352219D02*
X123664647Y-118399838D01*
X123664647Y-118399838D02*
X123712266Y-118447457D01*
X123712266Y-118447457D02*
X123759885Y-118542695D01*
X123759885Y-118542695D02*
X123759885Y-118685552D01*
X123759885Y-118685552D02*
X123712266Y-118780790D01*
X123712266Y-118780790D02*
X123664647Y-118828409D01*
X123664647Y-118828409D02*
X123569409Y-118876028D01*
X123569409Y-118876028D02*
X123188457Y-118876028D01*
X124617028Y-118685552D02*
X124617028Y-119352219D01*
X124378933Y-118304600D02*
X124140838Y-119018885D01*
X124140838Y-119018885D02*
X124759885Y-119018885D01*
X198620142Y-94833619D02*
X198286809Y-94357428D01*
X198048714Y-94833619D02*
X198048714Y-93833619D01*
X198048714Y-93833619D02*
X198429666Y-93833619D01*
X198429666Y-93833619D02*
X198524904Y-93881238D01*
X198524904Y-93881238D02*
X198572523Y-93928857D01*
X198572523Y-93928857D02*
X198620142Y-94024095D01*
X198620142Y-94024095D02*
X198620142Y-94166952D01*
X198620142Y-94166952D02*
X198572523Y-94262190D01*
X198572523Y-94262190D02*
X198524904Y-94309809D01*
X198524904Y-94309809D02*
X198429666Y-94357428D01*
X198429666Y-94357428D02*
X198048714Y-94357428D01*
X199572523Y-94833619D02*
X199001095Y-94833619D01*
X199286809Y-94833619D02*
X199286809Y-93833619D01*
X199286809Y-93833619D02*
X199191571Y-93976476D01*
X199191571Y-93976476D02*
X199096333Y-94071714D01*
X199096333Y-94071714D02*
X199001095Y-94119333D01*
X199905857Y-93833619D02*
X200572523Y-93833619D01*
X200572523Y-93833619D02*
X200143952Y-94833619D01*
X153662142Y-75410219D02*
X153328809Y-74934028D01*
X153090714Y-75410219D02*
X153090714Y-74410219D01*
X153090714Y-74410219D02*
X153471666Y-74410219D01*
X153471666Y-74410219D02*
X153566904Y-74457838D01*
X153566904Y-74457838D02*
X153614523Y-74505457D01*
X153614523Y-74505457D02*
X153662142Y-74600695D01*
X153662142Y-74600695D02*
X153662142Y-74743552D01*
X153662142Y-74743552D02*
X153614523Y-74838790D01*
X153614523Y-74838790D02*
X153566904Y-74886409D01*
X153566904Y-74886409D02*
X153471666Y-74934028D01*
X153471666Y-74934028D02*
X153090714Y-74934028D01*
X154614523Y-75410219D02*
X154043095Y-75410219D01*
X154328809Y-75410219D02*
X154328809Y-74410219D01*
X154328809Y-74410219D02*
X154233571Y-74553076D01*
X154233571Y-74553076D02*
X154138333Y-74648314D01*
X154138333Y-74648314D02*
X154043095Y-74695933D01*
X154947857Y-74410219D02*
X155566904Y-74410219D01*
X155566904Y-74410219D02*
X155233571Y-74791171D01*
X155233571Y-74791171D02*
X155376428Y-74791171D01*
X155376428Y-74791171D02*
X155471666Y-74838790D01*
X155471666Y-74838790D02*
X155519285Y-74886409D01*
X155519285Y-74886409D02*
X155566904Y-74981647D01*
X155566904Y-74981647D02*
X155566904Y-75219742D01*
X155566904Y-75219742D02*
X155519285Y-75314980D01*
X155519285Y-75314980D02*
X155471666Y-75362600D01*
X155471666Y-75362600D02*
X155376428Y-75410219D01*
X155376428Y-75410219D02*
X155090714Y-75410219D01*
X155090714Y-75410219D02*
X154995476Y-75362600D01*
X154995476Y-75362600D02*
X154947857Y-75314980D01*
X59577505Y-107100019D02*
X60148933Y-107100019D01*
X59863219Y-108100019D02*
X59863219Y-107100019D01*
X60482267Y-108100019D02*
X60482267Y-107100019D01*
X60482267Y-107100019D02*
X60863219Y-107100019D01*
X60863219Y-107100019D02*
X60958457Y-107147638D01*
X60958457Y-107147638D02*
X61006076Y-107195257D01*
X61006076Y-107195257D02*
X61053695Y-107290495D01*
X61053695Y-107290495D02*
X61053695Y-107433352D01*
X61053695Y-107433352D02*
X61006076Y-107528590D01*
X61006076Y-107528590D02*
X60958457Y-107576209D01*
X60958457Y-107576209D02*
X60863219Y-107623828D01*
X60863219Y-107623828D02*
X60482267Y-107623828D01*
X62006076Y-108100019D02*
X61434648Y-108100019D01*
X61720362Y-108100019D02*
X61720362Y-107100019D01*
X61720362Y-107100019D02*
X61625124Y-107242876D01*
X61625124Y-107242876D02*
X61529886Y-107338114D01*
X61529886Y-107338114D02*
X61434648Y-107385733D01*
X62625124Y-107100019D02*
X62720362Y-107100019D01*
X62720362Y-107100019D02*
X62815600Y-107147638D01*
X62815600Y-107147638D02*
X62863219Y-107195257D01*
X62863219Y-107195257D02*
X62910838Y-107290495D01*
X62910838Y-107290495D02*
X62958457Y-107480971D01*
X62958457Y-107480971D02*
X62958457Y-107719066D01*
X62958457Y-107719066D02*
X62910838Y-107909542D01*
X62910838Y-107909542D02*
X62863219Y-108004780D01*
X62863219Y-108004780D02*
X62815600Y-108052400D01*
X62815600Y-108052400D02*
X62720362Y-108100019D01*
X62720362Y-108100019D02*
X62625124Y-108100019D01*
X62625124Y-108100019D02*
X62529886Y-108052400D01*
X62529886Y-108052400D02*
X62482267Y-108004780D01*
X62482267Y-108004780D02*
X62434648Y-107909542D01*
X62434648Y-107909542D02*
X62387029Y-107719066D01*
X62387029Y-107719066D02*
X62387029Y-107480971D01*
X62387029Y-107480971D02*
X62434648Y-107290495D01*
X62434648Y-107290495D02*
X62482267Y-107195257D01*
X62482267Y-107195257D02*
X62529886Y-107147638D01*
X62529886Y-107147638D02*
X62625124Y-107100019D01*
X128963895Y-111805619D02*
X129535323Y-111805619D01*
X129249609Y-112805619D02*
X129249609Y-111805619D01*
X129868657Y-112805619D02*
X129868657Y-111805619D01*
X129868657Y-111805619D02*
X130249609Y-111805619D01*
X130249609Y-111805619D02*
X130344847Y-111853238D01*
X130344847Y-111853238D02*
X130392466Y-111900857D01*
X130392466Y-111900857D02*
X130440085Y-111996095D01*
X130440085Y-111996095D02*
X130440085Y-112138952D01*
X130440085Y-112138952D02*
X130392466Y-112234190D01*
X130392466Y-112234190D02*
X130344847Y-112281809D01*
X130344847Y-112281809D02*
X130249609Y-112329428D01*
X130249609Y-112329428D02*
X129868657Y-112329428D01*
X131344847Y-111805619D02*
X130868657Y-111805619D01*
X130868657Y-111805619D02*
X130821038Y-112281809D01*
X130821038Y-112281809D02*
X130868657Y-112234190D01*
X130868657Y-112234190D02*
X130963895Y-112186571D01*
X130963895Y-112186571D02*
X131201990Y-112186571D01*
X131201990Y-112186571D02*
X131297228Y-112234190D01*
X131297228Y-112234190D02*
X131344847Y-112281809D01*
X131344847Y-112281809D02*
X131392466Y-112377047D01*
X131392466Y-112377047D02*
X131392466Y-112615142D01*
X131392466Y-112615142D02*
X131344847Y-112710380D01*
X131344847Y-112710380D02*
X131297228Y-112758000D01*
X131297228Y-112758000D02*
X131201990Y-112805619D01*
X131201990Y-112805619D02*
X130963895Y-112805619D01*
X130963895Y-112805619D02*
X130868657Y-112758000D01*
X130868657Y-112758000D02*
X130821038Y-112710380D01*
X162749867Y-130852000D02*
X162892724Y-130899619D01*
X162892724Y-130899619D02*
X163130819Y-130899619D01*
X163130819Y-130899619D02*
X163226057Y-130852000D01*
X163226057Y-130852000D02*
X163273676Y-130804380D01*
X163273676Y-130804380D02*
X163321295Y-130709142D01*
X163321295Y-130709142D02*
X163321295Y-130613904D01*
X163321295Y-130613904D02*
X163273676Y-130518666D01*
X163273676Y-130518666D02*
X163226057Y-130471047D01*
X163226057Y-130471047D02*
X163130819Y-130423428D01*
X163130819Y-130423428D02*
X162940343Y-130375809D01*
X162940343Y-130375809D02*
X162845105Y-130328190D01*
X162845105Y-130328190D02*
X162797486Y-130280571D01*
X162797486Y-130280571D02*
X162749867Y-130185333D01*
X162749867Y-130185333D02*
X162749867Y-130090095D01*
X162749867Y-130090095D02*
X162797486Y-129994857D01*
X162797486Y-129994857D02*
X162845105Y-129947238D01*
X162845105Y-129947238D02*
X162940343Y-129899619D01*
X162940343Y-129899619D02*
X163178438Y-129899619D01*
X163178438Y-129899619D02*
X163321295Y-129947238D01*
X163654629Y-129899619D02*
X163892724Y-130899619D01*
X163892724Y-130899619D02*
X164083200Y-130185333D01*
X164083200Y-130185333D02*
X164273676Y-130899619D01*
X164273676Y-130899619D02*
X164511772Y-129899619D01*
X164845105Y-129994857D02*
X164892724Y-129947238D01*
X164892724Y-129947238D02*
X164987962Y-129899619D01*
X164987962Y-129899619D02*
X165226057Y-129899619D01*
X165226057Y-129899619D02*
X165321295Y-129947238D01*
X165321295Y-129947238D02*
X165368914Y-129994857D01*
X165368914Y-129994857D02*
X165416533Y-130090095D01*
X165416533Y-130090095D02*
X165416533Y-130185333D01*
X165416533Y-130185333D02*
X165368914Y-130328190D01*
X165368914Y-130328190D02*
X164797486Y-130899619D01*
X164797486Y-130899619D02*
X165416533Y-130899619D01*
X193556047Y-77451809D02*
X193698904Y-77499428D01*
X193698904Y-77499428D02*
X193746523Y-77547047D01*
X193746523Y-77547047D02*
X193794142Y-77642285D01*
X193794142Y-77642285D02*
X193794142Y-77785142D01*
X193794142Y-77785142D02*
X193746523Y-77880380D01*
X193746523Y-77880380D02*
X193698904Y-77928000D01*
X193698904Y-77928000D02*
X193603666Y-77975619D01*
X193603666Y-77975619D02*
X193222714Y-77975619D01*
X193222714Y-77975619D02*
X193222714Y-76975619D01*
X193222714Y-76975619D02*
X193556047Y-76975619D01*
X193556047Y-76975619D02*
X193651285Y-77023238D01*
X193651285Y-77023238D02*
X193698904Y-77070857D01*
X193698904Y-77070857D02*
X193746523Y-77166095D01*
X193746523Y-77166095D02*
X193746523Y-77261333D01*
X193746523Y-77261333D02*
X193698904Y-77356571D01*
X193698904Y-77356571D02*
X193651285Y-77404190D01*
X193651285Y-77404190D02*
X193556047Y-77451809D01*
X193556047Y-77451809D02*
X193222714Y-77451809D01*
X194127476Y-76975619D02*
X194794142Y-76975619D01*
X194794142Y-76975619D02*
X194127476Y-77975619D01*
X194127476Y-77975619D02*
X194794142Y-77975619D01*
X195698904Y-77975619D02*
X195127476Y-77975619D01*
X195413190Y-77975619D02*
X195413190Y-76975619D01*
X195413190Y-76975619D02*
X195317952Y-77118476D01*
X195317952Y-77118476D02*
X195222714Y-77213714D01*
X195222714Y-77213714D02*
X195127476Y-77261333D01*
X63914495Y-76899419D02*
X64485923Y-76899419D01*
X64200209Y-77899419D02*
X64200209Y-76899419D01*
X64819257Y-77899419D02*
X64819257Y-76899419D01*
X64819257Y-76899419D02*
X65200209Y-76899419D01*
X65200209Y-76899419D02*
X65295447Y-76947038D01*
X65295447Y-76947038D02*
X65343066Y-76994657D01*
X65343066Y-76994657D02*
X65390685Y-77089895D01*
X65390685Y-77089895D02*
X65390685Y-77232752D01*
X65390685Y-77232752D02*
X65343066Y-77327990D01*
X65343066Y-77327990D02*
X65295447Y-77375609D01*
X65295447Y-77375609D02*
X65200209Y-77423228D01*
X65200209Y-77423228D02*
X64819257Y-77423228D01*
X65771638Y-76994657D02*
X65819257Y-76947038D01*
X65819257Y-76947038D02*
X65914495Y-76899419D01*
X65914495Y-76899419D02*
X66152590Y-76899419D01*
X66152590Y-76899419D02*
X66247828Y-76947038D01*
X66247828Y-76947038D02*
X66295447Y-76994657D01*
X66295447Y-76994657D02*
X66343066Y-77089895D01*
X66343066Y-77089895D02*
X66343066Y-77185133D01*
X66343066Y-77185133D02*
X66295447Y-77327990D01*
X66295447Y-77327990D02*
X65724019Y-77899419D01*
X65724019Y-77899419D02*
X66343066Y-77899419D01*
X67968905Y-82579619D02*
X67968905Y-81579619D01*
X67968905Y-81579619D02*
X68207000Y-81579619D01*
X68207000Y-81579619D02*
X68349857Y-81627238D01*
X68349857Y-81627238D02*
X68445095Y-81722476D01*
X68445095Y-81722476D02*
X68492714Y-81817714D01*
X68492714Y-81817714D02*
X68540333Y-82008190D01*
X68540333Y-82008190D02*
X68540333Y-82151047D01*
X68540333Y-82151047D02*
X68492714Y-82341523D01*
X68492714Y-82341523D02*
X68445095Y-82436761D01*
X68445095Y-82436761D02*
X68349857Y-82532000D01*
X68349857Y-82532000D02*
X68207000Y-82579619D01*
X68207000Y-82579619D02*
X67968905Y-82579619D01*
X69397476Y-81912952D02*
X69397476Y-82579619D01*
X69159381Y-81532000D02*
X68921286Y-82246285D01*
X68921286Y-82246285D02*
X69540333Y-82246285D01*
X151128505Y-48791019D02*
X151128505Y-47791019D01*
X151128505Y-47791019D02*
X151366600Y-47791019D01*
X151366600Y-47791019D02*
X151509457Y-47838638D01*
X151509457Y-47838638D02*
X151604695Y-47933876D01*
X151604695Y-47933876D02*
X151652314Y-48029114D01*
X151652314Y-48029114D02*
X151699933Y-48219590D01*
X151699933Y-48219590D02*
X151699933Y-48362447D01*
X151699933Y-48362447D02*
X151652314Y-48552923D01*
X151652314Y-48552923D02*
X151604695Y-48648161D01*
X151604695Y-48648161D02*
X151509457Y-48743400D01*
X151509457Y-48743400D02*
X151366600Y-48791019D01*
X151366600Y-48791019D02*
X151128505Y-48791019D01*
X152652314Y-48791019D02*
X152080886Y-48791019D01*
X152366600Y-48791019D02*
X152366600Y-47791019D01*
X152366600Y-47791019D02*
X152271362Y-47933876D01*
X152271362Y-47933876D02*
X152176124Y-48029114D01*
X152176124Y-48029114D02*
X152080886Y-48076733D01*
X87361733Y-67694980D02*
X87314114Y-67742600D01*
X87314114Y-67742600D02*
X87171257Y-67790219D01*
X87171257Y-67790219D02*
X87076019Y-67790219D01*
X87076019Y-67790219D02*
X86933162Y-67742600D01*
X86933162Y-67742600D02*
X86837924Y-67647361D01*
X86837924Y-67647361D02*
X86790305Y-67552123D01*
X86790305Y-67552123D02*
X86742686Y-67361647D01*
X86742686Y-67361647D02*
X86742686Y-67218790D01*
X86742686Y-67218790D02*
X86790305Y-67028314D01*
X86790305Y-67028314D02*
X86837924Y-66933076D01*
X86837924Y-66933076D02*
X86933162Y-66837838D01*
X86933162Y-66837838D02*
X87076019Y-66790219D01*
X87076019Y-66790219D02*
X87171257Y-66790219D01*
X87171257Y-66790219D02*
X87314114Y-66837838D01*
X87314114Y-66837838D02*
X87361733Y-66885457D01*
X87695067Y-66790219D02*
X88361733Y-66790219D01*
X88361733Y-66790219D02*
X87933162Y-67790219D01*
X158513542Y-71073419D02*
X158180209Y-70597228D01*
X157942114Y-71073419D02*
X157942114Y-70073419D01*
X157942114Y-70073419D02*
X158323066Y-70073419D01*
X158323066Y-70073419D02*
X158418304Y-70121038D01*
X158418304Y-70121038D02*
X158465923Y-70168657D01*
X158465923Y-70168657D02*
X158513542Y-70263895D01*
X158513542Y-70263895D02*
X158513542Y-70406752D01*
X158513542Y-70406752D02*
X158465923Y-70501990D01*
X158465923Y-70501990D02*
X158418304Y-70549609D01*
X158418304Y-70549609D02*
X158323066Y-70597228D01*
X158323066Y-70597228D02*
X157942114Y-70597228D01*
X158894495Y-70168657D02*
X158942114Y-70121038D01*
X158942114Y-70121038D02*
X159037352Y-70073419D01*
X159037352Y-70073419D02*
X159275447Y-70073419D01*
X159275447Y-70073419D02*
X159370685Y-70121038D01*
X159370685Y-70121038D02*
X159418304Y-70168657D01*
X159418304Y-70168657D02*
X159465923Y-70263895D01*
X159465923Y-70263895D02*
X159465923Y-70359133D01*
X159465923Y-70359133D02*
X159418304Y-70501990D01*
X159418304Y-70501990D02*
X158846876Y-71073419D01*
X158846876Y-71073419D02*
X159465923Y-71073419D01*
X159799257Y-70073419D02*
X160418304Y-70073419D01*
X160418304Y-70073419D02*
X160084971Y-70454371D01*
X160084971Y-70454371D02*
X160227828Y-70454371D01*
X160227828Y-70454371D02*
X160323066Y-70501990D01*
X160323066Y-70501990D02*
X160370685Y-70549609D01*
X160370685Y-70549609D02*
X160418304Y-70644847D01*
X160418304Y-70644847D02*
X160418304Y-70882942D01*
X160418304Y-70882942D02*
X160370685Y-70978180D01*
X160370685Y-70978180D02*
X160323066Y-71025800D01*
X160323066Y-71025800D02*
X160227828Y-71073419D01*
X160227828Y-71073419D02*
X159942114Y-71073419D01*
X159942114Y-71073419D02*
X159846876Y-71025800D01*
X159846876Y-71025800D02*
X159799257Y-70978180D01*
X90308133Y-131587419D02*
X89974800Y-131111228D01*
X89736705Y-131587419D02*
X89736705Y-130587419D01*
X89736705Y-130587419D02*
X90117657Y-130587419D01*
X90117657Y-130587419D02*
X90212895Y-130635038D01*
X90212895Y-130635038D02*
X90260514Y-130682657D01*
X90260514Y-130682657D02*
X90308133Y-130777895D01*
X90308133Y-130777895D02*
X90308133Y-130920752D01*
X90308133Y-130920752D02*
X90260514Y-131015990D01*
X90260514Y-131015990D02*
X90212895Y-131063609D01*
X90212895Y-131063609D02*
X90117657Y-131111228D01*
X90117657Y-131111228D02*
X89736705Y-131111228D01*
X91165276Y-130920752D02*
X91165276Y-131587419D01*
X90927181Y-130539800D02*
X90689086Y-131254085D01*
X90689086Y-131254085D02*
X91308133Y-131254085D01*
X198620142Y-91912619D02*
X198286809Y-91436428D01*
X198048714Y-91912619D02*
X198048714Y-90912619D01*
X198048714Y-90912619D02*
X198429666Y-90912619D01*
X198429666Y-90912619D02*
X198524904Y-90960238D01*
X198524904Y-90960238D02*
X198572523Y-91007857D01*
X198572523Y-91007857D02*
X198620142Y-91103095D01*
X198620142Y-91103095D02*
X198620142Y-91245952D01*
X198620142Y-91245952D02*
X198572523Y-91341190D01*
X198572523Y-91341190D02*
X198524904Y-91388809D01*
X198524904Y-91388809D02*
X198429666Y-91436428D01*
X198429666Y-91436428D02*
X198048714Y-91436428D01*
X199572523Y-91912619D02*
X199001095Y-91912619D01*
X199286809Y-91912619D02*
X199286809Y-90912619D01*
X199286809Y-90912619D02*
X199191571Y-91055476D01*
X199191571Y-91055476D02*
X199096333Y-91150714D01*
X199096333Y-91150714D02*
X199001095Y-91198333D01*
X199953476Y-91007857D02*
X200001095Y-90960238D01*
X200001095Y-90960238D02*
X200096333Y-90912619D01*
X200096333Y-90912619D02*
X200334428Y-90912619D01*
X200334428Y-90912619D02*
X200429666Y-90960238D01*
X200429666Y-90960238D02*
X200477285Y-91007857D01*
X200477285Y-91007857D02*
X200524904Y-91103095D01*
X200524904Y-91103095D02*
X200524904Y-91198333D01*
X200524904Y-91198333D02*
X200477285Y-91341190D01*
X200477285Y-91341190D02*
X199905857Y-91912619D01*
X199905857Y-91912619D02*
X200524904Y-91912619D01*
X76134933Y-110436819D02*
X75801600Y-109960628D01*
X75563505Y-110436819D02*
X75563505Y-109436819D01*
X75563505Y-109436819D02*
X75944457Y-109436819D01*
X75944457Y-109436819D02*
X76039695Y-109484438D01*
X76039695Y-109484438D02*
X76087314Y-109532057D01*
X76087314Y-109532057D02*
X76134933Y-109627295D01*
X76134933Y-109627295D02*
X76134933Y-109770152D01*
X76134933Y-109770152D02*
X76087314Y-109865390D01*
X76087314Y-109865390D02*
X76039695Y-109913009D01*
X76039695Y-109913009D02*
X75944457Y-109960628D01*
X75944457Y-109960628D02*
X75563505Y-109960628D01*
X76706362Y-109865390D02*
X76611124Y-109817771D01*
X76611124Y-109817771D02*
X76563505Y-109770152D01*
X76563505Y-109770152D02*
X76515886Y-109674914D01*
X76515886Y-109674914D02*
X76515886Y-109627295D01*
X76515886Y-109627295D02*
X76563505Y-109532057D01*
X76563505Y-109532057D02*
X76611124Y-109484438D01*
X76611124Y-109484438D02*
X76706362Y-109436819D01*
X76706362Y-109436819D02*
X76896838Y-109436819D01*
X76896838Y-109436819D02*
X76992076Y-109484438D01*
X76992076Y-109484438D02*
X77039695Y-109532057D01*
X77039695Y-109532057D02*
X77087314Y-109627295D01*
X77087314Y-109627295D02*
X77087314Y-109674914D01*
X77087314Y-109674914D02*
X77039695Y-109770152D01*
X77039695Y-109770152D02*
X76992076Y-109817771D01*
X76992076Y-109817771D02*
X76896838Y-109865390D01*
X76896838Y-109865390D02*
X76706362Y-109865390D01*
X76706362Y-109865390D02*
X76611124Y-109913009D01*
X76611124Y-109913009D02*
X76563505Y-109960628D01*
X76563505Y-109960628D02*
X76515886Y-110055866D01*
X76515886Y-110055866D02*
X76515886Y-110246342D01*
X76515886Y-110246342D02*
X76563505Y-110341580D01*
X76563505Y-110341580D02*
X76611124Y-110389200D01*
X76611124Y-110389200D02*
X76706362Y-110436819D01*
X76706362Y-110436819D02*
X76896838Y-110436819D01*
X76896838Y-110436819D02*
X76992076Y-110389200D01*
X76992076Y-110389200D02*
X77039695Y-110341580D01*
X77039695Y-110341580D02*
X77087314Y-110246342D01*
X77087314Y-110246342D02*
X77087314Y-110055866D01*
X77087314Y-110055866D02*
X77039695Y-109960628D01*
X77039695Y-109960628D02*
X76992076Y-109913009D01*
X76992076Y-109913009D02*
X76896838Y-109865390D01*
X144460933Y-113180019D02*
X144127600Y-112703828D01*
X143889505Y-113180019D02*
X143889505Y-112180019D01*
X143889505Y-112180019D02*
X144270457Y-112180019D01*
X144270457Y-112180019D02*
X144365695Y-112227638D01*
X144365695Y-112227638D02*
X144413314Y-112275257D01*
X144413314Y-112275257D02*
X144460933Y-112370495D01*
X144460933Y-112370495D02*
X144460933Y-112513352D01*
X144460933Y-112513352D02*
X144413314Y-112608590D01*
X144413314Y-112608590D02*
X144365695Y-112656209D01*
X144365695Y-112656209D02*
X144270457Y-112703828D01*
X144270457Y-112703828D02*
X143889505Y-112703828D01*
X145318076Y-112180019D02*
X145127600Y-112180019D01*
X145127600Y-112180019D02*
X145032362Y-112227638D01*
X145032362Y-112227638D02*
X144984743Y-112275257D01*
X144984743Y-112275257D02*
X144889505Y-112418114D01*
X144889505Y-112418114D02*
X144841886Y-112608590D01*
X144841886Y-112608590D02*
X144841886Y-112989542D01*
X144841886Y-112989542D02*
X144889505Y-113084780D01*
X144889505Y-113084780D02*
X144937124Y-113132400D01*
X144937124Y-113132400D02*
X145032362Y-113180019D01*
X145032362Y-113180019D02*
X145222838Y-113180019D01*
X145222838Y-113180019D02*
X145318076Y-113132400D01*
X145318076Y-113132400D02*
X145365695Y-113084780D01*
X145365695Y-113084780D02*
X145413314Y-112989542D01*
X145413314Y-112989542D02*
X145413314Y-112751447D01*
X145413314Y-112751447D02*
X145365695Y-112656209D01*
X145365695Y-112656209D02*
X145318076Y-112608590D01*
X145318076Y-112608590D02*
X145222838Y-112560971D01*
X145222838Y-112560971D02*
X145032362Y-112560971D01*
X145032362Y-112560971D02*
X144937124Y-112608590D01*
X144937124Y-112608590D02*
X144889505Y-112656209D01*
X144889505Y-112656209D02*
X144841886Y-112751447D01*
D15*
X110058295Y-118862819D02*
X110058295Y-119672342D01*
X110058295Y-119672342D02*
X110105914Y-119767580D01*
X110105914Y-119767580D02*
X110153533Y-119815200D01*
X110153533Y-119815200D02*
X110248771Y-119862819D01*
X110248771Y-119862819D02*
X110439247Y-119862819D01*
X110439247Y-119862819D02*
X110534485Y-119815200D01*
X110534485Y-119815200D02*
X110582104Y-119767580D01*
X110582104Y-119767580D02*
X110629723Y-119672342D01*
X110629723Y-119672342D02*
X110629723Y-118862819D01*
X111534485Y-119196152D02*
X111534485Y-119862819D01*
X111296390Y-118815200D02*
X111058295Y-119529485D01*
X111058295Y-119529485D02*
X111677342Y-119529485D01*
D12*
X49896733Y-93660380D02*
X49849114Y-93708000D01*
X49849114Y-93708000D02*
X49706257Y-93755619D01*
X49706257Y-93755619D02*
X49611019Y-93755619D01*
X49611019Y-93755619D02*
X49468162Y-93708000D01*
X49468162Y-93708000D02*
X49372924Y-93612761D01*
X49372924Y-93612761D02*
X49325305Y-93517523D01*
X49325305Y-93517523D02*
X49277686Y-93327047D01*
X49277686Y-93327047D02*
X49277686Y-93184190D01*
X49277686Y-93184190D02*
X49325305Y-92993714D01*
X49325305Y-92993714D02*
X49372924Y-92898476D01*
X49372924Y-92898476D02*
X49468162Y-92803238D01*
X49468162Y-92803238D02*
X49611019Y-92755619D01*
X49611019Y-92755619D02*
X49706257Y-92755619D01*
X49706257Y-92755619D02*
X49849114Y-92803238D01*
X49849114Y-92803238D02*
X49896733Y-92850857D01*
X50372924Y-93755619D02*
X50563400Y-93755619D01*
X50563400Y-93755619D02*
X50658638Y-93708000D01*
X50658638Y-93708000D02*
X50706257Y-93660380D01*
X50706257Y-93660380D02*
X50801495Y-93517523D01*
X50801495Y-93517523D02*
X50849114Y-93327047D01*
X50849114Y-93327047D02*
X50849114Y-92946095D01*
X50849114Y-92946095D02*
X50801495Y-92850857D01*
X50801495Y-92850857D02*
X50753876Y-92803238D01*
X50753876Y-92803238D02*
X50658638Y-92755619D01*
X50658638Y-92755619D02*
X50468162Y-92755619D01*
X50468162Y-92755619D02*
X50372924Y-92803238D01*
X50372924Y-92803238D02*
X50325305Y-92850857D01*
X50325305Y-92850857D02*
X50277686Y-92946095D01*
X50277686Y-92946095D02*
X50277686Y-93184190D01*
X50277686Y-93184190D02*
X50325305Y-93279428D01*
X50325305Y-93279428D02*
X50372924Y-93327047D01*
X50372924Y-93327047D02*
X50468162Y-93374666D01*
X50468162Y-93374666D02*
X50658638Y-93374666D01*
X50658638Y-93374666D02*
X50753876Y-93327047D01*
X50753876Y-93327047D02*
X50801495Y-93279428D01*
X50801495Y-93279428D02*
X50849114Y-93184190D01*
X71308933Y-113262580D02*
X71261314Y-113310200D01*
X71261314Y-113310200D02*
X71118457Y-113357819D01*
X71118457Y-113357819D02*
X71023219Y-113357819D01*
X71023219Y-113357819D02*
X70880362Y-113310200D01*
X70880362Y-113310200D02*
X70785124Y-113214961D01*
X70785124Y-113214961D02*
X70737505Y-113119723D01*
X70737505Y-113119723D02*
X70689886Y-112929247D01*
X70689886Y-112929247D02*
X70689886Y-112786390D01*
X70689886Y-112786390D02*
X70737505Y-112595914D01*
X70737505Y-112595914D02*
X70785124Y-112500676D01*
X70785124Y-112500676D02*
X70880362Y-112405438D01*
X70880362Y-112405438D02*
X71023219Y-112357819D01*
X71023219Y-112357819D02*
X71118457Y-112357819D01*
X71118457Y-112357819D02*
X71261314Y-112405438D01*
X71261314Y-112405438D02*
X71308933Y-112453057D01*
X71642267Y-112357819D02*
X72261314Y-112357819D01*
X72261314Y-112357819D02*
X71927981Y-112738771D01*
X71927981Y-112738771D02*
X72070838Y-112738771D01*
X72070838Y-112738771D02*
X72166076Y-112786390D01*
X72166076Y-112786390D02*
X72213695Y-112834009D01*
X72213695Y-112834009D02*
X72261314Y-112929247D01*
X72261314Y-112929247D02*
X72261314Y-113167342D01*
X72261314Y-113167342D02*
X72213695Y-113262580D01*
X72213695Y-113262580D02*
X72166076Y-113310200D01*
X72166076Y-113310200D02*
X72070838Y-113357819D01*
X72070838Y-113357819D02*
X71785124Y-113357819D01*
X71785124Y-113357819D02*
X71689886Y-113310200D01*
X71689886Y-113310200D02*
X71642267Y-113262580D01*
X201668142Y-103096219D02*
X201334809Y-102620028D01*
X201096714Y-103096219D02*
X201096714Y-102096219D01*
X201096714Y-102096219D02*
X201477666Y-102096219D01*
X201477666Y-102096219D02*
X201572904Y-102143838D01*
X201572904Y-102143838D02*
X201620523Y-102191457D01*
X201620523Y-102191457D02*
X201668142Y-102286695D01*
X201668142Y-102286695D02*
X201668142Y-102429552D01*
X201668142Y-102429552D02*
X201620523Y-102524790D01*
X201620523Y-102524790D02*
X201572904Y-102572409D01*
X201572904Y-102572409D02*
X201477666Y-102620028D01*
X201477666Y-102620028D02*
X201096714Y-102620028D01*
X202049095Y-102191457D02*
X202096714Y-102143838D01*
X202096714Y-102143838D02*
X202191952Y-102096219D01*
X202191952Y-102096219D02*
X202430047Y-102096219D01*
X202430047Y-102096219D02*
X202525285Y-102143838D01*
X202525285Y-102143838D02*
X202572904Y-102191457D01*
X202572904Y-102191457D02*
X202620523Y-102286695D01*
X202620523Y-102286695D02*
X202620523Y-102381933D01*
X202620523Y-102381933D02*
X202572904Y-102524790D01*
X202572904Y-102524790D02*
X202001476Y-103096219D01*
X202001476Y-103096219D02*
X202620523Y-103096219D01*
X203477666Y-102429552D02*
X203477666Y-103096219D01*
X203239571Y-102048600D02*
X203001476Y-102762885D01*
X203001476Y-102762885D02*
X203620523Y-102762885D01*
X198569342Y-97780019D02*
X198236009Y-97303828D01*
X197997914Y-97780019D02*
X197997914Y-96780019D01*
X197997914Y-96780019D02*
X198378866Y-96780019D01*
X198378866Y-96780019D02*
X198474104Y-96827638D01*
X198474104Y-96827638D02*
X198521723Y-96875257D01*
X198521723Y-96875257D02*
X198569342Y-96970495D01*
X198569342Y-96970495D02*
X198569342Y-97113352D01*
X198569342Y-97113352D02*
X198521723Y-97208590D01*
X198521723Y-97208590D02*
X198474104Y-97256209D01*
X198474104Y-97256209D02*
X198378866Y-97303828D01*
X198378866Y-97303828D02*
X197997914Y-97303828D01*
X198950295Y-96875257D02*
X198997914Y-96827638D01*
X198997914Y-96827638D02*
X199093152Y-96780019D01*
X199093152Y-96780019D02*
X199331247Y-96780019D01*
X199331247Y-96780019D02*
X199426485Y-96827638D01*
X199426485Y-96827638D02*
X199474104Y-96875257D01*
X199474104Y-96875257D02*
X199521723Y-96970495D01*
X199521723Y-96970495D02*
X199521723Y-97065733D01*
X199521723Y-97065733D02*
X199474104Y-97208590D01*
X199474104Y-97208590D02*
X198902676Y-97780019D01*
X198902676Y-97780019D02*
X199521723Y-97780019D01*
X199902676Y-96875257D02*
X199950295Y-96827638D01*
X199950295Y-96827638D02*
X200045533Y-96780019D01*
X200045533Y-96780019D02*
X200283628Y-96780019D01*
X200283628Y-96780019D02*
X200378866Y-96827638D01*
X200378866Y-96827638D02*
X200426485Y-96875257D01*
X200426485Y-96875257D02*
X200474104Y-96970495D01*
X200474104Y-96970495D02*
X200474104Y-97065733D01*
X200474104Y-97065733D02*
X200426485Y-97208590D01*
X200426485Y-97208590D02*
X199855057Y-97780019D01*
X199855057Y-97780019D02*
X200474104Y-97780019D01*
D16*
%TO.C,R10*%
X198957476Y-89469700D02*
X199466924Y-89469700D01*
X198957476Y-90514700D02*
X199466924Y-90514700D01*
%TO.C,R25*%
X83021700Y-75030876D02*
X83021700Y-75540324D01*
X81976700Y-75030876D02*
X81976700Y-75540324D01*
%TO.C,R26*%
X53288476Y-95692700D02*
X53797924Y-95692700D01*
X53288476Y-96737700D02*
X53797924Y-96737700D01*
%TO.C,R1*%
X62596500Y-128143724D02*
X62596500Y-127634276D01*
X63641500Y-128143724D02*
X63641500Y-127634276D01*
%TO.C,R11*%
X147178500Y-74117924D02*
X147178500Y-73608476D01*
X148223500Y-74117924D02*
X148223500Y-73608476D01*
%TO.C,R28*%
X61086276Y-83602300D02*
X61595724Y-83602300D01*
X61086276Y-84647300D02*
X61595724Y-84647300D01*
%TO.C,DS1*%
X81010000Y-63466900D02*
X79010000Y-63466900D01*
X76200000Y-63146900D02*
X121920000Y-63146900D01*
X73550000Y-42716900D02*
X73550000Y-60496900D01*
X124570000Y-42716900D02*
X124570000Y-60496900D01*
X76200000Y-40066900D02*
X121920000Y-40066900D01*
X73550000Y-60496900D02*
G75*
G03*
X76200000Y-63146900I2650000J0D01*
G01*
X121920000Y-63146900D02*
G75*
G03*
X124570000Y-60496900I0J2650000D01*
G01*
X76200000Y-40066900D02*
G75*
G03*
X73550000Y-42716900I0J-2650000D01*
G01*
X124570000Y-42716900D02*
G75*
G03*
X121920000Y-40066900I-2650000J0D01*
G01*
%TO.C,R2*%
X84008700Y-133653624D02*
X84008700Y-133144176D01*
X85053700Y-133653624D02*
X85053700Y-133144176D01*
%TO.C,U5*%
X204562400Y-96189800D02*
X204562400Y-101329800D01*
X204562400Y-96189800D02*
X205132400Y-96189800D01*
X204562400Y-101329800D02*
X205584870Y-101329800D01*
X205892400Y-94794800D02*
X207222400Y-94794800D01*
X206199930Y-101329800D02*
X207222400Y-101329800D01*
X206652400Y-96189800D02*
X207222400Y-96189800D01*
X207222400Y-94794800D02*
X207222400Y-95554800D01*
X207222400Y-96189800D02*
X207222400Y-101329800D01*
%TO.C,R19*%
X151699700Y-69725624D02*
X151699700Y-69216176D01*
X152744700Y-69725624D02*
X152744700Y-69216176D01*
%TO.C,D3*%
X154477400Y-64333800D02*
X154477400Y-63868800D01*
X154477400Y-61708800D02*
X154477400Y-61243800D01*
X149129586Y-63869627D02*
G75*
G03*
X154477399Y-64333630I2787814J1080827D01*
G01*
X149662922Y-63869228D02*
G75*
G03*
X154172083Y-63868800I2254478J1080428D01*
G01*
X154172084Y-61708800D02*
G75*
G03*
X149662921Y-61708371I-2254684J-1080000D01*
G01*
X154477399Y-61243970D02*
G75*
G03*
X149129586Y-61707973I-2559999J-1544830D01*
G01*
%TO.C,TP6*%
X149663000Y-111302800D02*
G75*
G03*
X149663000Y-111302800I-1200000J0D01*
G01*
%TO.C,R5*%
X66394876Y-126452100D02*
X66904324Y-126452100D01*
X66394876Y-127497100D02*
X66904324Y-127497100D01*
%TO.C,TP1*%
X63506200Y-67513200D02*
G75*
G03*
X63506200Y-67513200I-1200000J0D01*
G01*
%TO.C,J1*%
X41839800Y-55418200D02*
X41839800Y-58228200D01*
X35779800Y-55418200D02*
X41839800Y-55418200D01*
X28619800Y-55418200D02*
X31679800Y-55418200D01*
X42029800Y-59528200D02*
X42029800Y-61528200D01*
X41839800Y-62828200D02*
X41839800Y-65638200D01*
X41839800Y-65638200D02*
X35779800Y-65638200D01*
X31679800Y-65638200D02*
X28619800Y-65638200D01*
X28619800Y-65638200D02*
X28619800Y-55418200D01*
%TO.C,TP8*%
X72574000Y-129667000D02*
G75*
G03*
X72574000Y-129667000I-1200000J0D01*
G01*
%TO.C,C4*%
X167207620Y-120495600D02*
X167488780Y-120495600D01*
X167207620Y-121515600D02*
X167488780Y-121515600D01*
%TO.C,C6*%
X83120620Y-70813200D02*
X83401780Y-70813200D01*
X83120620Y-71833200D02*
X83401780Y-71833200D01*
%TO.C,R20*%
X161481654Y-52187780D02*
X161121420Y-51827546D01*
X162220580Y-51448854D02*
X161860346Y-51088620D01*
%TO.C,U3*%
X81639600Y-139759200D02*
X81639600Y-142259200D01*
X81639600Y-142259200D02*
X84139600Y-142259200D01*
X81939600Y-137939200D02*
X81939600Y-141959200D01*
X81939600Y-139649200D02*
X82439600Y-139649200D01*
X81939600Y-140459200D02*
X82939600Y-140459200D01*
X81939600Y-141959200D02*
X94659600Y-141959200D01*
X82439600Y-138439200D02*
X94159600Y-138439200D01*
X82439600Y-139649200D02*
X82439600Y-138439200D01*
X82939600Y-140459200D02*
X82939600Y-141959200D01*
X93659600Y-140459200D02*
X93659600Y-141959200D01*
X94159600Y-138439200D02*
X94159600Y-139649200D01*
X94159600Y-139649200D02*
X94659600Y-139649200D01*
X94659600Y-137939200D02*
X81939600Y-137939200D01*
X94659600Y-140459200D02*
X93659600Y-140459200D01*
X94659600Y-141959200D02*
X94659600Y-137939200D01*
%TO.C,C2*%
X115595348Y-112457400D02*
X117017852Y-112457400D01*
X115595348Y-115177400D02*
X117017852Y-115177400D01*
%TO.C,R18*%
X147178500Y-69767924D02*
X147178500Y-69258476D01*
X148223500Y-69767924D02*
X148223500Y-69258476D01*
%TO.C,R14*%
X162972700Y-56471524D02*
X162972700Y-55962076D01*
X164017700Y-56471524D02*
X164017700Y-55962076D01*
%TO.C,TP7*%
X97974000Y-132562600D02*
G75*
G03*
X97974000Y-132562600I-1200000J0D01*
G01*
%TO.C,U1*%
X180838600Y-83421300D02*
X182838600Y-83421300D01*
X185648600Y-83741300D02*
X139928600Y-83741300D01*
X188298600Y-104171300D02*
X188298600Y-86391300D01*
X137278600Y-104171300D02*
X137278600Y-86391300D01*
X185648600Y-106821300D02*
X139928600Y-106821300D01*
X188298600Y-86391300D02*
G75*
G03*
X185648600Y-83741300I-2650000J0D01*
G01*
X139928600Y-83741300D02*
G75*
G03*
X137278600Y-86391300I0J-2650000D01*
G01*
X185648600Y-106821300D02*
G75*
G03*
X188298600Y-104171300I0J2650000D01*
G01*
X137278600Y-104171300D02*
G75*
G03*
X139928600Y-106821300I2650000J0D01*
G01*
%TO.C,R16*%
X156474900Y-74099124D02*
X156474900Y-73589676D01*
X157519900Y-74099124D02*
X157519900Y-73589676D01*
%TO.C,R3*%
X115381300Y-123189276D02*
X115381300Y-123698724D01*
X114336300Y-123189276D02*
X114336300Y-123698724D01*
%TO.C,U2*%
X60493600Y-143418800D02*
X62493600Y-143418800D01*
X60493600Y-143418800D02*
X60493600Y-141808800D01*
X73033600Y-143138800D02*
X60783600Y-143138800D01*
X60773600Y-143128800D02*
X60773600Y-137388800D01*
X60773600Y-137378800D02*
X73033600Y-137378800D01*
X73033600Y-137378800D02*
X73033600Y-143138800D01*
%TO.C,R15*%
X138847300Y-47195824D02*
X138847300Y-46686376D01*
X139892300Y-47195824D02*
X139892300Y-46686376D01*
%TO.C,R7*%
X140183324Y-111799900D02*
X139673876Y-111799900D01*
X140183324Y-110754900D02*
X139673876Y-110754900D01*
%TO.C,SW1*%
X74325600Y-101205600D02*
X74325600Y-102705600D01*
X75575600Y-105205600D02*
X80075600Y-105205600D01*
X80075600Y-98705600D02*
X75575600Y-98705600D01*
X81325600Y-102705600D02*
X81325600Y-101205600D01*
%TO.C,D2*%
X154299600Y-43404200D02*
X154299600Y-40314200D01*
X148749601Y-41858738D02*
G75*
G03*
X154299599Y-43404030I2989999J-462D01*
G01*
X154299600Y-40314370D02*
G75*
G03*
X148749600Y-41859662I-2560000J-1544830D01*
G01*
X154239600Y-41859200D02*
G75*
G03*
X154239600Y-41859200I-2500000J0D01*
G01*
%TO.C,C5*%
X167335148Y-115429200D02*
X168757652Y-115429200D01*
X167335148Y-118149200D02*
X168757652Y-118149200D01*
%TO.C,TP12*%
X76028400Y-71323200D02*
G75*
G03*
X76028400Y-71323200I-1200000J0D01*
G01*
%TO.C,C8*%
X48866800Y-68391600D02*
X49366800Y-68391600D01*
X49116800Y-68141600D02*
X49116800Y-68641600D01*
X49606800Y-68756037D02*
X49606800Y-68891600D01*
X49606800Y-68756037D02*
X50671237Y-67691600D01*
X49606800Y-71147163D02*
X49606800Y-71011600D01*
X49606800Y-71147163D02*
X50671237Y-72211600D01*
X50671237Y-67691600D02*
X54126800Y-67691600D01*
X50671237Y-72211600D02*
X54126800Y-72211600D01*
X54126800Y-67691600D02*
X54126800Y-68891600D01*
X54126800Y-72211600D02*
X54126800Y-71011600D01*
%TO.C,TP11*%
X195383000Y-100634800D02*
G75*
G03*
X195383000Y-100634800I-1200000J0D01*
G01*
%TO.C,TP9*%
X172065800Y-109448600D02*
G75*
G03*
X172065800Y-109448600I-1200000J0D01*
G01*
%TO.C,TP3*%
X63430000Y-72872600D02*
G75*
G03*
X63430000Y-72872600I-1200000J0D01*
G01*
%TO.C,U6*%
X57799600Y-80486000D02*
X57799600Y-75845000D01*
X57799600Y-80486000D02*
X47559600Y-80486000D01*
X57799600Y-78976000D02*
X47559600Y-78976000D01*
X57799600Y-75845000D02*
X47559600Y-75845000D01*
X54529600Y-80486000D02*
X54529600Y-78976000D01*
X50828600Y-80486000D02*
X50828600Y-78976000D01*
X47559600Y-80486000D02*
X47559600Y-75845000D01*
%TO.C,C1*%
X115480220Y-117092000D02*
X115761380Y-117092000D01*
X115480220Y-118112000D02*
X115761380Y-118112000D01*
%TO.C,R9*%
X70884724Y-108512500D02*
X70375276Y-108512500D01*
X70884724Y-107467500D02*
X70375276Y-107467500D01*
%TO.C,R21*%
X140572820Y-42330254D02*
X140933054Y-41970020D01*
X141311746Y-43069180D02*
X141671980Y-42708946D01*
%TO.C,TP4*%
X121875400Y-119532400D02*
G75*
G03*
X121875400Y-119532400I-1200000J0D01*
G01*
%TO.C,R17*%
X199008276Y-95286300D02*
X199517724Y-95286300D01*
X199008276Y-96331300D02*
X199517724Y-96331300D01*
%TO.C,R13*%
X151688100Y-74075624D02*
X151688100Y-73566176D01*
X152733100Y-74075624D02*
X152733100Y-73566176D01*
%TO.C,TP10*%
X65919200Y-107975400D02*
G75*
G03*
X65919200Y-107975400I-1200000J0D01*
G01*
%TO.C,TP5*%
X136074000Y-111277400D02*
G75*
G03*
X136074000Y-111277400I-1200000J0D01*
G01*
%TO.C,SW2*%
X167933200Y-129694800D02*
X160133200Y-129694800D01*
X167933200Y-123644800D02*
X167933200Y-129694800D01*
X166583200Y-124754800D02*
X161503200Y-124754800D01*
X166583200Y-123744800D02*
X166583200Y-124754800D01*
X161503200Y-124754800D02*
X161503200Y-123744800D01*
X160133200Y-129694800D02*
X160133200Y-123644800D01*
X160133200Y-123644800D02*
X167933200Y-123644800D01*
%TO.C,BZ1*%
X197206800Y-79038400D02*
X201206800Y-79038400D01*
X196176800Y-78748400D02*
X202196800Y-78748400D01*
X202196800Y-78748400D02*
X202196800Y-73448400D01*
X196176800Y-78168400D02*
X196776800Y-78168400D01*
X196776800Y-78168400D02*
X196776800Y-76568400D01*
X201196800Y-77368400D02*
X200666800Y-77118400D01*
X201196800Y-77368400D02*
X201196800Y-74828400D01*
X202196800Y-77368400D02*
X201196800Y-77368400D01*
X200666800Y-77118400D02*
X200666800Y-75078400D01*
X202196800Y-77118400D02*
X201196800Y-77118400D01*
X196776800Y-76568400D02*
X196176800Y-76568400D01*
X196176800Y-75628400D02*
X196776800Y-75628400D01*
X196776800Y-75628400D02*
X196776800Y-74028400D01*
X200666800Y-75078400D02*
X201196800Y-74828400D01*
X202196800Y-75078400D02*
X201196800Y-75078400D01*
X201196800Y-74828400D02*
X202196800Y-74828400D01*
X196776800Y-74028400D02*
X196176800Y-74028400D01*
X196176800Y-73448400D02*
X196176800Y-78748400D01*
X202196800Y-73448400D02*
X196176800Y-73448400D01*
%TO.C,TP2*%
X63557000Y-77952600D02*
G75*
G03*
X63557000Y-77952600I-1200000J0D01*
G01*
%TO.C,D4*%
X66347000Y-83124800D02*
X66347000Y-85124800D01*
X66347000Y-83124800D02*
X70357000Y-83124800D01*
X66347000Y-85124800D02*
X70357000Y-85124800D01*
%TO.C,D1*%
X150296200Y-54787400D02*
X153386200Y-54787400D01*
X151841662Y-49237401D02*
G75*
G03*
X150296370Y-54787399I-462J-2989999D01*
G01*
X153386030Y-54787400D02*
G75*
G03*
X151840738Y-49237400I-1544830J2560000D01*
G01*
X154341200Y-52227400D02*
G75*
G03*
X154341200Y-52227400I-2500000J0D01*
G01*
%TO.C,C7*%
X83311948Y-65950000D02*
X84734452Y-65950000D01*
X83311948Y-68670000D02*
X84734452Y-68670000D01*
%TO.C,R23*%
X156474900Y-69749124D02*
X156474900Y-69239676D01*
X157519900Y-69749124D02*
X157519900Y-69239676D01*
%TO.C,R4*%
X90220076Y-132040100D02*
X90729524Y-132040100D01*
X90220076Y-133085100D02*
X90729524Y-133085100D01*
%TO.C,R12*%
X199008276Y-92365300D02*
X199517724Y-92365300D01*
X199008276Y-93410300D02*
X199517724Y-93410300D01*
%TO.C,R8*%
X74051900Y-109169924D02*
X74051900Y-108660476D01*
X75096900Y-109169924D02*
X75096900Y-108660476D01*
%TO.C,R6*%
X143483876Y-110754900D02*
X143993324Y-110754900D01*
X143483876Y-111799900D02*
X143993324Y-111799900D01*
%TO.C,C9*%
X53473400Y-91296363D02*
X53473400Y-90010800D01*
X53473400Y-91296363D02*
X52408963Y-92360800D01*
X53473400Y-86605237D02*
X53473400Y-87890800D01*
X53473400Y-86605237D02*
X52408963Y-85540800D01*
X52408963Y-92360800D02*
X46653400Y-92360800D01*
X52408963Y-85540800D02*
X46653400Y-85540800D01*
X46653400Y-92360800D02*
X46653400Y-90010800D01*
X46653400Y-85540800D02*
X46653400Y-87890800D01*
%TO.C,C3*%
X69210000Y-112020580D02*
X69210000Y-111739420D01*
X70230000Y-112020580D02*
X70230000Y-111739420D01*
%TO.C,R24*%
X200649100Y-101294476D02*
X200649100Y-101803924D01*
X199604100Y-101294476D02*
X199604100Y-101803924D01*
%TO.C,R22*%
X198957476Y-98232700D02*
X199466924Y-98232700D01*
X198957476Y-99277700D02*
X199466924Y-99277700D01*
%TD*%
%LPC*%
%TO.C,*%
G36*
X185355389Y-63250804D02*
G01*
X185359204Y-63345522D01*
X185362804Y-63497714D01*
X185366149Y-63702741D01*
X185369196Y-63955962D01*
X185371904Y-64252738D01*
X185374233Y-64588428D01*
X185376141Y-64958394D01*
X185377587Y-65357994D01*
X185378529Y-65782589D01*
X185378926Y-66227539D01*
X185378937Y-66313929D01*
X185378903Y-66848034D01*
X185378697Y-67319947D01*
X185378160Y-67734229D01*
X185377134Y-68095442D01*
X185375460Y-68408149D01*
X185372978Y-68676911D01*
X185369530Y-68906291D01*
X185364957Y-69100849D01*
X185359100Y-69265149D01*
X185351801Y-69403751D01*
X185342900Y-69521219D01*
X185332240Y-69622113D01*
X185319659Y-69710996D01*
X185305001Y-69792429D01*
X185288107Y-69870975D01*
X185268816Y-69951195D01*
X185249646Y-70027136D01*
X185141265Y-70340973D01*
X184978717Y-70659817D01*
X184771853Y-70969750D01*
X184530523Y-71256856D01*
X184264575Y-71507218D01*
X184127300Y-71612950D01*
X183758611Y-71838570D01*
X183364171Y-72010412D01*
X182953486Y-72126244D01*
X182536060Y-72183836D01*
X182121401Y-72180957D01*
X181857655Y-72145564D01*
X181429006Y-72039343D01*
X181042996Y-71887791D01*
X180689296Y-71686204D01*
X180439127Y-71499442D01*
X180154842Y-71237979D01*
X179918687Y-70959273D01*
X179721830Y-70650208D01*
X179555441Y-70297667D01*
X179463134Y-70049827D01*
X179358444Y-69743430D01*
X179345203Y-68533509D01*
X179331962Y-67323588D01*
X180052430Y-67323588D01*
X180772898Y-67323588D01*
X180774698Y-68216426D01*
X180776227Y-68470249D01*
X180779587Y-68716601D01*
X180784467Y-68943161D01*
X180790557Y-69137613D01*
X180797549Y-69287638D01*
X180803678Y-69368314D01*
X180867369Y-69667928D01*
X180989472Y-69943878D01*
X181163887Y-70189649D01*
X181384513Y-70398725D01*
X181645248Y-70564593D01*
X181939993Y-70680739D01*
X182060913Y-70710749D01*
X182368055Y-70742591D01*
X182668241Y-70711597D01*
X182954136Y-70621683D01*
X183218404Y-70476766D01*
X183453711Y-70280762D01*
X183652721Y-70037589D01*
X183792754Y-69786025D01*
X183820302Y-69721145D01*
X183844323Y-69653061D01*
X183865051Y-69576979D01*
X183882718Y-69488104D01*
X183897556Y-69381640D01*
X183909798Y-69252792D01*
X183919678Y-69096766D01*
X183927427Y-68908766D01*
X183933279Y-68683997D01*
X183937466Y-68417664D01*
X183940221Y-68104972D01*
X183941776Y-67741126D01*
X183942365Y-67321331D01*
X183942220Y-66840791D01*
X183942095Y-66708979D01*
X183939612Y-64336334D01*
X184119496Y-64186137D01*
X184231139Y-64093882D01*
X184340888Y-64004754D01*
X184413603Y-63946990D01*
X184480331Y-63894371D01*
X184586412Y-63809963D01*
X184719211Y-63703849D01*
X184866092Y-63586116D01*
X184925843Y-63538120D01*
X185065397Y-63427325D01*
X185187259Y-63333170D01*
X185281774Y-63262912D01*
X185339287Y-63223811D01*
X185351401Y-63218200D01*
X185355389Y-63250804D01*
G37*
G36*
X182624653Y-51927659D02*
G01*
X182663142Y-51932069D01*
X183048212Y-51996722D01*
X183392960Y-52094737D01*
X183718712Y-52233869D01*
X184046794Y-52421874D01*
X184093923Y-52452404D01*
X184441489Y-52719315D01*
X184740882Y-53030095D01*
X184988932Y-53379313D01*
X185182473Y-53761537D01*
X185318335Y-54171333D01*
X185393349Y-54603270D01*
X185400855Y-54693050D01*
X185397956Y-55126237D01*
X185330761Y-55548782D01*
X185201450Y-55956116D01*
X185012204Y-56343666D01*
X184765203Y-56706861D01*
X184462629Y-57041130D01*
X184154211Y-57306135D01*
X184037757Y-57383544D01*
X183879301Y-57473436D01*
X183699585Y-57565501D01*
X183519347Y-57649426D01*
X183359330Y-57714902D01*
X183276183Y-57742627D01*
X183159540Y-57776666D01*
X183051556Y-57809326D01*
X183025855Y-57817386D01*
X182955848Y-57830577D01*
X182834902Y-57844186D01*
X182678807Y-57856770D01*
X182503352Y-57866886D01*
X182466109Y-57868538D01*
X182006495Y-57887818D01*
X182015518Y-57173574D01*
X182024540Y-56459330D01*
X182362882Y-56436868D01*
X182716166Y-56384627D01*
X183032980Y-56278083D01*
X183311085Y-56118661D01*
X183548247Y-55907784D01*
X183742229Y-55646878D01*
X183815872Y-55511419D01*
X183865890Y-55402897D01*
X183898726Y-55308531D01*
X183918837Y-55207168D01*
X183930678Y-55077659D01*
X183937381Y-54934565D01*
X183939214Y-54714688D01*
X183921882Y-54538547D01*
X183879575Y-54384477D01*
X183806481Y-54230809D01*
X183705062Y-54068190D01*
X183506404Y-53830514D01*
X183256417Y-53631346D01*
X182961069Y-53474938D01*
X182778890Y-53407869D01*
X182636261Y-53380360D01*
X182452874Y-53369662D01*
X182252326Y-53374866D01*
X182058219Y-53395063D01*
X181894152Y-53429345D01*
X181850563Y-53443617D01*
X181546135Y-53589245D01*
X181288051Y-53782907D01*
X181076617Y-54024299D01*
X180912136Y-54313115D01*
X180865464Y-54426019D01*
X180790853Y-54623588D01*
X180782928Y-57660907D01*
X180775003Y-60698226D01*
X180579736Y-60865112D01*
X180448753Y-60975334D01*
X180299372Y-61098505D01*
X180175239Y-61198883D01*
X180071576Y-61282019D01*
X179985544Y-61351839D01*
X179932769Y-61395642D01*
X179927206Y-61400496D01*
X179886428Y-61435237D01*
X179806683Y-61501867D01*
X179700576Y-61589886D01*
X179611821Y-61663175D01*
X179335238Y-61891126D01*
X179345471Y-58123849D01*
X179347332Y-57503756D01*
X179349390Y-56947639D01*
X179351682Y-56452719D01*
X179354244Y-56016217D01*
X179357113Y-55635355D01*
X179360325Y-55307354D01*
X179363917Y-55029435D01*
X179367924Y-54798820D01*
X179372383Y-54612731D01*
X179377330Y-54468388D01*
X179382802Y-54363014D01*
X179388836Y-54293828D01*
X179395466Y-54258054D01*
X179396069Y-54256439D01*
X179426708Y-54175406D01*
X179469625Y-54055702D01*
X179515995Y-53921986D01*
X179520011Y-53910178D01*
X179686149Y-53522877D01*
X179909971Y-53162356D01*
X180185466Y-52835418D01*
X180506623Y-52548865D01*
X180867431Y-52309499D01*
X180993989Y-52242117D01*
X181391791Y-52075790D01*
X181803609Y-51966556D01*
X182218284Y-51916488D01*
X182624653Y-51927659D01*
G37*
G36*
X177501939Y-60228145D02*
G01*
X177501939Y-60948555D01*
X176439209Y-60948555D01*
X176136599Y-60948929D01*
X175892070Y-60950335D01*
X175696950Y-60953204D01*
X175542569Y-60957963D01*
X175420256Y-60965043D01*
X175321339Y-60974870D01*
X175237149Y-60987875D01*
X175159013Y-61004487D01*
X175121698Y-61013717D01*
X174823218Y-61121400D01*
X174564142Y-61277128D01*
X174346742Y-61473474D01*
X174173289Y-61703012D01*
X174046056Y-61958312D01*
X173967313Y-62231949D01*
X173939332Y-62516494D01*
X173964385Y-62804519D01*
X174044743Y-63088598D01*
X174182678Y-63361303D01*
X174339746Y-63570548D01*
X174437878Y-63665062D01*
X174566852Y-63767190D01*
X174693111Y-63851287D01*
X174778577Y-63901229D01*
X174856947Y-63943532D01*
X174934418Y-63978830D01*
X175017185Y-64007757D01*
X175111445Y-64030946D01*
X175223393Y-64049032D01*
X175359227Y-64062649D01*
X175525142Y-64072432D01*
X175727335Y-64079013D01*
X175972001Y-64083026D01*
X176265338Y-64085107D01*
X176613540Y-64085889D01*
X176987050Y-64086006D01*
X177337682Y-64085354D01*
X177667327Y-64083475D01*
X177969387Y-64080487D01*
X178237268Y-64076505D01*
X178464372Y-64071647D01*
X178644105Y-64066028D01*
X178769869Y-64059765D01*
X178832918Y-64053407D01*
X179029351Y-64003961D01*
X179235370Y-63926736D01*
X179456756Y-63818278D01*
X179699289Y-63675131D01*
X179968750Y-63493838D01*
X180270918Y-63270945D01*
X180611574Y-63002996D01*
X180672767Y-62953496D01*
X180842700Y-62815845D01*
X181005350Y-62684630D01*
X181149666Y-62568727D01*
X181264594Y-62477012D01*
X181339085Y-62418359D01*
X181340309Y-62417412D01*
X181431683Y-62345362D01*
X181505813Y-62284439D01*
X181535117Y-62258583D01*
X181588765Y-62212737D01*
X181670087Y-62148718D01*
X181702003Y-62124594D01*
X181784259Y-62061793D01*
X181846410Y-62011892D01*
X181860095Y-61999935D01*
X181906573Y-61960241D01*
X181983049Y-61898129D01*
X182022972Y-61866426D01*
X182115978Y-61792873D01*
X182239845Y-61694547D01*
X182384446Y-61579527D01*
X182539652Y-61455892D01*
X182695335Y-61331722D01*
X182841366Y-61215096D01*
X182967617Y-61114093D01*
X183063960Y-61036793D01*
X183120266Y-60991274D01*
X183125986Y-60986567D01*
X183243089Y-60891717D01*
X183391514Y-60774874D01*
X183557504Y-60646514D01*
X183727306Y-60517113D01*
X183887164Y-60397149D01*
X184023324Y-60297098D01*
X184122031Y-60227437D01*
X184127300Y-60223890D01*
X184336437Y-60096465D01*
X184584762Y-59965135D01*
X184850934Y-59839744D01*
X185113610Y-59730135D01*
X185351447Y-59646154D01*
X185429008Y-59623511D01*
X185762780Y-59533160D01*
X187531768Y-59520812D01*
X187973965Y-59518162D01*
X188355463Y-59517052D01*
X188682303Y-59517805D01*
X188960529Y-59520748D01*
X189196184Y-59526205D01*
X189395311Y-59534499D01*
X189563954Y-59545955D01*
X189708154Y-59560898D01*
X189833956Y-59579652D01*
X189947402Y-59602542D01*
X190054535Y-59629892D01*
X190161285Y-59661990D01*
X190372939Y-59739938D01*
X190595733Y-59839858D01*
X190808378Y-59950983D01*
X190989584Y-60062546D01*
X191069744Y-60121481D01*
X191389943Y-60413619D01*
X191666520Y-60737905D01*
X191892504Y-61084619D01*
X192060922Y-61444042D01*
X192101282Y-61559411D01*
X192152959Y-61726895D01*
X192189711Y-61867659D01*
X192213942Y-61999771D01*
X192228055Y-62141302D01*
X192234453Y-62310319D01*
X192235542Y-62524893D01*
X192235371Y-62567346D01*
X192233898Y-62769291D01*
X192230184Y-62920853D01*
X192221924Y-63038403D01*
X192206814Y-63138311D01*
X192182548Y-63236949D01*
X192146824Y-63350688D01*
X192109750Y-63459753D01*
X191972562Y-63805101D01*
X191809472Y-64105969D01*
X191607324Y-64383403D01*
X191372859Y-64638720D01*
X191087870Y-64895948D01*
X190797414Y-65100262D01*
X190482638Y-65264150D01*
X190337609Y-65324333D01*
X190207189Y-65373357D01*
X190087071Y-65413542D01*
X189968834Y-65445759D01*
X189844053Y-65470877D01*
X189704304Y-65489765D01*
X189541164Y-65503294D01*
X189346208Y-65512334D01*
X189111014Y-65517754D01*
X188827157Y-65520423D01*
X188486214Y-65521212D01*
X188430768Y-65521222D01*
X187248062Y-65521222D01*
X187248062Y-64806199D01*
X187248062Y-64091175D01*
X188441295Y-64080246D01*
X189634527Y-64069317D01*
X189901544Y-63937234D01*
X190178454Y-63767488D01*
X190404487Y-63562259D01*
X190580015Y-63328696D01*
X190705407Y-63073951D01*
X190781037Y-62805174D01*
X190807275Y-62529515D01*
X190784493Y-62254123D01*
X190713062Y-61986150D01*
X190593353Y-61732745D01*
X190425738Y-61501059D01*
X190210587Y-61298242D01*
X189948274Y-61131444D01*
X189751347Y-61045245D01*
X189700660Y-61026940D01*
X189652358Y-61011620D01*
X189600160Y-60998974D01*
X189537786Y-60988689D01*
X189458953Y-60980451D01*
X189357382Y-60973948D01*
X189226792Y-60968868D01*
X189060902Y-60964897D01*
X188853432Y-60961722D01*
X188598099Y-60959032D01*
X188288624Y-60956513D01*
X187918726Y-60953852D01*
X187915605Y-60953830D01*
X187490748Y-60951448D01*
X187128156Y-60950801D01*
X186823360Y-60951961D01*
X186571891Y-60954999D01*
X186369281Y-60959987D01*
X186211061Y-60966996D01*
X186092762Y-60976097D01*
X186029797Y-60983986D01*
X185742040Y-61051861D01*
X185436604Y-61164981D01*
X185134950Y-61314514D01*
X184947518Y-61429421D01*
X184879989Y-61477981D01*
X184765224Y-61564622D01*
X184608003Y-61685592D01*
X184413108Y-61837136D01*
X184185321Y-62015501D01*
X183929423Y-62216935D01*
X183650197Y-62437683D01*
X183352425Y-62673992D01*
X183040887Y-62922110D01*
X182766375Y-63141454D01*
X182447762Y-63395956D01*
X182139495Y-63641296D01*
X181846268Y-63873790D01*
X181572778Y-64089757D01*
X181323720Y-64285515D01*
X181103789Y-64457382D01*
X180917682Y-64601676D01*
X180770093Y-64714715D01*
X180665718Y-64792817D01*
X180613549Y-64829590D01*
X180250136Y-65048611D01*
X179907498Y-65220570D01*
X179568340Y-65353235D01*
X179231636Y-65450432D01*
X179168164Y-65465412D01*
X179106262Y-65478102D01*
X179040060Y-65488680D01*
X178963692Y-65497325D01*
X178871289Y-65504215D01*
X178756985Y-65509527D01*
X178614912Y-65513441D01*
X178439201Y-65516133D01*
X178223986Y-65517782D01*
X177963399Y-65518567D01*
X177651572Y-65518664D01*
X177282638Y-65518253D01*
X177012056Y-65517802D01*
X176556752Y-65516533D01*
X176164585Y-65514406D01*
X175831943Y-65511342D01*
X175555215Y-65507267D01*
X175330788Y-65502102D01*
X175155051Y-65495772D01*
X175024391Y-65488200D01*
X174935196Y-65479309D01*
X174898522Y-65472964D01*
X174458087Y-65341626D01*
X174051116Y-65154694D01*
X173681635Y-64914264D01*
X173455469Y-64722793D01*
X173141644Y-64387253D01*
X172889875Y-64027439D01*
X172699615Y-63642244D01*
X172570313Y-63230565D01*
X172502268Y-62800986D01*
X172494776Y-62355897D01*
X172549970Y-61925288D01*
X172664476Y-61514037D01*
X172834922Y-61127021D01*
X173057934Y-60769117D01*
X173330138Y-60445203D01*
X173648161Y-60160157D01*
X174008629Y-59918855D01*
X174408168Y-59726176D01*
X174698259Y-59626058D01*
X175015342Y-59532993D01*
X176258640Y-59520364D01*
X177501939Y-59507735D01*
X177501939Y-60228145D01*
G37*
%TD*%
D17*
%TO.C,R10*%
X198299700Y-89992200D03*
X200124700Y-89992200D03*
%TD*%
D18*
%TO.C,R25*%
X82499200Y-74373100D03*
X82499200Y-76198100D03*
%TD*%
D17*
%TO.C,R26*%
X52630700Y-96215200D03*
X54455700Y-96215200D03*
%TD*%
D19*
%TO.C,R1*%
X63119000Y-128801500D03*
X63119000Y-126976500D03*
%TD*%
%TO.C,R11*%
X147701000Y-74775700D03*
X147701000Y-72950700D03*
%TD*%
D17*
%TO.C,R28*%
X60428500Y-84124800D03*
X62253500Y-84124800D03*
%TD*%
D20*
%TO.C,DS1*%
X80010000Y-61766900D03*
D21*
X82550000Y-61766900D03*
X85090000Y-61766900D03*
X87630000Y-61766900D03*
X90170000Y-61766900D03*
X92710000Y-61766900D03*
X95250000Y-61766900D03*
X97790000Y-61766900D03*
X100330000Y-61766900D03*
X102870000Y-61766900D03*
X105410000Y-61766900D03*
X107950000Y-61766900D03*
X110490000Y-61766900D03*
X113030000Y-61766900D03*
X115570000Y-61766900D03*
X118110000Y-61766900D03*
X118110000Y-41446900D03*
X115570000Y-41446900D03*
X113030000Y-41446900D03*
X110490000Y-41446900D03*
X107950000Y-41446900D03*
X105410000Y-41446900D03*
X102870000Y-41446900D03*
X100330000Y-41446900D03*
X97790000Y-41446900D03*
X95250000Y-41446900D03*
X92710000Y-41446900D03*
X90170000Y-41446900D03*
%TD*%
D19*
%TO.C,R2*%
X84531200Y-134311400D03*
X84531200Y-132486400D03*
%TD*%
D22*
%TO.C,R27*%
X58877200Y-96169200D03*
X61417200Y-91569200D03*
X63957200Y-96169200D03*
%TD*%
D23*
%TO.C,U5*%
X205892400Y-95554800D03*
D24*
X205892400Y-96824800D03*
X205892400Y-98094800D03*
X205892400Y-99364800D03*
X205892400Y-100634800D03*
%TD*%
D19*
%TO.C,R19*%
X152222200Y-70383400D03*
X152222200Y-68558400D03*
%TD*%
D25*
%TO.C,D3*%
X153822400Y-62788800D03*
D26*
X152552400Y-62788800D03*
X151282400Y-62788800D03*
X150012400Y-62788800D03*
%TD*%
D27*
%TO.C,TP6*%
X148463000Y-111302800D03*
%TD*%
D17*
%TO.C,R5*%
X65737100Y-126974600D03*
X67562100Y-126974600D03*
%TD*%
D27*
%TO.C,TP1*%
X62306200Y-67513200D03*
%TD*%
D21*
%TO.C,J1*%
X31729800Y-60528200D03*
D28*
X40729800Y-60528200D03*
D29*
X34729800Y-60528200D03*
D30*
X33729800Y-56028200D03*
X33729800Y-65028200D03*
%TD*%
D27*
%TO.C,TP8*%
X71374000Y-129667000D03*
%TD*%
D31*
%TO.C,C4*%
X166573200Y-121005600D03*
X168123200Y-121005600D03*
%TD*%
%TO.C,C6*%
X82486200Y-71323200D03*
X84036200Y-71323200D03*
%TD*%
D32*
%TO.C,R20*%
X162316235Y-52283435D03*
X161025765Y-50992965D03*
%TD*%
D33*
%TO.C,U3*%
X84549600Y-139649200D03*
D34*
X87049600Y-139649200D03*
X89549600Y-139649200D03*
X92049600Y-139649200D03*
%TD*%
D35*
%TO.C,C2*%
X114831600Y-113817400D03*
X117781600Y-113817400D03*
%TD*%
D19*
%TO.C,R18*%
X147701000Y-70425700D03*
X147701000Y-68600700D03*
%TD*%
%TO.C,R14*%
X163495200Y-57129300D03*
X163495200Y-55304300D03*
%TD*%
D27*
%TO.C,TP7*%
X96774000Y-132562600D03*
%TD*%
D20*
%TO.C,U1*%
X181838600Y-85121300D03*
D21*
X179298600Y-85121300D03*
X176758600Y-85121300D03*
X174218600Y-85121300D03*
X171678600Y-85121300D03*
X169138600Y-85121300D03*
X166598600Y-85121300D03*
X164058600Y-85121300D03*
X161518600Y-85121300D03*
X158978600Y-85121300D03*
X156438600Y-85121300D03*
X153898600Y-85121300D03*
X151358600Y-85121300D03*
X148818600Y-85121300D03*
X146278600Y-85121300D03*
X143738600Y-85121300D03*
X143738600Y-105441300D03*
X146278600Y-105441300D03*
X148818600Y-105441300D03*
X151358600Y-105441300D03*
X153898600Y-105441300D03*
X156438600Y-105441300D03*
X158978600Y-105441300D03*
X161518600Y-105441300D03*
X164058600Y-105441300D03*
X166598600Y-105441300D03*
X169138600Y-105441300D03*
X171678600Y-105441300D03*
%TD*%
D19*
%TO.C,R16*%
X156997400Y-74756900D03*
X156997400Y-72931900D03*
%TD*%
D18*
%TO.C,R3*%
X114858800Y-122531500D03*
X114858800Y-124356500D03*
%TD*%
D36*
%TO.C,U2*%
X63093600Y-140258800D03*
D37*
X65633600Y-140258800D03*
X68173600Y-140258800D03*
X70713600Y-140258800D03*
%TD*%
D19*
%TO.C,R15*%
X139369800Y-47853600D03*
X139369800Y-46028600D03*
%TD*%
D38*
%TO.C,R7*%
X140841100Y-111277400D03*
X139016100Y-111277400D03*
%TD*%
D27*
%TO.C,SW1*%
X74575600Y-99705600D03*
X81075600Y-99705600D03*
X74575600Y-104205600D03*
X81075600Y-104205600D03*
%TD*%
D39*
%TO.C,D2*%
X153009600Y-41859200D03*
D40*
X150469600Y-41859200D03*
%TD*%
D35*
%TO.C,C5*%
X166571400Y-116789200D03*
X169521400Y-116789200D03*
%TD*%
D27*
%TO.C,TP12*%
X74828400Y-71323200D03*
%TD*%
D41*
%TO.C,C8*%
X50066800Y-69951600D03*
X53666800Y-69951600D03*
%TD*%
D27*
%TO.C,TP11*%
X194183000Y-100634800D03*
%TD*%
%TO.C,TP9*%
X170865800Y-109448600D03*
%TD*%
%TO.C,TP3*%
X62230000Y-72872600D03*
%TD*%
D42*
%TO.C,U6*%
X55219600Y-77216000D03*
D43*
X52679600Y-77216000D03*
X50139600Y-77216000D03*
%TD*%
D31*
%TO.C,C1*%
X114845800Y-117602000D03*
X116395800Y-117602000D03*
%TD*%
D38*
%TO.C,R9*%
X71542500Y-107990000D03*
X69717500Y-107990000D03*
%TD*%
D44*
%TO.C,R21*%
X140477165Y-43164835D03*
X141767635Y-41874365D03*
%TD*%
D27*
%TO.C,TP4*%
X120675400Y-119532400D03*
%TD*%
D17*
%TO.C,R17*%
X198350500Y-95808800D03*
X200175500Y-95808800D03*
%TD*%
D19*
%TO.C,R13*%
X152210600Y-74733400D03*
X152210600Y-72908400D03*
%TD*%
D27*
%TO.C,TP10*%
X64719200Y-107975400D03*
%TD*%
%TO.C,TP5*%
X134874000Y-111277400D03*
%TD*%
D45*
%TO.C,SW2*%
X166583200Y-127044800D03*
D46*
X161503200Y-127044800D03*
%TD*%
D47*
%TO.C,BZ1*%
X199206800Y-77368400D03*
D48*
X199206800Y-74828400D03*
%TD*%
D27*
%TO.C,TP2*%
X62357000Y-77952600D03*
%TD*%
D49*
%TO.C,D4*%
X67057000Y-84124800D03*
X70357000Y-84124800D03*
%TD*%
D39*
%TO.C,D1*%
X151841200Y-53497400D03*
D40*
X151841200Y-50957400D03*
%TD*%
D35*
%TO.C,C7*%
X82548200Y-67310000D03*
X85498200Y-67310000D03*
%TD*%
D19*
%TO.C,R23*%
X156997400Y-70406900D03*
X156997400Y-68581900D03*
%TD*%
D17*
%TO.C,R4*%
X89562300Y-132562600D03*
X91387300Y-132562600D03*
%TD*%
%TO.C,R12*%
X198350500Y-92887800D03*
X200175500Y-92887800D03*
%TD*%
D19*
%TO.C,R8*%
X74574400Y-109827700D03*
X74574400Y-108002700D03*
%TD*%
D17*
%TO.C,R6*%
X142826100Y-111277400D03*
X144651100Y-111277400D03*
%TD*%
D50*
%TO.C,U4*%
X110796800Y-117500400D03*
X110796800Y-114960400D03*
X110796800Y-112420400D03*
X110796800Y-109880400D03*
X110796800Y-107340400D03*
X110796800Y-104800400D03*
X110796800Y-102260400D03*
X110796800Y-99720400D03*
X110796800Y-97180400D03*
X110796800Y-94640400D03*
X110796800Y-92100400D03*
X110796800Y-89560400D03*
X110796800Y-87020400D03*
X98096800Y-87020400D03*
X98096800Y-89560400D03*
X98096800Y-92100400D03*
X98096800Y-94640400D03*
X98096800Y-97180400D03*
X98096800Y-99720400D03*
X98096800Y-102260400D03*
X98096800Y-104800400D03*
X98096800Y-107340400D03*
X98096800Y-109880400D03*
X98096800Y-112420400D03*
X98096800Y-114960400D03*
X98096800Y-117500400D03*
%TD*%
D51*
%TO.C,C9*%
X52600900Y-88950800D03*
X47525900Y-88950800D03*
%TD*%
D52*
%TO.C,C3*%
X69720000Y-112655000D03*
X69720000Y-111105000D03*
%TD*%
D18*
%TO.C,R24*%
X200126600Y-100636700D03*
X200126600Y-102461700D03*
%TD*%
D17*
%TO.C,R22*%
X198299700Y-98755200D03*
X200124700Y-98755200D03*
%TD*%
%LPD*%
M02*
